<svg xmlns="http://www.w3.org/2000/svg" fill="#121212" xmlns:xlink="http://www.w3.org/1999/xlink" version="1.1" width="342.202995" height="59.75999999999999" viewBox="-71.1014975 76.57333333333332 342.202995 59.75999999999999" style="width: 100%; height: 100%; z-index: 5;"><g><g fill="#121212" transform="translate(-72.3254975 122.65333333333332) scale(1)"><path fill-rule="nonzero" d="M1.224000-2.376000C3.456000-0.504000 6.552000 0.720000 10.584000 0.720000C18.072000 0.720000 22.752000-3.240000 22.752000-10.944000L22.752000-42.768000L15.408000-42.768000L15.408000-11.880000C15.408000-7.488000 13.536000-5.904000 9.936000-5.904000C6.768000-5.904000 3.744000-7.344000 1.224000-9.936000ZM59.060299-14.328000L59.060299-17.928000C59.060299-26.640000 54.668299-32.616000 45.380299-32.616000C36.596299-32.616000 29.972299-25.848000 29.972299-15.696000C29.972299-5.616000 36.740299 0.720000 46.676299 0.720000C50.780299 0.720000 55.028299-0.216000 57.908299-2.232000L57.908299-8.496000C54.740299-6.408000 51.572299-5.400000 47.180299-5.400000C42.212299-5.400000 37.316299-8.496000 36.884299-14.184000L36.884299-14.328000ZM37.100299-18.936000C38.036299-23.760000 41.060299-26.640000 45.164299-26.640000C49.772299-26.640000 52.220299-23.904000 52.364299-18.936000ZM62.608599-25.920000L67.432599-25.920000L67.432599-9.144000C67.432599-1.872000 71.824599 0.720000 77.008599 0.720000C80.032599 0.720000 82.624599 0.072000 84.712599-1.008000L84.712599-7.416000C82.768599-6.264000 80.968599-5.616000 78.880599-5.616000C76.144599-5.616000 74.488599-6.912000 74.488599-10.728000L74.488599-25.920000L83.560599-25.920000L83.560599-31.896000L74.488599-31.896000L74.488599-39.672000L67.432599-39.672000L67.432599-31.896000L62.608599-31.896000ZM87.540898-25.920000L92.364898-25.920000L92.364898-9.144000C92.364898-1.872000 96.756898 0.720000 101.940898 0.720000C104.964898 0.720000 107.556898 0.072000 109.644898-1.008000L109.644898-7.416000C107.700898-6.264000 105.900898-5.616000 103.812898-5.616000C101.076898-5.616000 99.420898-6.912000 99.420898-10.728000L99.420898-25.920000L108.492898-25.920000L108.492898-31.896000L99.420898-31.896000L99.420898-39.672000L92.364898-39.672000L92.364898-31.896000L87.540898-31.896000ZM123.921198-31.896000L116.793198-31.896000L116.793198 0L123.921198 0ZM120.321198-37.152000C122.697198-37.152000 124.785198-39.168000 124.785198-41.688000C124.785198-44.136000 122.697198-46.080000 120.321198-46.080000C117.945198-46.080000 115.857198-44.136000 115.857198-41.688000C115.857198-39.168000 117.945198-37.152000 120.321198-37.152000ZM133.949497 0L141.077497 0L141.077497-25.200000C142.949497-25.776000 145.469497-26.136000 147.989497-26.136000C151.949497-26.136000 154.829497-24.480000 154.829497-19.872000L154.829497 0L161.885497 0L161.885497-20.520000C161.885497-29.520000 156.701497-32.616000 148.565497-32.616000C143.885497-32.616000 138.413497-31.608000 133.949497-29.880000ZM192.217797-0.576000C192.217797 5.400000 188.329797 7.704000 183.793797 7.704000C180.049797 7.704000 176.737797 6.768000 173.281797 4.896000L173.281797 11.448000C176.233797 12.816000 179.905797 13.680000 183.793797 13.680000C191.065797 13.680000 199.273797 10.296000 199.273797-0.144000L199.273797-30.312000C196.105797-31.608000 191.641797-32.616000 187.249797-32.616000C176.161797-32.616000 169.177797-26.424000 169.177797-16.200000C169.177797-5.616000 176.161797-0.072000 186.097797-0.072000C188.545797-0.072000 191.137797-0.648000 192.217797-1.296000ZM192.217797-7.128000C190.489797-6.480000 188.905797-6.048000 186.673797-6.048000C180.409797-6.048000 176.377797-9.936000 176.377797-16.200000C176.377797-22.752000 180.481797-26.352000 187.249797-26.352000C189.121797-26.352000 190.849797-26.064000 192.217797-25.560000ZM208.582096-4.320000C208.582096-1.584000 210.742096 0.648000 213.478096 0.648000C216.286096 0.648000 218.518096-1.584000 218.518096-4.320000C218.518096-7.056000 216.286096-9.288000 213.478096-9.288000C210.742096-9.288000 208.582096-7.056000 208.582096-4.320000ZM251.298396-30.240000C248.490396-31.824000 245.754396-32.616000 242.226396-32.616000C232.866396-32.616000 225.450396-26.208000 225.450396-15.912000C225.450396-5.688000 232.506396 0.720000 242.226396 0.720000C245.610396 0.720000 248.706396 0 251.658396-1.656000L251.658396-8.424000C249.066396-6.552000 246.330396-5.544000 243.162396-5.544000C236.970396-5.544000 232.650396-9.576000 232.650396-15.912000C232.650396-22.608000 237.114396-26.280000 242.874396-26.280000C245.826396-26.280000 248.634396-25.416000 251.298396-23.328000ZM257.078695-15.912000C257.078695-6.048000 263.990695 0.720000 273.494695 0.720000C283.070695 0.720000 289.982695-6.048000 289.982695-15.912000C289.982695-25.848000 283.070695-32.616000 273.494695-32.616000C263.990695-32.616000 257.078695-25.848000 257.078695-15.912000ZM282.782695-15.912000C282.782695-9.504000 278.966695-5.400000 273.494695-5.400000C268.166695-5.400000 264.278695-9.504000 264.278695-15.912000C264.278695-22.392000 268.166695-26.496000 273.494695-26.496000C278.966695-26.496000 282.782695-22.392000 282.782695-15.912000ZM336.370995 0L343.426995 0L343.426995-20.664000C343.426995-29.520000 338.890995-32.616000 331.258995-32.616000C326.938995-32.616000 323.338995-31.464000 320.098995-30.096000C318.154995-31.680000 315.202995-32.616000 311.458995-32.616000C306.922995-32.616000 302.026995-31.464000 297.634995-29.808000L297.634995 0L304.762995 0L304.762995-25.272000C306.562995-25.848000 308.578995-26.352000 311.170995-26.352000C314.626995-26.352000 317.002995-24.696000 317.002995-20.448000L317.002995 0L324.058995 0L324.058995-20.880000C324.058995-22.608000 323.770995-23.904000 323.338995-24.912000C324.922995-25.632000 327.730995-26.352000 330.538995-26.352000C333.922995-26.352000 336.370995-24.696000 336.370995-20.448000Z"></path></g></g></svg>