<svg xmlns:svg="http://www.w3.org/2000/svg" xmlns="http://www.w3.org/2000/svg" xmlns:xlink="http://www.w3.org/1999/xlink" viewBox="457.38 374.82 109.23 18.36">
  <g transform="translate(408.3824992 0)">
    <path d="m 367.21756,-1.512 c 2.376,1.296 4.968,1.872 7.704,1.872 4.464,0 7.92,-1.224 10.224,-3.816 2.304,-2.52 3.456,-6.336 3.456,-11.376 V -50.4 h -22.248 v 3.312 h 18.576 v 32.256 c 0,4.032 -0.864,7.056 -2.52,9 -1.656,1.944 -4.176,2.88 -7.488,2.88 -2.304,0 -4.392,-0.504 -6.264,-1.584 -1.872,-1.08 -3.528,-2.664 -4.896,-4.752 l -2.232,2.448 c 1.44,2.304 3.312,4.032 5.688,5.328 z" stroke-width="2" stroke-linejoin="miter" stroke-miterlimit="2" fill="#121212" stroke="#121212" transform="translate(0 291.304) translate(50 84.632) scale(0.32) translate(-361.52956 50.4)"/>
    <path d="m 438.29844,-27.216 h -32.616 v 3.24 h 32.616 z m 0,-23.184 h -32.616 v 3.312 h 32.616 z m -32.616,47.088 V 0 h 32.616 v -3.312 z" stroke-width="2" stroke-linejoin="miter" stroke-miterlimit="2" fill="#121212" stroke="#121212" transform="translate(0 291.304) translate(66.3369216 84.632) scale(0.32) translate(-405.68244 50.4)"/>
    <path d="M 463.56481,-47.088 V 0 h 3.672 v -47.088 h 18.144 V -50.4 h -39.96 v 3.312 z" stroke-width="2" stroke-linejoin="miter" stroke-miterlimit="2" fill="#121212" stroke="#121212" transform="translate(0 291.304) translate(81.26120000000002 84.632) scale(0.32) translate(-445.42081 50.4)"/>
    <path d="M 504.76794,-47.088 V 0 h 3.672 v -47.088 h 18.144 V -50.4 h -39.96 v 3.312 z" stroke-width="2" stroke-linejoin="miter" stroke-miterlimit="2" fill="#121212" stroke="#121212" transform="translate(0 291.304) translate(96.65420160000002 84.632) scale(0.32) translate(-486.62394 50.4)"/>
    <path d="M 535.61994,-50.4 V 0 h 3.672 v -50.4 z" stroke-width="2" stroke-linejoin="miter" stroke-miterlimit="2" fill="#121212" stroke="#121212" transform="translate(0 291.304) translate(114.54092160000003 84.632) scale(0.32) translate(-535.61994 50.4)"/>
    <path d="m 597.89431,-50.4 h -3.672 v 43.776 l -34.272,-43.776 h -3.096 V 0 h 3.672 V -43.776 L 594.87031,0 h 3.024 z" stroke-width="2" stroke-linejoin="miter" stroke-miterlimit="2" fill="#121212" stroke="#121212" transform="translate(0 291.304) translate(123.54392000000003 84.632) scale(0.32) translate(-556.85431 50.4)"/>
    <path d="m 651.49494,-24.984 v 17.352 c -3.816,3.096 -8.568,4.608 -14.328,4.608 -4.32,0 -8.208,-0.936 -11.664,-2.88 -3.456,-1.944 -6.192,-4.608 -8.208,-7.992 -2.016,-3.384 -2.952,-7.128 -2.952,-11.304 0,-4.176 0.936,-7.92 2.952,-11.304 1.944,-3.384 4.68,-6.048 8.136,-7.992 3.456,-1.872 7.416,-2.88 11.736,-2.88 3.168,0 6.048,0.504 8.64,1.44 2.592,0.936 4.968,2.448 7.128,4.536 l 2.304,-2.448 c -2.232,-2.232 -4.896,-3.96 -7.992,-5.112 -3.096,-1.152 -6.48,-1.8 -10.152,-1.8 -5.04,0 -9.576,1.152 -13.608,3.312 -4.032,2.232 -7.128,5.256 -9.432,9.144 -2.304,3.888 -3.384,8.28 -3.384,13.104 0,4.896 1.08,9.216 3.384,13.104 2.304,3.888 5.4,6.984 9.432,9.144 4.032,2.232 8.496,3.312 13.536,3.312 3.456,0 6.768,-0.504 9.936,-1.656 3.168,-1.08 5.832,-2.664 8.064,-4.824 v -18.864 z" stroke-width="2" stroke-linejoin="miter" stroke-miterlimit="2" fill="#121212" stroke="#121212" transform="translate(0 291.304) translate(142.9732416 84.51679999999999) scale(0.32) translate(-610.67094 50.76)"/>
  </g>
</svg>