<svg xmlns="http://www.w3.org/2000/svg" viewBox="0 0 500 500" xmlns:v="https://vecta.io/nano"><style><![CDATA[.B{fill:#263238}.C{fill:#e8505b}.D{fill:#455a64}.E{fill:#fff}.F{opacity:.6}.G{fill:#e0e0e0}.H{fill:#ffbe9d}.I{fill:#f5f5f5}.J{fill:#ebebeb}.K{fill:#eb996e}]]></style><path d="M468.8 148.96c.589-4.277-5.448-7.796-9.984-8.162-2.163-.174-4.41.156-6.46-.558-4.44-1.548-6.214-7.284-10.546-9.111-3.239-1.366-6.968-.15-10.108 1.43s-6.243 3.569-9.751 3.794c-3.052.195-6.365-.936-9.035.554-1.99 1.111-3.032 3.403-4.865 4.756-1.794 1.323-4.134 1.603-6.36 1.724s-4.53.143-6.557 1.072-3.704 3.071-3.283 5.26l76.949-.759z" class="J"/><path d="M248.527 156.203c-1.038-2.343-1.272-4.937-1.958-7.397-.368-1.322-.988-2.728-2.226-3.314-.82-.385-1.791-.335-2.661-.602-3.13-.937-3.983-5.305-6.945-6.661-.937-.418-1.975-.502-2.979-.619-3.966-.468-8.066-1.841-10.56-4.953-.82-1.004-1.439-2.192-2.443-3.013-1.021-.82-2.594-1.171-3.581-.334l2.477 5.004c.753 1.506 1.523 3.063 2.778 4.167 1.272 1.121 3.146 1.707 4.669 1.004.502-.234 1.004-.619 1.573-.552.402.05.753.335 1.021.653 2.159 2.393 1.456 6.359-.653 8.803-2.092 2.427-5.205 3.699-8.2 4.887-1.071.418-2.209.854-3.347.653-2.075-.385-3.18-2.644-3.782-4.669-1.355-4.485-2.008-9.355-4.786-13.137-.887-1.188-1.991-2.276-2.527-3.665-.569-1.506-.436-3.264-1.339-4.586-.937-1.389-2.929-2.192-3.062-3.866-.084-1.171.887-2.209 1.958-2.711 1.071-.519 2.276-.669 3.381-1.121.435-.184.92-.502.937-.971 0-.703-.971-.987-1.222-1.64-.268-.737.485-1.423.803-2.142.686-1.64-1.021-3.297-2.677-3.966-1.64-.669-3.632-1.155-4.402-2.761-.351-.736-.385-1.59-.535-2.393-.385-2.025-1.875-3.983-3.916-4.318-2.059-.335-4.334 1.49-4 3.531.201 1.121 1.038 1.992 1.489 3.029.469 1.037.335 2.577-.736 2.912-1.757.535-3.448-2.678-4.92-1.573l1.791 6.192c-2.31 1.171-5.071-.954-6.058-3.364-.988-2.393-1.021-5.138-2.193-7.447-1.172-2.326-4.334-4.049-6.343-2.41-.1 2.979 3.833 4.184 5.573 6.594 1.255 1.74 1.071 4.569-.787 5.673-1.841 1.105-4.769-.82-4.067-2.845.251-.703.837-1.289.904-2.042.067-.937-.72-1.69-1.439-2.293l-3.364-2.829c-.72-.602-1.49-1.238-2.394-1.506-2.309-.669-4.619 1.205-5.84 3.264-1.222 2.075-1.908 4.502-3.598 6.226-2.427 2.51-7.029 2.661-9.305.033-2.293-2.627-1.121-7.547 2.242-8.501 1.272-.351 2.879-.318 3.548-1.439 1.171-1.992-2.176-4.535-1.021-6.544.887-1.539 3.23-.837 4.937-1.355 1.69-.519 2.644-2.226 3.648-3.698.988-1.456 2.544-2.929 4.284-2.544-.134-1.021-.268-2.125.184-3.046.452-.937 1.724-1.54 2.56-.937-.853 1.406.168 3.364 1.657 4.066s3.23.536 4.87.352c1.64-.201 3.699-.803 3.832-2.443.05-.536-.151-1.104.05-1.606.719-1.958 4.334.736 5.723-.837.803-.82-.084-2.276-1.205-2.544-1.104-.285-2.259.134-3.397.167-1.138.05-2.527-.552-2.577-1.69-.05-1.121 1.205-1.925 1.339-3.029.217-1.875-2.962-2.36-4.084-.837-1.104 1.523-.72 3.615-.385 5.472.351 1.858.519 4.05-.854 5.355-.586.887-2.108.418-2.611-.519-.519-.937-.402-2.075-.486-3.13-.083-1.071-.552-2.276-1.59-2.561-.719-.201-1.489.151-2.226.251-2.912.351-4.937-3.414-4.016-6.192.904-2.795 3.548-4.586 6.109-6.008 1.874-1.038 4.2-2.009 6.058-.954.87.485 1.473 1.322 2.326 1.824 1.473.87 3.297.552 4.987.586 2.661.067 5.288 1.088 7.28 2.828.753.686 1.456 1.824.87 2.644-.636.87-2.46 1.054-2.142 2.075 1.975.653 4.335-.87 4.552-2.929.971.435 1.673 1.423 1.757 2.477 2.126-2.159 6.209-1.841 7.949.653.469.653.803 1.439 1.473 1.891.67.435 1.841.218 1.924-.569.033-.251-.05-.502-.134-.736l-1.222-3.381c1.557-.837 3.397.469 4.451 1.874 3.916 5.238 6.711 2.092 12.234 2.945 3.732.569 5.372 2.962 7.481 5.857 6.46 8.903 14.995 16.2 20.869 25.505.619.971 1.188 1.958 1.723 2.962-.1-.251-.184-.502-.284-.753-2.309-6.075-5.171-11.882-8.535-17.355a119.85 119.85 0 0 0-2.209-3.464l-1.439-2.109c-.619-.904-1.272-1.774-1.925-2.644-.519-.703-1.037-1.389-1.573-2.059l-1.138-1.406c-.402-.535-.837-1.054-1.306-1.573l-1.406-1.623c-.134-.167-.285-.335-.452-.502-.485-.569-1.004-1.121-1.523-1.674-.033-.067-.084-.117-.151-.167a10.71 10.71 0 0 0-.435-.452c-.418-.469-.87-.921-1.305-1.372-.72-.736-1.456-1.473-2.209-2.176-.619-.619-1.255-1.205-1.908-1.791l-1.724-1.54a73.86 73.86 0 0 0-1.724-1.473 74.97 74.97 0 0 0-2.159-1.774h-.017c-2.025-1.623-4.117-3.163-6.259-4.602l-1.59-1.071c-.535-.368-1.088-.703-1.623-1.038l-1.64-1.004c-.552-.352-1.105-.669-1.657-.988-.452-.268-.887-.519-1.339-.753a7.17 7.17 0 0 0-.686-.385c-.954-.535-1.924-1.054-2.895-1.54l-1.473-.736c-.619-.318-1.255-.619-1.891-.904-.084-.05-.184-.1-.285-.134l-1.724-.786-2.46-1.037-2.828-1.121a72.02 72.02 0 0 0-3.18-1.138c-1.071-.368-2.159-.72-3.247-1.055s-2.176-.636-3.28-.937a108.18 108.18 0 0 0-6.61-1.556c-.034-.017-.084-.017-.117-.034l-2.56-.468c-.067-.017-.117-.034-.168-.034-.368-.067-.753-.134-1.138-.184-1.59-.268-3.196-.485-4.82-.669-.184-.033-.385-.05-.586-.067-.468-.067-.937-.1-1.422-.151a102.25 102.25 0 0 0-3.23-.251c-1.121-.084-2.259-.134-3.397-.167a84.75 84.75 0 0 0-3.565-.067c-3.146 0-6.259.134-9.338.418-.736.05-1.456.117-2.176.201l-2.259.268-2.243.318-2.243.368c-.636.1-1.288.218-1.924.352a104.66 104.66 0 0 0-4.669 1.004 51.78 51.78 0 0 0-2.159.552 78.72 78.72 0 0 0-2.142.586c-1.188.335-2.343.703-3.498 1.071h-.017l-2.811.954c-.017 0-.05.017-.067.033a82.33 82.33 0 0 0-2.812 1.054l-.151.05-2.544 1.038c-1.054.435-2.092.904-3.113 1.372l-2.56 1.222-2.694 1.372-.101.05a74.86 74.86 0 0 0-2.543 1.405 57.43 57.43 0 0 0-2.578 1.523h-.009l-2.376 1.473c-.301.184-.586.385-.887.586-.837.536-1.64 1.088-2.46 1.657-1.004.686-1.975 1.406-2.945 2.125a100.31 100.31 0 0 0-2.51 1.941c-4.736 3.782-9.154 7.949-13.154 12.468-1.422 1.573-2.761 3.18-4.066 4.82-1.105 1.406-2.176 2.828-3.197 4.301a94.09 94.09 0 0 0-2.663 3.912c.855-1.326 1.743-2.632 2.663-3.912.268-.034.536-.067.803-.084 1.506-.117 3.096-.067 4.452-.719 1.255-.619 2.142-1.741 3.28-2.544 2.912-2.075 7.682-2.46 8.468-5.941.268-1.172-.051-2.443.385-3.564.82-2.092 3.615-2.393 5.857-2.36.954 0 2.075.134 2.51.97.318.586.134 1.322-.1 1.942-1.372 3.916-4.15 7.297-7.682 9.439-2.912 1.774-6.711 3.146-7.514 6.46.402 1.121 2.443 1.038 2.61 2.209.117.937-1.087 1.423-1.523 2.259-.636 1.222.82 2.711 2.209 2.644s2.544-1.071 3.565-2.008c3.046-2.828 6.242-5.874 7.347-9.891.469-1.657.636-3.598 1.974-4.703 1.59-1.305 4.435-.402 4.971 1.59 1.322-.736 3.381-1.289 4.067.084.234.485.167 1.054.284 1.573.435 2.142 3.364 3.113 3.665 5.272.352 2.494-2.845 3.782-5.339 4.167l-6.778 1.071c-.987.15-2.008.318-2.811.903-.803.602-1.305 1.741-.837 2.628.268.485.787.803 1.172 1.205 1.874 1.874.335 5.74-2.309 5.824-.904.033-1.791-.301-2.695-.335-2.677-.117-4.803 2.242-6.075 4.602s-2.226 5.054-4.368 6.66c-3.448 2.594-9.388 1.992-11.062 5.975-.67 1.606-.318 3.414-.05 5.137.268 1.707.385 3.615-.619 5.037-.987 1.406-3.565 1.707-4.301.134-.318-.686-.218-1.489-.1-2.226l1.172-7.43c.284-1.841.535-3.899-.552-5.406-1.523-2.109-4.937-1.908-6.912-.217-1.958 1.69-2.778 4.335-3.33 6.861-.402 1.874-.87 4.518-1.908 6.66-.351 2.075-.636 4.184-.854 6.309a105.52 105.52 0 0 0-.452 6.544c.268-.218.552-.485.854-.803 1.054-1.088 3.18-5.69 5.088-3.431a1.71 1.71 0 0 1 .033 2.092c-.586.753-1.757.92-2.209 1.74-.552.971.218 2.176 1.121 2.812.904.653 2.008 1.055 2.644 1.975 1.222 1.757.05 4.418 1.239 6.209 1.021 1.54 3.197 1.64 5.054 1.841l.636.101c.519-3.682 2.243-6.678 7.263-7.816 6.928-1.573 16.033 4.167 19.932 9.389 4.351 5.841 6.41 14.108 13.071 17.036 4.77 2.092 11.548 1.339 13.874 6.008 2.075 4.184-1.54 8.887-2.092 13.522-.351 3.063.653 6.108.887 9.171.218 3.079-.686 6.661-3.481 7.949-1.556.703-3.514.619-4.77 1.791-2.226 2.109-.402 6.46-2.627 8.569-.787.736-1.874 1.004-2.828 1.489-5.004 2.527-4.87 9.891-2.544 14.995l.251.535a104.03 104.03 0 0 0 23.781 10.493c9.64 2.929 19.865 4.485 30.459 4.485 17.923 0 34.826-4.468 49.62-12.351h.017c3.214-1.724 6.343-3.598 9.355-5.64 4.669-3.13 9.054-6.627 13.137-10.443 2.828-2.644 5.523-5.439 8.033-8.384 1.774-2.042 3.447-4.167 5.054-6.343.82-1.121 1.623-2.243 2.376-3.397 2.309-3.38 4.418-6.912 6.309-10.56a102.01 102.01 0 0 0 6.845-16.501c1.858-5.774 3.213-11.765 4.033-17.924a112.79 112.79 0 0 0 .736-7.213c-1.155 1.121-2.661 1.924-4.251 1.891-2.545-.027-4.637-2.153-5.658-4.496z" class="I"/><path d="M127.667 73.774c-2.096 1.252-3.21 3.617-4.826 5.446s-4.516 3.133-6.424 1.611c-.918-.732-1.331-1.942-1.435-3.112-.15-1.681.256-3.407 1.138-4.845.911-1.484 2.301-2.652 3.072-4.214s.614-3.848-.967-4.581c-.855-.396-1.93-.241-2.689-.8-1.363-1.005-.387-3.378 1.197-3.978s3.341-.135 5.031-.027c6.13.391 10.638-3.623 15.246-6.956 3.584-2.593 11.218-5.655 15.366-3.007 1.655 1.057 2.302 3.774.743 4.968-.698.534-1.66.653-2.309 1.245-.779.71-.889 1.876-1.335 2.83-1.16 2.481-4.507 3.382-5.583 5.9-.648 1.516-.356 3.402-1.356 4.713-.793 1.039-2.167 1.407-3.439 1.709l-7.994 1.901c-1.185.283-2.391.573-3.436 1.197zm71.461 130.169c-2.652 3.996-3.133 8.99-3.869 13.729s-2 9.776-5.642 12.897-10.33 2.936-12.334-1.421c-1.088-2.365-.53-5.154-1.123-7.69-.773-3.302-3.402-5.851-4.649-9.004-1.064-2.691-1.067-5.663-1.154-8.555-.474-15.803-4.328-32.296-15.087-43.881-1.321-1.423-2.822-2.809-4.7-3.308-2.232-.592-4.782.287-6.174 2.13-.864 1.143-1.31 2.602-2.368 3.569-2.299 2.1-6.314.595-7.849-2.113s-1.323-6.028-1.066-9.131l.955-11.542c.167-2.013.393-4.173 1.713-5.7 1.878-2.172 5.247-2.274 7.545-3.995 3.013-2.257 3.414-6.562 5.314-9.812s7.847-4.624 8.726-.964c6.29-13.462 20.189 6.538 28.454 5.034 2.4-.437 4.745-1.589 7.161-1.252 4.266.597 6.469 5.298 7.921 9.354l7.229 20.198c.918 2.564 2.104 5.415 4.643 6.4 1.947.755 4.208.179 6.17.893 5.186 1.887 3.5 10.049-.673 13.661s-10.031 5.89-12.015 11.039c-1.495 3.88-.303 8.426-1.911 12.26-1.152 2.743-3.573 4.726-5.217 7.204zm19.688 4.389c-1.704.239-3.716-.602-5.011.531-.756.661-.923 1.746-1.223 2.705-.416 1.33-1.216 2.588-2.415 3.299s-2.83.77-3.941-.071-1.451-2.636-.542-3.693c.414-.481 1.01-.766 1.471-1.202 2.262-2.138.713-6.102 2.434-8.644 1.014-1.498 2.61-3.02 3.725-4.538.856-1.168 1.171-2.094 2.746-2.404 6.892-1.358 10.008 13.001 2.756 14.017z" class="J"/><path d="M47.217 149.927l-.034 1.908.025 1.548-.025-1.548.034-1.908z" class="B"/><g class="F B"><path d="M94.053 239.665l2.701 1.755 1.925 1.171-1.925-1.171-2.701-1.755z"/></g><g class="F B"><path d="M47.284 147.434v-.017h0 0v.017l-.034.586-.033 1.908.033-1.908c0-.201.017-.385.034-.586z"/></g><g class="F B"><path d="M47.209 153.383l.025 1.548h0 0l-.025-1.548z"/></g><path d="M113.79 198.092c.552-4.636 4.167-9.338 2.092-13.522-2.326-4.669-9.104-3.916-13.874-6.008-6.661-2.929-8.719-11.196-13.071-17.036-3.899-5.222-13.003-10.962-19.932-9.389-5.021 1.138-6.744 4.134-7.263 7.816l-.636-.101c-1.858-.201-4.033-.301-5.054-1.841-1.188-1.791-.017-4.452-1.239-6.209-.636-.92-1.741-1.322-2.644-1.975-.903-.636-1.673-1.841-1.121-2.812.451-.82 1.623-.987 2.209-1.74a1.71 1.71 0 0 0-.034-2.092c-1.908-2.259-4.033 2.343-5.087 3.431-.302.318-.586.585-.854.803v.017c-.017.201-.034.385-.034.586-.025.628-.023 1.27-.033 1.908l-.034 1.908c0 .519.017 1.031.025 1.548l.025 1.548c0 .251 0 .485.017.736a105.36 105.36 0 0 0 6.728 33.555c1.808 4.786 3.966 9.422 6.46 13.857 1.038 1.924 2.176 3.815 3.364 5.673 1.473 2.293 3.012 4.535 4.669 6.694 1.539 2.075 3.18 4.1 4.904 6.041a104.88 104.88 0 0 0 7.48 7.698c2.326 2.176 4.753 4.234 7.28 6.192-5.413-14.528-10.532-29.336-19.286-41.997 8.754 12.66 13.873 27.468 19.286 41.996h.017c1.071.854 2.159 1.657 3.263 2.444l2.638 1.843c.889.6 1.789 1.186 2.701 1.755a72.48 72.48 0 0 0 1.925 1.172l-.251-.535c-2.327-5.105-2.46-12.468 2.544-14.995.954-.485 2.042-.753 2.828-1.489 2.226-2.109.402-6.46 2.627-8.569 1.255-1.171 3.214-1.088 4.77-1.791 2.795-1.289 3.699-4.87 3.481-7.949-.233-3.063-1.237-6.109-.886-9.171zm-52.08-27.58c.017-1.054-.013-2.138-.05-3.224.037 1.086.067 2.17.05 3.224h0zm-5.523-7.213c-.368-.084-.77-.201-.987-.502-.235-.318-.201-.736-.218-1.121-.109-1.939-1.658-3.338-3.342-4.435 1.684 1.097 3.233 2.495 3.342 4.435.017.385-.017.803.218 1.121.217.301.619.418.987.502 1.757.418 3.565.669 5.372.753-1.807-.084-3.615-.335-5.372-.753zm4.803 16.334c-.084-.757-.083-1.515-.036-2.272-.048.757-.048 1.515.036 2.272.182 1.607.715 3.105 1.446 4.532-.731-1.427-1.264-2.926-1.446-4.532zm2.239 5.936a30.1 30.1 0 0 0 .891 1.366 29.55 29.55 0 0 1-.891-1.366zm-9.402-64.527c1.975-1.69 5.389-1.891 6.912.217 1.088 1.506.837 3.565.552 5.406l-1.172 7.43c-.117.737-.218 1.54.1 2.226.736 1.573 3.314 1.272 4.301-.134 1.004-1.423.887-3.33.619-5.037-.268-1.724-.619-3.531.05-5.137 1.674-3.983 7.614-3.381 11.062-5.975 2.142-1.606 3.096-4.301 4.368-6.66s3.397-4.719 6.075-4.602c.904.033 1.791.368 2.695.335 2.644-.084 4.184-3.95 2.309-5.824-.385-.402-.904-.72-1.172-1.205-.468-.887.034-2.025.837-2.628.803-.585 1.824-.753 2.811-.903l6.778-1.071c2.494-.385 5.69-1.673 5.339-4.167-.301-2.159-3.23-3.13-3.665-5.272-.117-.519-.05-1.088-.284-1.573-.686-1.372-2.745-.82-4.067-.084-.535-1.992-3.38-2.895-4.971-1.59-1.339 1.105-1.506 3.046-1.974 4.703-1.105 4.016-4.301 7.062-7.347 9.891-1.021.937-2.176 1.941-3.565 2.008s-2.845-1.422-2.209-2.644c.435-.837 1.64-1.322 1.523-2.259-.167-1.172-2.209-1.088-2.61-2.209.803-3.313 4.602-4.686 7.514-6.46 3.531-2.142 6.309-5.523 7.682-9.439.234-.619.418-1.356.1-1.942-.435-.837-1.556-.97-2.51-.97-2.243-.034-5.037.268-5.857 2.36-.435 1.121-.117 2.393-.385 3.564-.787 3.481-5.556 3.866-8.468 5.941-1.138.803-2.025 1.924-3.28 2.544-1.355.653-2.945.602-4.452.719-.268.017-.535.05-.803.084A94.09 94.09 0 0 0 64 94.597c-.855 1.326-1.68 2.673-2.475 4.037a104.72 104.72 0 0 0-9.171 20.451c-.82 2.502-1.544 5.046-2.171 7.627s-1.159 5.201-1.594 7.853c1.038-2.142 1.506-4.786 1.908-6.661.552-2.527 1.372-5.172 3.33-6.862z" class="J"/><g class="F B"><path d="M252.008 114.9l1.421 4.044-1.421-4.044s.017-.017 0-.017z"/></g><path d="M258.618 150.379l-.136-4.535-.349-4.485-.418-3.581-.558-3.746c-.626-3.726-1.454-7.391-2.471-10.981-.393-1.381-.812-2.749-1.257-4.107a102.52 102.52 0 0 0-1.421-4.044c-.535-1.021-1.104-2.008-1.723-2.979-5.874-9.305-14.409-16.602-20.869-25.505-2.109-2.895-3.749-5.288-7.481-5.857-5.522-.854-8.318 2.293-12.234-2.945-1.054-1.406-2.895-2.711-4.451-1.874l1.222 3.381c.084.234.167.485.134.736-.084.787-1.255 1.004-1.924.569-.669-.452-1.004-1.238-1.473-1.891-1.74-2.493-5.824-2.812-7.949-.653a3.05 3.05 0 0 0-1.757-2.477c-.217 2.059-2.577 3.581-4.552 2.929-.318-1.021 1.506-1.205 2.142-2.075.586-.82-.117-1.958-.87-2.644-1.992-1.741-4.619-2.762-7.28-2.828-1.69-.034-3.515.284-4.987-.586-.853-.502-1.456-1.339-2.326-1.824-1.858-1.054-4.184-.084-6.058.954-2.561 1.422-5.205 3.213-6.109 6.008-.92 2.778 1.105 6.543 4.016 6.192.737-.101 1.506-.452 2.226-.251 1.038.285 1.506 1.49 1.59 2.561.084 1.054-.034 2.192.486 3.13.502.937 2.025 1.406 2.611.519 1.372-1.305 1.205-3.498.854-5.355-.335-1.858-.72-3.95.385-5.472 1.121-1.523 4.301-1.038 4.084.837-.134 1.104-1.389 1.908-1.339 3.029.05 1.138 1.439 1.74 2.577 1.69 1.138-.034 2.293-.452 3.397-.167 1.122.268 2.008 1.724 1.205 2.544-1.389 1.573-5.004-1.121-5.723.837-.201.502 0 1.071-.05 1.606-.134 1.64-2.192 2.243-3.832 2.443-1.64.184-3.38.352-4.87-.352s-2.51-2.661-1.657-4.066c-.836-.603-2.108 0-2.56.937-.452.92-.318 2.025-.184 3.046-1.74-.385-3.297 1.088-4.284 2.544-1.004 1.473-1.958 3.18-3.648 3.698-1.707.519-4.05-.184-4.937 1.355-1.155 2.008 2.192 4.552 1.021 6.544-.669 1.121-2.276 1.088-3.548 1.439-3.364.954-4.535 5.874-2.242 8.501 2.276 2.628 6.878 2.477 9.305-.033 1.69-1.724 2.377-4.15 3.598-6.226 1.222-2.058 3.531-3.933 5.84-3.264.904.268 1.674.904 2.394 1.506l3.364 2.829c.719.602 1.506 1.355 1.439 2.293-.067.753-.653 1.339-.904 2.042-.703 2.025 2.226 3.949 4.067 2.845 1.858-1.104 2.042-3.933.787-5.673-1.74-2.41-5.673-3.615-5.573-6.594 2.008-1.64 5.171.084 6.343 2.41 1.171 2.31 1.205 5.054 2.193 7.447.987 2.41 3.748 4.535 6.058 3.364l-1.791-6.192c1.472-1.104 3.163 2.109 4.92 1.573 1.071-.335 1.205-1.874.736-2.912-.452-1.037-1.289-1.908-1.489-3.029-.334-2.042 1.941-3.866 4-3.531 2.041.335 3.531 2.293 3.916 4.318.151.803.184 1.657.535 2.393.77 1.607 2.762 2.092 4.402 2.761 1.657.669 3.364 2.326 2.677 3.966-.318.72-1.071 1.406-.803 2.142.251.653 1.222.937 1.222 1.64-.017.468-.502.786-.937.971-1.105.452-2.31.602-3.381 1.121-1.071.502-2.042 1.54-1.958 2.711.133 1.674 2.125 2.477 3.062 3.866.904 1.322.77 3.079 1.339 4.586.535 1.389 1.64 2.477 2.527 3.665 2.778 3.782 3.431 8.652 4.786 13.137.602 2.025 1.707 4.284 3.782 4.669 1.138.201 2.276-.234 3.347-.653 2.995-1.188 6.108-2.46 8.2-4.887 2.109-2.443 2.811-6.41.653-8.803-.268-.318-.619-.602-1.021-.653-.569-.067-1.071.318-1.573.552-1.523.703-3.397.117-4.669-1.004-1.255-1.104-2.025-2.661-2.778-4.167l-2.477-5.004c.988-.837 2.561-.486 3.581.334 1.004.82 1.623 2.008 2.443 3.013 2.493 3.113 6.594 4.485 10.56 4.953 1.004.117 2.042.201 2.979.619 2.962 1.356 3.816 5.724 6.945 6.661.87.268 1.841.218 2.661.602 1.238.586 1.857 1.992 2.226 3.314.686 2.46.92 5.054 1.958 7.397 1.021 2.343 3.113 4.468 5.657 4.502 1.59.034 3.096-.77 4.251-1.891v-.017a119.85 119.85 0 0 0 .217-6.962c-.005-.485-.005-.971-.039-1.456zm-59.052-15.088c-.655-1.057-.755-1.205-1.543-1.805-1.644-1.483-3.75-1.281-4.603-.189-.955 1.222-.943 2.995-.336 4.423.554 1.302 1.614 2.436 2.971 2.835s2.99-.068 3.747-1.263.505-2.803-.236-4.001z" class="J"/><g class="G"><path d="M41.526 376.417a34.09 34.09 0 0 0-14.586-5.021c-2.383-.245-4.988-.175-6.9 1.269-.406.306-.801.76-.711 1.26.067.368.378.635.675.862 5.935 4.528 14.913 5.099 21.522 1.63m-.374-.412c-3.302-2.577-6.623-5.172-9.421-8.289s-5.071-6.819-5.907-10.924c-.253-1.245-.332-2.667.467-3.655 7.51 5.865 13.409 13.45 14.861 22.868"/><path d="M41.449 376.361c-.566-4.108-.769-8.331.174-12.369s3.14-7.903 6.589-10.207c1.298 3.033.74 6.528-.174 9.698a47.14 47.14 0 0 1-6.533 13.755m7.306 12.314c-4.469.543-8.361 2.899-11.698 5.921s-5.709 7.093-6.691 11.486c4.384-.271 8.102-3.362 10.799-6.828s4.566-7.269 7.529-10.511m1.659 2.042c-3.6-8.867-2.295-19.55 3.331-27.291 2.547 9.057 1.612 19.286-3.331 27.291m9.727 11.582c-4.056-.252-8.179.714-11.701 2.741s-6.428 5.108-8.247 8.741c-.247.494-.465 1.122-.134 1.564.287.384.844.42 1.323.389 3.931-.255 7.416-2.62 10.291-5.314s5.38-5.805 8.557-8.134"/><path d="M59.826 402.613c-2.092-6.694-2.222-13.989-.371-20.753.731-2.671 1.959-5.484 4.429-6.736.211-.107.456-.202.678-.119.21.079.331.294.428.496.879 1.836 1.135 3.921 1.044 5.954s-.512 4.036-.933 6.027c-.778 3.684-1.192 7.643-3.212 10.82-.479.754-.902 1.569-1.285 2.376s-.385 1.092-.736 1.734m25.706 4.037c-1.908-7.256.117-16.053 4.69-22.001.337-.438.783-.908 1.333-.856.842.078 1.06 1.2 1.023 2.045-.331 7.414-2.805 14.721-7.046 20.812m2.321 1.587c8.816 2.294 18.929.064 26.262-5.341a21.27 21.27 0 0 0-14.217-1.745c-4.749 1.086-9.089 3.214-12.045 7.086m1.958-4.831c4.938-8.05 14.403-13.304 23.834-13.782-1.087 3.836-4.239 6.817-7.796 8.619s-7.527 2.586-11.441 3.346c-1.522.296-3.61.621-4.597 1.817"/><path d="M86.064 379.761c1.337-4.58 2.681-9.201 3.048-13.959s-.311-9.724-2.78-13.807c-4.612 8.924-5.079 19.351-.407 28.244m15.667-8.326c5.394-9.802 16.397-17.632 27.531-18.729-4.296 10.694-16.009 18.959-27.531 18.729m-3.394 1.921c8.043 1.225 14.897 6.362 22.413 9.477 1.607.666 3.342 1.197 5.067.97s3.428-1.383 3.814-3.08c.321-1.409-.32-2.904-1.331-3.937s-2.346-1.677-3.68-2.232c-8.187-3.408-16.967-3.494-25.591-1.427m-5.346 5.87c1.821.522 2.443 1.464 3.885 2.692a41.92 41.92 0 0 0 16.996 8.731c.649.161 1.501.225 1.823-.361.281-.513-.075-1.133-.439-1.589-2.613-3.27-6.34-5.506-10.262-6.967s-7.321-3.221-12.002-2.844m-5.254-33.734c6.541 6.105 15.753 9.239 24.66 8.39.405-.039.847-.103 1.123-.403.621-.675-.124-1.717-.847-2.281-7.25-5.653-16.032-7.997-24.936-5.706m6.228-2.28c8.646-6.482 20.502-8.438 30.771-5.077-3.875 3.819-9.252 5.874-14.663 6.438s-10.831-.037-16.108-1.361m-2.475-15.657c-.712-7.237-.25-12.949-.752-20.22-.04-.581-.165-1.28-.708-1.489-.757-.292-1.387.638-1.636 1.41-2.155 6.702-.977 14.389 3.086 20.139"/><path d="M91.523 328.266c4.905-3.033 8.585-6.995 11.987-11.651 2.368-3.24 4.364-7.121 3.826-11.097-3.325-.067-6.484 1.767-8.647 4.294s-3.448 5.685-4.408 8.869-1.632 6.456-2.758 9.585m11.778-3.272a96.67 96.67 0 0 0 29.501-17.395c-3.524-1.419-7.559-.57-11.081.852-8.049 3.249-14.626 8.734-18.573 16.464m-8.313 7.31c5.446.595 10.978.983 16.381.08 5.311-.887 10.33-2.993 15.292-5.081.411-.173.859-.381 1.039-.789.196-.443-.013-.983-.372-1.309s-.837-.481-1.304-.611c-5.395-1.509-11.218-.803-16.526.987s-9.661 3.917-14.51 6.723M63.738 345.65c-3.715-7.5-3.474-16.252-.265-23.982 2.26 3.443 2.535 7.827 2.122 11.924s-1.66 8.314-1.741 12.431m-14.958-7.859c-9.276-.177-18.556 3.776-24.855 10.588 4.63.727 9.398-.467 13.61-2.523s7.954-4.942 11.663-7.806m-10.397-3.597c-4.538-.368-8.905-.93-13.268.407s-8.334 4.372-10.113 8.575c4.245.478 8.549-.586 12.439-2.349s7.428-4.204 10.942-6.633m14.775.153c-4.082-2.675-8.275-5.399-13.028-6.507s-10.262-.289-13.577 3.294c3.848 2.258 8.517 2.525 12.978 2.521s9.931-.054 14.137 1.434"/><path d="M53.716 335.195c-6.98-6.854-9.625-19.165-6.817-28.535a43.48 43.48 0 0 1 6.817 28.535m19.192-19.419c1.316-3.06 2.242-6.272 3.423-9.387s2.649-6.18 4.88-8.654 5.317-4.315 8.644-4.48c-2.083 9.43-8.346 17.857-16.776 22.569m-3.644 3.998c-2.178-2.998-4.695-7.068-7.649-9.306s-6.8-3.592-10.405-2.733c3.666 6.555 10.594 11.174 18.054 12.039m.695-3.796c-1.428-3.628-2.866-7.294-3.443-11.15s-.226-7.974 1.746-11.338c3.831 7.242 5.065 15.016 1.893 22.57"/><path d="M72.943 293.537c2.17-7.18 8.744-12.465 15.841-14.891.895-.306 1.843-.561 2.777-.416s1.851.784 2.047 1.709c.259 1.221-.75 2.316-1.699 3.127-5.526 4.725-12.022 8.312-18.966 10.471m.078-5.871c.276-4.629.565-9.325 2.07-13.711s4.407-8.5 8.629-10.42c.718 4.675-1.345 9.327-3.832 13.349s-5.486 7.82-6.98 12.308m0 1.66c-1.794-5.232-1.979-11.878-5.112-16.436-2.19-3.186-5.697-5.357-7.584-8.732-1.254 3.152-.87 6.784.441 9.912s3.478 5.822 5.796 8.298 4.303 4.339 6.459 6.958"/><path d="M72.943 444.937c-.139 0-.26-34.904-.27-77.95l.235-77.958c.139 0 .26 34.896.27 77.958l-.235 77.95z"/><path d="M103.445 340.383c.01.034-.458.207-1.312.493l-3.611 1.218c-3.045 1.038-7.229 2.54-11.769 4.4-4.495 1.928-8.735 3.494-11.15 5.586-1.206 1.033-1.898 2.15-2.24 2.964s-.408 1.321-.454 1.312c-.017-.003-.012-.128.015-.366a5.61 5.61 0 0 1 .256-1.017c.294-.861.968-2.055 2.187-3.159 1.213-1.106 2.902-2.101 4.838-3.005s4.08-1.845 6.357-2.781c4.554-1.866 8.77-3.32 11.849-4.273 1.539-.48 2.795-.834 3.666-1.067s1.358-.339 1.368-.305z"/><path d="M113.443 315.825c.011.013-.115.148-.368.393l-1.12 1.052-4.181 3.798-13.917 12.391c-5.433 4.836-10.127 9.456-13.381 12.935-1.629 1.737-2.912 3.177-3.787 4.181l-1.011 1.155c-.234.262-.364.394-.378.383s.09-.164.299-.447.519-.699.939-1.217c.831-1.045 2.076-2.524 3.676-4.297 3.195-3.55 7.864-8.224 13.307-13.07l14.017-12.282 4.287-3.678 1.183-.981c.274-.22.423-.329.435-.316z"/><path d="M87.993 338.376c-.142-.063.993-2.684 2.123-5.997l1.823-6.086c.132.014-.189 2.892-1.345 6.248-.569 1.676-1.196 3.149-1.69 4.195s-.85 1.668-.911 1.64zm-15.018 21.127c-.028.021-.325-.327-.837-.972l-2.145-2.75-7.083-9.06-7.217-8.956-2.192-2.713-.756-1.036s.347.302.906.908l2.315 2.611c1.93 2.226 4.543 5.349 7.339 8.872a274.16 274.16 0 0 1 6.973 9.16l2.017 2.848c.465.68.708 1.067.68 1.088z"/><path d="M66.287 350.917c-.082.088-1.867-2.029-2.802-5.245-.69-2.267-.72-4.34-.635-5.288l.223.018c-.1.404-.173.617-.212.611s-.042-.232-.009-.647l.223.018c.081.94.224 2.942.895 5.144.901 3.117 2.452 5.303 2.317 5.389zm-8.634-10.861c-.065.07-.639-.654-1.956-1.136-1.307-.506-3.273-.617-5.431-.432a33.48 33.48 0 0 0-5.469.883l-2.25.54c-.023-.059.78-.448 2.155-.883s3.328-.881 5.527-1.042c2.182-.189 4.252-.02 5.603.604 1.367.605 1.866 1.453 1.821 1.466zm-2.047-2.633c-.039.078-1.14-.457-2.997-1.091s-4.495-1.307-7.477-1.539c-2.984-.223-5.696.038-7.626.388l-3.128.624c-.011-.033.272-.152.795-.339.52-.194 1.294-.416 2.263-.636 1.935-.444 4.696-.768 7.734-.541 3.036.236 5.715.975 7.561 1.707.924.364 1.656.701 2.141.971l.734.456zm17.302-11.131c-.135.034-1.114-3.365-2.186-7.592l-1.697-7.717c.135-.034 1.113 3.365 2.186 7.593l1.697 7.716z"/><path d="M73.047 326.292c-.15.049-.779-2.223-2.422-4.545-1.599-2.372-3.64-3.562-3.565-3.68.026-.053.59.154 1.376.71.788.548 1.762 1.478 2.602 2.68 1.705 2.418 2.131 4.827 2.009 4.835zm-.104 100.038c-.054.008-.157-.839-.551-2.321-.389-1.482-1.121-3.584-2.332-6.043-2.411-4.928-6.8-11.176-12.375-17.435-2.763-3.157-5.443-6.135-7.718-8.986s-4.152-5.56-5.519-7.96c-1.372-2.398-2.265-4.456-2.786-5.907-.256-.728-.444-1.296-.547-1.69-.11-.391-.16-.598-.144-.603.045-.014.299.799.874 2.222s1.51 3.441 2.911 5.798 3.286 5.032 5.573 7.849 4.969 5.783 7.736 8.945c5.591 6.275 9.968 12.602 12.317 17.612 1.181 2.5 1.869 4.642 2.202 6.151.162.756.271 1.345.309 1.751.049.403.067.615.05.617z"/><path d="M100.505 395.198c.017.037-.511.304-1.444.811-.926.521-2.241 1.323-3.747 2.477s-3.191 2.667-4.921 4.488-3.506 3.943-5.322 6.214c-3.63 4.555-7.026 8.586-9.059 11.803-1.032 1.596-1.783 2.941-2.274 3.885s-.759 1.471-.795 1.454c-.016-.007.031-.148.134-.41.108-.26.253-.65.485-1.132.44-.975 1.147-2.356 2.149-3.989 1.974-3.295 5.343-7.381 8.967-11.928 1.819-2.275 3.62-4.398 5.38-6.219s3.492-3.323 5.042-4.452 2.908-1.895 3.87-2.365c.479-.24.869-.388 1.128-.499.26-.106.4-.154.407-.138z"/><path d="M101.045 405.298c.006.073-1.166.215-3.053.443-1.881.243-4.499.557-7.241 1.426-2.733.89-5.004 2.246-6.484 3.402-1.495 1.155-2.199 2.11-2.269 2.055-.024-.018.122-.278.452-.703s.861-.999 1.591-1.628c1.456-1.255 3.749-2.692 6.554-3.606 2.809-.889 5.463-1.147 7.361-1.301l3.089-.088z"/><path d="M82.889 411.515c-.159-.09 1.217-2.192 2.284-5.019 1.002-2.853 1.236-5.354 1.416-5.325.065.008.063.633-.051 1.638-.12 1.001-.361 2.393-.891 3.859s-1.233 2.687-1.771 3.539-.93 1.343-.987 1.308zm26.543-43.431c.006.016-.162.105-.489.26l-1.435.652-2.251 1.065-2.917 1.533-1.666.947-1.757 1.107c-1.228.745-2.458 1.662-3.771 2.599-2.569 1.95-5.271 4.258-7.871 6.923-2.576 2.691-4.791 5.471-6.652 8.105-.891 1.345-1.766 2.605-2.468 3.858-.36.621-.734 1.205-1.047 1.794l-.89 1.697c-.593 1.069-1.017 2.091-1.432 2.968-.424.874-.739 1.648-.987 2.286l-.603 1.456c-.143.331-.226.503-.243.497s.035-.188.147-.531l.515-1.493c.22-.65.511-1.438.911-2.328.392-.892.796-1.93 1.372-3.015l.866-1.723c.305-.597.674-1.19 1.028-1.82.692-1.27 1.559-2.549 2.447-3.91 1.853-2.669 4.076-5.48 6.672-8.192 2.621-2.686 5.354-5.003 7.958-6.946 1.33-.933 2.578-1.844 3.824-2.579.617-.375 1.197-.764 1.783-1.089l1.692-.924c1.065-.613 2.088-1.052 2.967-1.474a25.45 25.45 0 0 1 2.295-.99l1.475-.566c.34-.126.521-.183.527-.167z"/><path d="M87.618 382.7c-.044-.007.198-.854 1.199-1.786.977-.93 2.758-1.792 4.833-1.854 2.068-.055 3.861.524 5.086.994 1.231.484 1.947.876 1.923.934-.029.07-.796-.206-2.04-.597-1.24-.38-2.993-.88-4.953-.826-1.953.06-3.639.812-4.616 1.62-.999.804-1.351 1.564-1.432 1.515zm-3.26 3.364c-.138-.077 1.092-1.881 1.372-4.465.322-2.58-.46-4.618-.307-4.661.055-.023.33.451.567 1.3s.396 2.075.242 3.419c-.159 1.343-.596 2.504-1.022 3.271s-.804 1.17-.852 1.136zm-35.522 45.267c.752 13.339 4.772 26.905 10.954 40.62h26.886c5.896-13.579 9.638-27.124 10.303-40.62H48.836z"/></g><g fill="#fafafa"><path d="M92.622 452.916c0 .139-8.852.252-19.769.252s-19.771-.113-19.771-.252 8.85-.252 19.771-.252l19.769.252zm-.601 4.832c0 .139-8.299.252-18.533.252s-18.535-.113-18.535-.252 8.297-.252 18.535-.252l18.533.252z"/><path d="M60.224 440.09c.139 0 .252 2.773.252 6.193l-.252 6.193c-.139 0-.252-2.772-.252-6.193l.252-6.193zm14.405 0c.139 0 .252 2.871.252 6.413l-.252 6.414c-.139 0-.252-2.871-.252-6.414l.252-6.413zm13.524-.109c.139 0 .252 2.929.252 6.541l-.252 6.541c-.139 0-.252-2.928-.252-6.541l.252-6.541z"/><path d="M96.126 440.09c0 .139-10.382.252-23.187.252s-23.189-.113-23.189-.252 10.38-.252 23.189-.252l23.187.252z"/></g><path d="M478.458 472.065c0 .144-99.503.26-222.217.26-122.757 0-222.238-.117-222.238-.26s99.481-.26 222.238-.26l222.217.26z" class="B"/><path d="M390.563 41.483l-27.16-.016c-3.642-.002-6.596 3.083-6.596 6.89l-.002 4.926c0 3.808-2.954 6.893-6.595 6.891l-52.94-.031c-3.642-.002-6.594-3.091-6.594-6.898l.001-4.926c0-3.808-2.952-6.896-6.594-6.898l-9.552-.006-23.771-.014c-11.805-.007-21.38 9.561-21.383 21.367l-.067 342.788c-.003 11.801 9.558 21.369 21.358 21.376l139.803.081c11.805.007 21.38-9.56 21.383-21.366l.067-342.789c.002-11.8-9.558-21.367-21.358-21.375z" class="E"/><g class="B"><path d="M390.563 41.483l.732.022c.483.046 1.219-.011 2.166.168 1.894.223 4.776.838 8.017 2.769 1.637.923 3.301 2.251 4.876 3.951 1.569 1.703 3.027 3.831 4.07 6.38 1.058 2.541 1.63 5.509 1.601 8.676l.012 10.075.073 120.579.03 178.833v25.548 6.481c-.024 2.171-.164 4.405-.819 6.52-.616 2.114-1.491 4.177-2.73 6.023-1.233 1.845-2.734 3.514-4.452 4.94-3.475 2.789-7.829 4.568-12.342 4.791-4.482.131-8.931.033-13.432.061l-27.218-.013-55.858-.028-28.569-.016-14.429-.008c-4.843.247-9.869-1.031-13.918-3.844-4.068-2.792-7.072-7.015-8.472-11.701-.753-2.336-.893-4.829-.893-7.23l.002-7.205.007-28.578.016-55.873.038-105.624.047-95.577.026-43.314.003-5.184c.012-.861.074-1.732.12-2.592.151-.85.216-1.716.437-2.547.782-3.347 2.331-6.478 4.495-9.056 2.181-2.564 4.916-4.596 7.926-5.924 3.008-1.358 6.313-1.836 9.501-1.797l18.629.021 8.962.011 4.391.006c1.468-.073 2.999.33 4.207 1.176a7.07 7.07 0 0 1 2.615 3.433c.548 1.373.417 2.855.434 4.221l-.002 2.08c.002.694-.023 1.381.067 2.037.169 1.323.729 2.59 1.595 3.577a6.31 6.31 0 0 0 3.266 2.028c.632.158 1.261.203 1.926.19l1.969.003 7.714.01 28.181.042 12.424.02c.981-.017 1.979.045 2.911-.037.938-.107 1.836-.431 2.616-.92a6.77 6.77 0 0 0 2.995-4.306c.196-.855.162-1.727.168-2.595l.005-2.556c.011-.834-.041-1.673.112-2.493a7.23 7.23 0 0 1 .806-2.289c.77-1.407 2.021-2.469 3.412-3.016 1.404-.61 2.897-.425 4.244-.453l13.863.037 8.525.035 2.902.032-2.905.029-8.525.025-13.863.021c-1.363.032-2.821-.143-4.173.453a6.55 6.55 0 0 0-3.302 2.937c-.376.679-.642 1.434-.776 2.224-.146.787-.094 1.615-.102 2.457l.002 2.556c-.003.857.035 1.756-.166 2.644-.369 1.768-1.466 3.448-3.093 4.467-.809.51-1.742.85-2.719.963-.989.087-1.946.025-2.939.045l-12.424.006-28.181.008-7.714.001h-1.969c-.652.014-1.354-.031-2.012-.197-1.325-.326-2.556-1.082-3.453-2.137-.915-1.04-1.506-2.373-1.686-3.766-.096-.703-.069-1.399-.072-2.085l-.001-2.08c-.018-1.395.105-2.801-.417-4.093a6.69 6.69 0 0 0-2.476-3.245c-1.153-.796-2.551-1.172-3.989-1.102h-4.391-8.962-18.629c-3.16-.034-6.373.437-9.325 1.771a21.8 21.8 0 0 0-7.758 5.811c-2.118 2.527-3.63 5.594-4.393 8.87-.216.814-.278 1.661-.426 2.493-.044.846-.104 1.688-.116 2.545l.001 5.184.009 43.315.009 95.577-.003 105.624-.006 55.873-.004 28.578-.001 7.205c.002 2.395.135 4.776.868 7.059 1.362 4.554 4.281 8.66 8.236 11.375 3.958 2.733 8.775 3.976 13.575 3.737l14.429.009 28.569.018 55.858.037 27.218.019 13.396-.056c4.393-.214 8.628-1.945 12.012-4.658a22.57 22.57 0 0 0 4.336-4.808c1.207-1.797 2.058-3.804 2.659-5.862.639-2.065.774-4.216.8-6.365l.003-6.481.01-25.548.1-178.833.12-120.579.016-10.074c.038-3.148-.519-6.083-1.559-8.608-1.026-2.532-2.463-4.649-4.015-6.346-1.557-1.694-3.204-3.022-4.827-3.948-3.212-1.937-6.077-2.57-7.963-2.812-.944-.189-1.677-.141-2.159-.198l-.732-.055z"/><use href="#B"/><path d="M394.728 80.134c.001.092-3.531.196-7.888.232s-7.89-.009-7.891-.101 3.53-.196 7.888-.231l7.891.1z"/><use href="#B" x="0.067" y="8.074"/><path d="M251.184 88.779c.006-.006.118-.013.328-.022l.913-.03 3.369-.08-.093.095-.039-2.443.005-1.407c.091-.523.557-.985 1.13-1.039l1.61-.008a1.31 1.31 0 0 1 1.105 1.301l.04 3.563-.156-.154 4.25-.043-.161.164-.047-5.296-.012-1.349c-.002-.416-.255-.694-.597-1.004l-1.858-1.831-1.792-1.769-.869-.858c-.298-.288-.533-.585-.879-.656-.335-.09-.705-.019-.975.186-.257.218-.532.525-.791.778l-1.525 1.538-2.685 2.767c-.306.475-.192 1.057-.214 1.586l-.003 1.497-.015 2.412-.017 1.543-.022.559c-.008.008-.018-.168-.029-.511l-.042-1.519-.055-2.432-.028-1.527-.013-.836c-.003-.302.075-.613.234-.889.786-.963 1.725-1.816 2.691-2.842l1.513-1.55.82-.813c.34-.261.807-.355 1.232-.243.452.1.746.471 1.02.73l.872.854 1.798 1.763 1.862 1.828c.149.158.329.292.475.514a1.39 1.39 0 0 1 .223.717l.012 1.355.04 5.296.001.163-.163.001-4.25.027-.156.001-.001-.155-.019-3.563a1.03 1.03 0 0 0-.859-1.032l-1.541-.005c-.457.038-.838.404-.916.826-.041.427-.01.926-.018 1.358l.001 2.443v.096l-.094-.001-3.425-.024-.892-.015-.293-.015z"/></g><use href="#C" class="I"/><use href="#D" class="C"/><path d="M246.526 127.896v.985h1.726v.692h-1.726v1.358h-.863v-3.728h2.817v.692h-1.954zm4.915 3.036l-.719-1.039h-.042-.751v1.039h-.863v-3.728h1.614c.996 0 1.619.517 1.619 1.353a1.21 1.21 0 0 1-.767 1.177l.836 1.198h-.927zm-.809-3.025h-.703v1.299h.703c.527 0 .793-.245.793-.649 0-.41-.266-.65-.793-.65zm2.114 1.161c0-1.108.862-1.928 2.039-1.928s2.04.814 2.04 1.928-.868 1.928-2.04 1.928-2.039-.82-2.039-1.928zm3.206 0c0-.709-.501-1.193-1.167-1.193s-1.166.484-1.166 1.193.501 1.193 1.166 1.193 1.167-.485 1.167-1.193zm4.914 1.864l-.005-2.237-1.097 1.843h-.389l-1.092-1.794v2.189h-.809v-3.728h.714l1.395 2.316 1.374-2.316h.708l.011 3.728h-.81z" class="B"/><path d="M331.972 127.907h-1.192v-.703h3.248v.703h-1.192v3.025h-.863v-3.025zm2.232 1.161c0-1.108.862-1.928 2.039-1.928s2.04.814 2.04 1.928-.868 1.928-2.04 1.928-2.039-.82-2.039-1.928zm3.205 0c0-.709-.5-1.193-1.166-1.193s-1.166.484-1.166 1.193.501 1.193 1.166 1.193 1.166-.485 1.166-1.193z"/><g class="B"><path d="M244.579 162.653h1.571c1.198 0 2.013.756 2.013 1.864s-.815 1.864-2.013 1.864h-1.571v-3.728zm1.539 3.264c.921 0 1.512-.564 1.512-1.4s-.591-1.401-1.512-1.401h-1.006v2.801h1.006zm5.565 0v.463h-2.706v-3.728h2.631v.463h-2.099v1.145h1.869v.453h-1.869v1.204h2.174zm3.871-1.965c0 .809-.586 1.299-1.555 1.299h-.921v1.129h-.533v-3.728H254c.968.001 1.554.491 1.554 1.3zm-.532 0c0-.533-.356-.837-1.038-.837h-.905v1.672h.905c.682.001 1.038-.302 1.038-.835zm3.503 1.497h-1.98l-.41.932h-.549l1.688-3.728h.527l1.693 3.728h-.56l-.409-.932zm-.186-.426l-.805-1.827-.804 1.827h1.609zm4.202 1.358l-.805-1.145-.233.011h-.922v1.134h-.532v-3.728h1.454c.969 0 1.555.49 1.555 1.299 0 .575-.299.99-.82 1.177l.884 1.252h-.581zm-.016-2.429c0-.533-.357-.837-1.039-.837h-.905v1.678h.905c.682.001 1.039-.308 1.039-.841zm2.082-.836h-1.278v-.463h3.083v.463h-1.277v3.265h-.527v-3.265z"/><use href="#E"/><path d="M273.627 166.381l-.804-1.145-.234.011h-.921v1.134h-.533v-3.728h1.454c.969 0 1.555.49 1.555 1.299 0 .575-.298.99-.819 1.177l.884 1.252h-.582zm-.016-2.429c0-.533-.357-.837-1.038-.837h-.905v1.678h.905c.681.001 1.038-.308 1.038-.841zm4.101 1.965v.463h-2.705v-3.728h2.631v.463h-2.099v1.145h1.869v.453h-1.869v1.204h2.173zm24.468 79.893c0 1.288-.772 2.007-1.901 2.007-.394 0-.772-.09-1.033-.255l.319-.634c.203.139.442.187.698.187.617 0 1.022-.368 1.049-1.087-.218.219-.538.336-.927.336-.719 0-1.283-.458-1.283-1.161 0-.762.623-1.241 1.411-1.241 1.033 0 1.667.644 1.667 1.848zm-.964-.65c0-.319-.239-.554-.649-.554-.368 0-.623.213-.623.554s.25.56.634.56c.378 0 .638-.235.638-.56z"/><use href="#F"/><use href="#G"/><use href="#G" x="3.615"/><use href="#H"/><use href="#I"/><path d="M321.164 247.051v.703h-2.817v-.559l1.438-1.357c.33-.314.389-.506.389-.688 0-.292-.202-.463-.596-.463-.32 0-.592.122-.772.373l-.629-.405c.288-.421.81-.692 1.48-.692.831 0 1.385.427 1.385 1.103 0 .362-.101.692-.623 1.177l-.857.81h1.602z"/><use href="#F" x="18.925"/><use href="#G" x="18.925"/><use href="#G" x="22.54"/><path d="M335.12 245.379c0 .831-.623 1.348-1.619 1.348h-.751v1.027h-.862v-3.727h1.613c.996-.001 1.619.516 1.619 1.352zm-.874 0c0-.41-.266-.649-.793-.649h-.703v1.294h.703c.527-.001.793-.241.793-.645z"/><use href="#J"/></g><path d="M387.962 219.814h-46.666c-4.452 0-8.061-3.609-8.061-8.061h0c0-4.452 3.609-8.061 8.061-8.061h46.666c4.452 0 8.061 3.609 8.061 8.061h0c0 4.452-3.609 8.061-8.061 8.061z" class="C"/><path d="M353.063 212.954l.297-.657c.317.231.792.393 1.244.393.517 0 .728-.172.728-.404 0-.706-2.192-.221-2.192-1.621 0-.641.517-1.174 1.589-1.174.474 0 .959.113 1.309.334l-.27.663c-.35-.2-.711-.296-1.045-.296-.517 0-.716.194-.716.431 0 .695 2.192.216 2.192 1.6 0 .63-.522 1.169-1.601 1.169-.597-.002-1.201-.18-1.535-.438zm6.651-.329v.7h-2.919v-3.771h2.85v.7h-1.983v.819h1.75v.679h-1.75v.872h2.052zm3.179-.108h-1.751l-.334.808h-.895l1.681-3.771h.862l1.685 3.771h-.916l-.332-.808zm-.275-.662l-.598-1.443-.598 1.443h1.196zm4.319 1.471l-.728-1.05h-.043-.76v1.05h-.872v-3.771h1.632c1.007 0 1.638.523 1.638 1.368 0 .565-.286.98-.775 1.19l.845 1.212h-.937zm-.819-3.06h-.711v1.314h.711c.533 0 .803-.248.803-.657s-.27-.657-.803-.657zm2.137 1.174c0-1.137.873-1.95 2.047-1.95.651 0 1.196.237 1.552.668l-.561.517c-.253-.291-.571-.442-.948-.442-.705 0-1.206.496-1.206 1.207s.501 1.206 1.206 1.206a1.2 1.2 0 0 0 .948-.447l.561.517c-.355.437-.9.673-1.557.673-1.168.001-2.042-.812-2.042-1.949zm7.643-1.885v3.771h-.873v-1.546h-1.713v1.546h-.872v-3.771h.872v1.487h1.713v-1.487h.873zm-.924 52.461v.971h-3.891v-.772l1.985-1.875c.456-.435.537-.699.537-.949 0-.404-.279-.64-.824-.64-.441 0-.816.169-1.066.515l-.867-.559c.396-.581 1.117-.956 2.044-.956 1.148 0 1.912.588 1.912 1.522 0 .5-.14.956-.86 1.625l-1.184 1.118h2.214zm.475-1.604c0-1.699.941-2.662 2.206-2.662 1.273 0 2.206.963 2.206 2.662s-.934 2.662-2.206 2.662c-1.265 0-2.206-.962-2.206-2.662zm3.214 0c0-1.169-.412-1.654-1.008-1.654-.588 0-1 .485-1 1.654s.412 1.655 1 1.655c.596.001 1.008-.485 1.008-1.655zm6.57 1.037l.758.706c-.485.596-1.221.919-2.118.919-1.302 0-2.332-.735-2.67-1.846h-.831v-.618h.721c-.008-.065-.008-.132-.008-.198l.008-.198h-.721v-.618h.831c.338-1.11 1.368-1.846 2.67-1.846.898 0 1.633.323 2.118.912l-.758.706c-.353-.397-.787-.603-1.302-.603-.654 0-1.184.316-1.456.831h1.86v.618h-2.044c-.008.065-.008.132-.008.198l.008.198h2.044v.618h-1.86c.272.515.802.831 1.456.831.515.001.949-.205 1.302-.61z" class="E"/><use href="#K"/><path d="M337.894 165.918v.463h-2.705v-3.728h2.63v.463h-2.098v1.145h1.869v.453h-1.869v1.204h2.173zm1.603-2.801h-1.278v-.463h3.083v.463h-1.278v3.265h-.526v-3.265zm2.284 1.656v-2.119h.532v2.098c0 .825.378 1.198 1.049 1.198s1.055-.373 1.055-1.198v-2.098h.517v2.119c0 1.081-.591 1.651-1.576 1.651s-1.577-.57-1.577-1.651z"/><use href="#K" x="14.707"/><path d="M353.102 162.654v3.728h-.437l-2.236-2.78v2.78h-.532v-3.728h.436l2.236 2.78v-2.78h.533z"/><g class="B"><path d="M251.504 203.175h-1.981l-.41.932h-.548l1.688-3.727h.527l1.693 3.727h-.559l-.41-.932zm-.186-.426l-.804-1.827-.804 1.827h1.608zm1.709-2.369h1.571c1.198 0 2.013.756 2.013 1.864s-.814 1.864-2.013 1.864h-1.571v-3.728zm1.539 3.264c.922 0 1.513-.564 1.513-1.4s-.591-1.401-1.513-1.401h-1.006v2.801h1.006z"/><use href="#E" x="-9.497" y="37.727"/><path d="M261.637 200.38h.533v3.264h2.018v.463h-2.551v-3.727zm3.558.463h-1.278v-.463H267v.463h-1.277v3.265h-.527v-3.265z"/><path d="M267.191 203.682l.197-.416c.277.25.751.431 1.23.431.645 0 .921-.25.921-.575 0-.911-2.258-.335-2.258-1.72 0-.575.447-1.066 1.427-1.066.438 0 .89.117 1.198.331l-.176.426c-.324-.207-.691-.304-1.022-.304-.633 0-.905.267-.905.591 0 .911 2.259.341 2.259 1.709 0 .57-.458 1.06-1.443 1.06-.571.001-1.129-.191-1.428-.467z"/></g><path d="M269.74 219.398c-.001-.027.264-.029.753-.11a5.36 5.36 0 0 0 2.008-.751 5.47 5.47 0 0 0 2.178-2.52c.513-1.198.638-2.816-.05-4.324-.661-1.491-2.177-2.828-4.103-3.085-.935-.117-2.01-.031-3.062-.052l-3.284.011-14.622.02c-1.239.006-2.447.45-3.376 1.219s-1.555 1.852-1.799 2.992c-.499 2.318.73 4.705 2.639 5.714a5.81 5.81 0 0 0 1.49.546c.518.1 1.025.112 1.567.11l3.098.013 5.56.032 8.051.083 2.189.049.763.053s-.263.036-.763.052l-2.189.049-8.051.083-5.56.032-3.098.013c-.522.007-1.1-.001-1.659-.107a6.29 6.29 0 0 1-1.628-.585c-1.023-.568-1.918-1.453-2.444-2.568-.55-1.103-.704-2.414-.465-3.669.263-1.252.95-2.439 1.968-3.288s2.348-1.337 3.707-1.342l14.622.02 3.284.011c1.074.031 2.076-.053 3.125.082a5.73 5.73 0 0 1 4.376 3.363c.713 1.623.547 3.338-.019 4.59-.571 1.273-1.508 2.105-2.342 2.578a5.11 5.11 0 0 1-2.096.68c-.503.048-.768.006-.768.006z" class="G"/><g class="B"><path d="M261.01 215.305v.864h-3.463v-.688l1.768-1.669c.406-.386.478-.622.478-.845 0-.36-.249-.569-.733-.569-.393 0-.727.15-.949.458l-.772-.497c.353-.518.995-.851 1.819-.851 1.021 0 1.702.523 1.702 1.355 0 .445-.124.851-.766 1.446l-1.054.995h1.97zm5.978-3.019h1v3.521h-1z"/><path d="M265.727 213.547h3.52v1h-3.52zm21.86-11.304c0-1.103.842-1.907 1.976-1.907.575 0 1.076.197 1.417.581l-.347.336a1.38 1.38 0 0 0-1.049-.442c-.842 0-1.465.607-1.465 1.433s.623 1.433 1.465 1.433c.41 0 .762-.144 1.049-.448l.347.336c-.341.383-.842.585-1.422.585-1.13 0-1.971-.804-1.971-1.907zm7.359-1.863v3.727h-.532v-1.662h-2.141v1.662h-.533v-3.727h.533v1.602h2.141v-1.602h.532zm1.118 0h.532v3.727h-.532v-3.727zm1.65 0h.532v3.264h2.019v.463h-2.551v-3.727zm3.164 0h1.57c1.198 0 2.014.756 2.014 1.864s-.815 1.864-2.014 1.864h-1.57v-3.728zm1.539 3.264c.921 0 1.512-.564 1.512-1.4s-.591-1.401-1.512-1.401h-1.007v2.801h1.007z"/></g><path d="M306.188 219.398c-.001-.027.264-.029.753-.11a5.36 5.36 0 0 0 2.008-.751 5.47 5.47 0 0 0 2.178-2.52c.513-1.198.638-2.816-.05-4.324-.661-1.491-2.177-2.828-4.103-3.085-.935-.117-2.01-.031-3.062-.052l-3.284.011-14.622.02c-1.239.006-2.447.45-3.376 1.219a5.38 5.38 0 0 0-1.799 2.992c-.499 2.318.73 4.705 2.639 5.714a5.81 5.81 0 0 0 1.49.546c.518.1 1.025.112 1.567.11l3.098.013 5.56.032 8.051.083 2.189.049.763.053s-.263.036-.763.052l-2.189.049-8.051.083-5.56.032-3.098.013c-.522.007-1.1-.001-1.659-.107a6.29 6.29 0 0 1-1.628-.585c-1.023-.568-1.918-1.453-2.444-2.568-.55-1.103-.704-2.414-.465-3.669.263-1.252.95-2.439 1.968-3.288s2.348-1.337 3.707-1.342l14.622.02 3.284.011c1.074.031 2.076-.053 3.126.082a5.73 5.73 0 0 1 4.376 3.363c.713 1.623.547 3.338-.019 4.59-.571 1.273-1.508 2.105-2.342 2.578a5.11 5.11 0 0 1-2.096.68c-.505.048-.769.006-.769.006z" class="G"/><g class="B"><path d="M294.035 213.879c0-1.512.838-2.37 1.964-2.37 1.132 0 1.964.857 1.964 2.37s-.832 2.369-1.964 2.369c-1.126 0-1.964-.858-1.964-2.369zm2.86 0c0-1.041-.366-1.473-.897-1.473-.524 0-.891.432-.891 1.473s.366 1.473.891 1.473c.531-.001.897-.432.897-1.473zm6.54-1.593h1v3.521h-1z"/><path d="M302.174 213.547h3.521v1h-3.521z"/></g><g class="G"><path d="M409.098 227.826c0 .144-39.442.26-88.086.26-48.66 0-88.094-.117-88.094-.26s39.434-.26 88.094-.26l88.086.26z"/><use href="#L"/><use href="#L" x="-0.175" y="5.441"/><path d="M318.903 265.455c0 .144-4.879.26-10.897.26s-10.898-.116-10.898-.26 4.878-.26 10.898-.26 10.897.117 10.897.26z"/></g><use href="#M" class="B"/><use href="#N" class="C"/><path d="M288.631 274.177c-.144 0-.26-8.939-.26-19.964l.26-19.966c.143 0 .26 8.938.26 19.966l-.26 19.964z" class="B"/><use href="#C" y="46.68" class="I"/><use href="#D" y="46.679" class="D"/><g class="B"><path d="M302.18 292.49c0 1.288-.772 2.007-1.901 2.007-.394 0-.772-.09-1.033-.255l.319-.634c.203.139.442.187.698.187.617 0 1.022-.368 1.049-1.087-.218.219-.538.336-.927.336-.719 0-1.283-.458-1.283-1.161 0-.762.623-1.241 1.411-1.241 1.033-.001 1.667.643 1.667 1.848zm-.964-.651c0-.319-.239-.554-.649-.554-.368 0-.623.213-.623.554s.25.56.634.56c.378 0 .638-.235.638-.56z"/><use href="#O"/><use href="#P"/><use href="#P" x="3.615"/><use href="#H" y="46.679"/><use href="#I" y="46.679"/><path d="M321.164 293.73v.703h-2.817v-.559l1.438-1.358c.33-.314.389-.506.389-.688 0-.293-.202-.463-.596-.463-.32 0-.592.122-.772.373l-.629-.405c.288-.421.81-.692 1.48-.692.831 0 1.385.427 1.385 1.103 0 .362-.101.692-.623 1.177l-.857.81h1.602z"/><use href="#O" x="18.925"/><use href="#P" x="18.925"/><use href="#P" x="22.54"/><path d="M335.12 292.058c0 .831-.623 1.348-1.619 1.348h-.751v1.027h-.862v-3.727h1.613c.996-.001 1.619.516 1.619 1.352zm-.874 0c0-.41-.266-.649-.793-.649h-.703v1.294h.703c.527 0 .793-.241.793-.645z"/><use href="#J" y="46.679"/></g><g class="E"><path d="M375.018 308.048c0 .912-.67 1.706-2.141 1.706-.713 0-1.464-.198-1.964-.551l.471-.912c.39.294.927.463 1.464.463.596 0 .964-.25.964-.669 0-.404-.265-.67-1.199-.67h-1.316l.265-2.897h3.141v.956h-2.147l-.081.979h.419c1.521 0 2.124.683 2.124 1.595z"/><use href="#Q"/><path d="M385.284 308.129l.758.706c-.485.596-1.221.919-2.118.919-1.302 0-2.332-.735-2.67-1.846h-.831v-.618h.721c-.008-.065-.008-.132-.008-.198l.008-.198h-.721v-.618h.831c.338-1.11 1.368-1.846 2.67-1.846.897 0 1.633.323 2.118.912l-.758.706c-.353-.397-.787-.604-1.302-.604-.654 0-1.184.316-1.456.831h1.86v.618h-2.044c-.008.065-.008.132-.008.198l.008.198h2.044v.618h-1.86c.272.515.802.831 1.456.831.515.002.949-.204 1.302-.609z"/></g><path d="M279.282 294.693c-1.723-2.237-6.564-1.141-9.926.439l-3.172 1.449-.027.005-7.595-1.355a3.13 3.13 0 0 0-1.824.223l-.643.287a.42.42 0 0 0-.014.76l5.502 2.701.002.07-5.747 3.359-.086.051a4.96 4.96 0 0 1-3.575.517l-2.948-.688c-.149-.035-.308-.037-.452.014-.54.189-.679.879-.266 1.263l3.295 3.062c.516.48 1.262.619 1.917.358l1.653-.658 8.37-3.46-1.181 4.6c-.045.19.097.372.292.375l.386.006a1.53 1.53 0 0 0 1.31-.7l3.62-6.112 9.874-4.082c1.316-.525 1.832-1.603 1.235-2.484z" class="D"/><path d="M279.282 246.991c-1.723-2.237-6.564-1.141-9.926.439l-3.172 1.449-.027.005-7.595-1.355a3.13 3.13 0 0 0-1.824.223l-.643.287a.42.42 0 0 0-.014.76l5.502 2.701.002.07-5.747 3.359-.086.05a4.96 4.96 0 0 1-3.575.517l-2.948-.688c-.149-.035-.308-.037-.452.014-.54.189-.679.879-.266 1.263l3.295 3.062c.516.48 1.262.619 1.917.358l1.653-.658 8.37-3.46-1.181 4.601c-.045.19.097.372.292.375l.386.006a1.53 1.53 0 0 0 1.31-.7l3.62-6.112 9.874-4.082c1.316-.526 1.832-1.604 1.235-2.484z" class="C"/><g class="G"><use href="#L" y="46.679"/><use href="#L" x="-0.175" y="52.12"/><path d="M318.903 312.135c0 .144-4.879.26-10.897.26s-10.898-.117-10.898-.26 4.878-.26 10.898-.26 10.897.116 10.897.26z"/></g><path d="M392.69 293.348c0 .144-6.94.26-15.498.26s-15.5-.117-15.5-.26 6.938-.26 15.5-.26 15.498.117 15.498.26z" class="B"/><use href="#N" y="46.679" class="D"/><use href="#R" class="B"/><use href="#C" y="93.359" class="I"/><use href="#D" y="93.359" class="C"/><g class="B"><path d="M302.18 339.169c0 1.288-.772 2.007-1.901 2.007-.394 0-.772-.09-1.033-.255l.319-.634c.203.139.442.186.698.186.617 0 1.022-.368 1.049-1.087-.218.219-.538.336-.927.336-.719 0-1.283-.458-1.283-1.161 0-.762.623-1.241 1.411-1.241 1.033.001 1.667.645 1.667 1.849zm-.964-.65c0-.319-.239-.554-.649-.554-.368 0-.623.213-.623.554s.25.56.634.56c.378-.001.638-.235.638-.56z"/><use href="#S"/><use href="#T"/><use href="#T" x="3.615"/><use href="#H" y="93.359"/><path d="M317.729 337.385v3.728h-.862v-3.035h-.746v-.692h1.608zm3.435 3.024v.703h-2.817v-.56l1.438-1.357c.33-.314.389-.506.389-.688 0-.293-.202-.463-.596-.463-.32 0-.592.122-.772.373l-.629-.405c.288-.421.81-.692 1.48-.692.831 0 1.385.427 1.385 1.103 0 .362-.101.692-.623 1.177l-.857.81h1.602z"/><use href="#S" x="18.925"/><use href="#T" x="18.925"/><use href="#T" x="22.54"/><path d="M335.12 338.738c0 .831-.623 1.348-1.619 1.348h-.751v1.027h-.862v-3.728h1.613c.996 0 1.619.517 1.619 1.353zm-.874 0c0-.41-.266-.649-.793-.649h-.703v1.294h.703c.527-.001.793-.241.793-.645zm4.878 2.375l-.005-2.236-1.098 1.842h-.389l-1.092-1.794v2.189h-.809v-3.728h.713l1.395 2.316 1.374-2.316h.708l.011 3.728h-.808z"/></g><g class="E"><path d="M372.113 351.198v5.148h-1.191v-4.192h-1.029v-.956h2.22zm.895 2.574c0-1.699.941-2.662 2.206-2.662 1.273 0 2.206.963 2.206 2.662s-.934 2.662-2.206 2.662c-1.264 0-2.206-.963-2.206-2.662zm3.214 0c0-1.169-.412-1.654-1.008-1.654-.588 0-1 .485-1 1.654s.412 1.655 1 1.655c.596 0 1.008-.485 1.008-1.655z"/><use href="#Q" x="2.498" y="46.68"/><path d="M387.782 354.809l.758.706c-.485.596-1.221.919-2.118.919-1.302 0-2.332-.735-2.67-1.846h-.831v-.618h.721c-.008-.065-.008-.132-.008-.198l.008-.198h-.721v-.618h.831c.338-1.11 1.368-1.846 2.67-1.846.898 0 1.633.323 2.118.912l-.758.706c-.353-.397-.787-.604-1.302-.604-.654 0-1.184.316-1.456.831h1.86v.618h-2.044c-.008.065-.008.132-.008.198l.008.198h2.044v.618h-1.86c.272.515.802.831 1.456.831.515.001.949-.205 1.302-.609z"/></g><path d="M279.282 341.373c-1.723-2.237-6.564-1.141-9.926.439l-3.172 1.449-.027.005-7.595-1.355a3.13 3.13 0 0 0-1.824.223l-.643.287a.42.42 0 0 0-.014.76l5.502 2.701.002.07-5.747 3.359-.086.05a4.96 4.96 0 0 1-3.575.517l-2.948-.688c-.149-.035-.308-.037-.452.014-.54.189-.679.879-.266 1.263l3.295 3.062c.516.48 1.262.619 1.917.358l1.653-.658 8.37-3.461-1.181 4.6c-.045.19.097.372.292.375l.386.006a1.53 1.53 0 0 0 1.31-.7l3.62-6.112 9.874-4.082c1.316-.524 1.832-1.602 1.235-2.482z" class="C"/><g class="G"><use href="#L" y="93.358"/><use href="#L" x="-0.175" y="98.8"/><path d="M318.903 358.814c0 .144-4.879.26-10.897.26s-10.898-.116-10.898-.26 4.878-.26 10.898-.26 10.897.116 10.897.26z"/></g><use href="#M" y="93.359" class="B"/><path d="M274.957 360.487c0 .144-5.726.26-12.789.26s-12.79-.117-12.79-.26 5.725-.26 12.79-.26 12.789.117 12.789.26z" class="C"/><use href="#R" y="46.68" class="B"/><use href="#C" y="140.039" class="I"/><use href="#D" y="140.038" class="D"/><g class="B"><path d="M302.18 385.848c0 1.288-.772 2.007-1.901 2.007-.394 0-.772-.09-1.033-.255l.319-.634c.203.139.442.187.698.187.617 0 1.022-.368 1.049-1.087-.218.219-.538.336-.927.336-.719 0-1.283-.458-1.283-1.161 0-.762.623-1.241 1.411-1.241 1.033-.001 1.667.644 1.667 1.848zm-.964-.65c0-.319-.239-.554-.649-.554-.368 0-.623.213-.623.554s.25.56.634.56c.378-.001.638-.235.638-.56z"/><use href="#O" y="93.359"/><use href="#G" y="140.038"/><use href="#G" x="3.615" y="140.038"/><use href="#H" y="140.037"/><use href="#I" y="140.038"/><path d="M321.164 387.088v.703h-2.817v-.559l1.438-1.358c.33-.314.389-.506.389-.688 0-.292-.202-.463-.596-.463-.32 0-.592.122-.772.373l-.629-.405c.288-.421.81-.692 1.48-.692.831 0 1.385.427 1.385 1.103 0 .362-.101.692-.623 1.177l-.857.81h1.602z"/><use href="#O" x="18.925" y="93.359"/><use href="#G" x="18.925" y="140.038"/><use href="#G" x="22.54" y="140.038"/><path d="M335.12 385.416c0 .831-.623 1.348-1.619 1.348h-.751v1.027h-.862v-3.727h1.613c.996 0 1.619.516 1.619 1.352zm-.874 0c0-.41-.266-.649-.793-.649h-.703v1.294h.703c.527 0 .793-.24.793-.645z"/><use href="#J" y="140.037"/></g><path d="M372.974 402.054v.971h-3.891v-.772l1.985-1.875c.456-.435.537-.699.537-.949 0-.404-.279-.64-.824-.64-.441 0-.816.169-1.066.515l-.867-.559c.396-.581 1.117-.956 2.044-.956 1.148 0 1.912.588 1.912 1.523 0 .5-.14.956-.86 1.625l-1.184 1.118h2.214zm.475-1.603c0-1.699.941-2.662 2.206-2.662 1.273 0 2.206.963 2.206 2.662s-.934 2.662-2.206 2.662c-1.265 0-2.206-.963-2.206-2.662zm3.214 0c0-1.169-.412-1.654-1.008-1.654-.588 0-1 .485-1 1.654s.412 1.655 1 1.655c.596 0 1.008-.486 1.008-1.655zm1.775 0c0-1.699.941-2.662 2.206-2.662 1.272 0 2.206.963 2.206 2.662s-.934 2.662-2.206 2.662c-1.265 0-2.206-.963-2.206-2.662zm3.214 0c0-1.169-.412-1.654-1.008-1.654-.588 0-1 .485-1 1.654s.412 1.655 1 1.655c.596 0 1.008-.486 1.008-1.655zm6.57 1.037l.758.706c-.485.596-1.221.919-2.118.919-1.302 0-2.332-.735-2.67-1.846h-.831v-.618h.721c-.008-.065-.008-.132-.008-.198l.008-.198h-.721v-.618h.831c.338-1.11 1.368-1.846 2.67-1.846.897 0 1.633.323 2.118.912l-.758.706c-.353-.397-.787-.604-1.302-.604-.654 0-1.184.316-1.456.831h1.86v.618h-2.044c-.008.066-.008.132-.008.198l.008.198h2.044v.618h-1.86c.273.515.802.831 1.456.831a1.66 1.66 0 0 0 1.302-.609z" class="E"/><path d="M279.282 388.052c-1.723-2.237-6.564-1.141-9.926.439l-3.172 1.449-.027.005-7.595-1.355a3.13 3.13 0 0 0-1.824.223l-.643.287a.42.42 0 0 0-.014.76l5.502 2.701.002.07-5.747 3.359-.086.051a4.96 4.96 0 0 1-3.575.517l-2.948-.688c-.149-.035-.308-.037-.452.014-.54.189-.679.879-.266 1.263l3.295 3.062c.516.48 1.262.619 1.917.358l1.653-.658 8.37-3.46-1.181 4.6c-.045.19.097.372.292.375l.386.006a1.53 1.53 0 0 0 1.31-.7l3.62-6.112 9.874-4.082c1.316-.526 1.832-1.603 1.235-2.484z" class="D"/><g class="G"><use href="#L" y="140.038"/><use href="#L" x="-0.175" y="145.479"/><path d="M318.903 405.493c0 .144-4.879.26-10.897.26s-10.898-.117-10.898-.26 4.878-.26 10.898-.26 10.897.117 10.897.26z"/></g><use href="#M" y="140.038" class="B"/><path d="M274.957 407.167c0 .144-5.726.26-12.789.26s-12.79-.116-12.79-.26 5.725-.26 12.79-.26 12.789.116 12.789.26z" class="D"/><g class="B"><use href="#R" y="93.359"/><path d="M335.264 72.265c-1.632-2.119-6.219-1.081-9.404.416l-3.005 1.373-.026.005-7.195-1.284a2.97 2.97 0 0 0-1.729.211l-.609.271a.4.4 0 0 0-.013.72l5.212 2.559.002.066-5.444 3.182-.081.048a4.7 4.7 0 0 1-3.387.49l-2.793-.652c-.142-.033-.292-.035-.429.013-.512.179-.643.833-.251 1.196l3.122 2.901a1.73 1.73 0 0 0 1.816.34l1.566-.624 7.929-3.278-1.119 4.358c-.042.18.092.353.277.355l.365.006a1.45 1.45 0 0 0 1.241-.663l3.43-5.79 9.354-3.868c1.247-.496 1.736-1.517 1.171-2.351zm-34.679 16.948v2.269h3.975v1.595h-3.975v3.128h-1.987v-8.588h6.489v1.595h-4.502zm5.851-1.595h1.987v6.969h4.306v1.619h-6.293v-8.588zm7.409 0h1.987v8.588h-1.987v-8.588zm9.826 4.159h1.816v3.484c-.944.712-2.245 1.092-3.472 1.092-2.699 0-4.686-1.853-4.686-4.441s1.987-4.441 4.723-4.441c1.51 0 2.761.515 3.595 1.484l-1.275 1.178c-.626-.663-1.35-.969-2.221-.969-1.669 0-2.81 1.117-2.81 2.748 0 1.607 1.141 2.748 2.785 2.748.54 0 1.043-.098 1.546-.368v-2.515zm11.532-4.159v8.588h-1.987v-3.521h-3.901v3.521h-1.987v-8.588h1.987v3.386h3.901v-3.386h1.987zm3.814 1.62h-2.748v-1.62h7.483v1.62h-2.748v6.968h-1.987v-6.968zM308.479 102.9c0 .799-.591 1.255-1.766 1.255h-2.162v-4.7h2.027c1.047 0 1.651.443 1.651 1.209 0 .537-.288.893-.718 1.067.605.135.968.53.968 1.169zm-3.432-3.035v1.705h1.498c.752 0 1.188-.288 1.188-.853s-.436-.853-1.188-.853h-1.498zm2.935 2.994c0-.611-.45-.879-1.275-.879h-1.659v1.766h1.659c.825-.001 1.275-.269 1.275-.887zm1.22-1.054c0-1.37 1.048-2.391 2.471-2.391 1.41 0 2.465 1.014 2.465 2.391s-1.055 2.39-2.465 2.39c-1.423 0-2.471-1.02-2.471-2.39zm4.438 0c0-1.122-.839-1.947-1.968-1.947s-1.98.826-1.98 1.947.847 1.947 1.98 1.947 1.968-.825 1.968-1.947zm1.2 0c0-1.37 1.048-2.391 2.471-2.391 1.41 0 2.465 1.014 2.465 2.391s-1.055 2.39-2.465 2.39c-1.423 0-2.471-1.02-2.471-2.39zm4.439 0c0-1.122-.839-1.947-1.968-1.947s-1.98.826-1.98 1.947.847 1.947 1.98 1.947 1.968-.825 1.968-1.947zm3.074.141l-.96.974v1.235h-.497v-4.7h.497v2.84l2.759-2.84h.571l-2.035 2.128 2.176 2.571h-.591l-1.92-2.208zm3.321-2.491h.496v4.7h-.496v-4.7zm5.958 0v4.7h-.41l-3.021-3.813v3.813h-.496v-4.7h.409l3.028 3.813v-3.813h.49zm4.845 2.35h.477v1.793c-.443.396-1.074.597-1.726.597-1.43 0-2.478-1.014-2.478-2.39s1.048-2.391 2.484-2.391c.712 0 1.33.229 1.746.678l-.309.316c-.396-.39-.866-.551-1.417-.551-1.161 0-2.015.826-2.015 1.947 0 1.114.854 1.947 2.008 1.947.45 0 .866-.101 1.229-.363v-1.583z"/></g><path d="M409.098 114.209c0 .144-39.317.26-87.806.26-48.506 0-87.814-.117-87.814-.26s39.309-.26 87.814-.26l87.806.26z" class="G"/><g class="I"><use href="#U"/><use href="#U" y="39.95"/><use href="#V"/><use href="#V" y="40.987"/></g><g class="C"><path d="M432.409 430.334c-4.309-5.086-4.882-13.251-4.248-19.886s2.173-13.314 1.126-19.897c-.62-3.9-2.133-7.624-2.645-11.54s.213-8.344 3.248-10.872c3.487-2.905 8.979-2.22 12.607.508s5.73 7.013 7.266 11.284c3.374 9.384 4.613 19.789 1.841 29.368s-9.277 18.143-18.821 21.035"/><use href="#W"/></g><g opacity=".3"><use href="#W"/></g><path d="M434.28 452.546c-3.892-3.697-3.698-10.133-1.756-15.138s6.178-8.847 10.911-11.38c9.174-4.909 20.643-5.281 30.115-.976-4.655.154-9.155 2.796-11.557 6.786-2.133 3.542-2.607 7.841-4.369 11.581a18.44 18.44 0 0 1-9.855 9.211c-4.289 1.678-9.221 1.647-13.489-.084" class="C"/><path d="M430.341 472.065c-.017 0-.026-.202-.028-.587l.021-1.681.504-6.164c.323-2.592.832-5.667 1.644-9.028.801-3.371 2.174-6.964 4.118-10.46 3.925-7.017 9.443-12.021 13.807-14.863 1.079-.743 2.122-1.306 3.021-1.827.921-.48 1.725-.873 2.385-1.187l1.555-.642c.357-.142.548-.209.554-.193s-.172.112-.516.282l-1.514.721-2.334 1.253c-.88.54-1.904 1.119-2.963 1.874-4.283 2.892-9.699 7.878-13.58 14.816-3.955 6.918-5.046 14.195-5.843 19.3-.363 2.577-.548 4.677-.652 6.13l-.11 1.674c-.029.381-.052.582-.069.582z" class="B"/><use href="#X" class="C"/><g opacity=".3"><use href="#X"/></g><path d="M386.926 421.519c2.084-2.88 7.234-3.714 10.486-2.277s5.634 4.288 7.766 7.133 4.207 5.849 7.16 7.829 7.078 2.697 10.022.702c1.933-1.31 3.054-3.586 3.404-5.895s.013-4.666-.468-6.951c-.703-3.343-1.852-6.835-4.527-8.96-2.982-2.368-7.119-2.479-10.925-2.355-4.367.143-8.798.47-12.897 1.984s-8.281 4.782-10.021 8.79" class="C"/><path d="M423.433 471.655c-.017 0-.037-.237-.061-.689l-.08-1.978-.228-7.276-.456-10.783c-.23-4.053-.533-8.512-1.148-13.149-.312-2.315-.678-4.58-1.317-6.671s-1.503-4.049-2.436-5.837c-1.866-3.59-4.193-6.45-6.428-8.528-2.255-2.068-4.412-3.335-5.948-4.078-.765-.386-1.385-.626-1.807-.789-.419-.169-.637-.266-.632-.282s.233.05.664.191a14.55 14.55 0 0 1 1.853.712c1.573.697 3.784 1.934 6.097 3.997 2.292 2.072 4.679 4.949 6.589 8.571.956 1.807 1.831 3.774 2.493 5.904.66 2.141 1.029 4.416 1.344 6.746.618 4.662.907 9.129 1.114 13.19a350.24 350.24 0 0 1 .354 10.797l.077 7.281-.009 1.98c-.007.453-.019.691-.035.691zm3.549 0c-.008.002-.037-.073-.085-.223l-.205-.669c-.189-.586-.393-1.471-.622-2.618-.423-2.296-.8-5.684-.619-9.867.174-4.174.812-9.152 2.394-14.465 1.598-5.293 3.871-10.926 5.879-16.951 2.055-6.016 3.242-11.972 3.722-17.454.496-5.48.461-10.451.337-14.613-.13-4.165-.344-7.533-.475-9.861l-.147-2.681-.027-.698c-.003-.158-.001-.238.007-.239s.022.079.042.236l.074.695.237 2.676c.188 2.325.453 5.691.627 9.862.167 4.168.238 9.153-.236 14.664-.457 5.507-1.644 11.526-3.707 17.564-2.016 6.047-4.298 11.668-5.912 16.93-1.591 5.259-2.261 10.205-2.477 14.351-.222 4.156.101 7.526.466 9.819.2 1.145.374 2.033.532 2.625l.159.68c.031.155.044.235.036.237zM132.756 347.043h-31.023a3.45 3.45 0 0 1-3.447-3.447h0a3.45 3.45 0 0 1 3.447-3.447h31.023a3.45 3.45 0 0 1 3.447 3.447h0a3.45 3.45 0 0 1-3.447 3.447z" class="B"/><use href="#Y" class="C"/><g opacity=".3"><use href="#Y"/></g><path d="M154.8 459.67h-53.928c-4.951 0-8.964-4.014-8.964-8.964v-96.572c0-4.951 4.014-8.964 8.964-8.964H154.8c4.951 0 8.964 4.014 8.964 8.964v96.572c0 4.951-4.013 8.964-8.964 8.964z" class="C"/><g class="B"><use href="#Z"/><use href="#Z" y="-15.782"/><use href="#Z" y="-31.564"/><path d="M163.155 393.186c0 .144-16.012.26-35.759.26-19.754 0-35.762-.116-35.762-.26s16.008-.26 35.762-.26l35.759.26z"/><use href="#Z" y="-63.127"/><use href="#Z" y="-78.908"/><use href="#a"/></g><use href="#a" x="4.314" class="D"/><use href="#a" x="-49.31" class="B"/><use href="#a" x="-44.997" class="D"/><g class="B"><path d="M82.911 418.308h0c-2.123 0-3.845-1.721-3.845-3.845v-33.214c0-2.123 1.721-3.845 3.845-3.845h0c2.123 0 3.845 1.721 3.845 3.845v33.214c0 2.123-1.722 3.845-3.845 3.845z"/><path d="M84.402 458.64c-.006.007-.089-.054-.247-.18l-.695-.572c-.547-.564-1.397-1.396-2.129-2.723-1.572-2.602-2.5-7.002-2.47-12.359l1.03-41.798 1.214-41.795c.08-2.667.136-5.116.633-7.21.465-2.1 1.409-3.771 2.443-4.873 1.028-1.12 2.105-1.683 2.85-1.939.754-.255 1.177-.259 1.177-.259.006.031-.411.075-1.14.358-.721.283-1.755.862-2.736 1.976-.988 1.1-1.879 2.734-2.309 4.801-.462 2.061-.493 4.483-.549 7.156l-1.061 41.799-1.182 41.783c-.075 5.329.786 9.669 2.278 12.261 1.456 2.619 2.975 3.507 2.893 3.574z"/></g><g class="H"><path d="M207.545 268.629l-13.651 8.852-1.241 13.795s4.017 1.875 9.91-3.482 13.567-16.221 13.567-16.221l-8.585-2.944z"/><path d="M206.939 274.294l-4.474-22.685-11.932 4.726 3.049 29.877z"/></g><path d="M239.278 245.578a1.47 1.47 0 0 0-1.1-.936l-8.578-1.656a2.7 2.7 0 0 0-2.137.537L201.561 263.9l1.061 1.176 9.159 2.793 27.648-21.883-.151-.408z" class="B"/><path d="M232.324 247.005c.123.213.452.252.735.089s.414-.468.291-.681-.452-.252-.735-.089-.414.469-.291.681z" class="E"/><path d="M239.428 245.985c-.007.035-.609-.047-1.691-.225l-4.572-.803-3.152-.579c-.532-.128-1.081-.018-1.52.316l-1.48 1.174-6.621 5.223-12.101 9.401-3.704 2.802-1.402.971s.434-.43 1.277-1.131l3.602-2.932 12.006-9.521 6.646-5.191 1.501-1.163a2.24 2.24 0 0 1 1.867-.376l3.144.642 4.546.966 1.654.426z" class="D"/><path d="M227.161 252.249s-.686-.38-1.765 1.483l-4.313 7.156-3.137-3.333-5-1.003s-1.372.61-.784 1.395 3.431 2.353 3.431 2.353l1.142 3.967-5.357-5.264s-2.326-.169-2.144 1.348 3.116 7.065 3.116 7.065l-3.126-1.333-3.029-3.613s-1.189-.345-1.091.801 2.843 6.097 2.843 6.097l4.019 3.97s2.697.686 3.211 0 .952-1.765.952-1.765 1.522.098 2.012-.49.686-1.715.686-1.715 2.059 1.128 2.745 0 1.274-3.609 1.373-4.623 4.215-9.346 4.215-9.641 1.57-2.966.001-2.855z" class="H"/><path d="M215.343 273.405c-.003.062-.538.109-1.388-.036s-2.001-.519-3.123-1.221-1.96-1.582-2.456-2.284-.69-1.204-.635-1.235c.133-.093 1.209 1.746 3.368 3.078 2.136 1.367 4.26 1.538 4.234 1.698zm-.553-2.113c-.113.086-.814-.651-1.47-1.708s-1.01-2.01-.883-2.073.68.764 1.325 1.798 1.144 1.895 1.028 1.983zm3.941-3.292c-.11.086-.809-.637-1.394-1.718s-.815-2.059-.683-2.104c.139-.05.573.817 1.14 1.856s1.054 1.877.937 1.966zm3.799-2.441c-.15.011-.327-1.057-.756-2.299-.419-1.247-.93-2.2-.804-2.283.11-.081.852.794 1.297 2.115.454 1.318.4 2.464.263 2.467z" class="K"/><path d="M162.096 161.373c1.24-4.917 5.708-8.85 10.743-9.455s10.308 2.156 12.678 6.64c2.233 4.225 2.192 9.842 5.897 12.861 2.541 2.07 6.232 2.304 8.714 4.445 5.255 4.534 2.208 14.61 7.777 18.751-3.47 2.831-7.617 4.827-11.994 5.773a7.87 7.87 0 0 0-2.161-3.954c.94 2.548-.475 5.49-2.644 7.124s-4.924 2.239-7.597 2.717c-6.442 1.151-13.107 1.801-19.498.391s-12.522-5.143-15.537-10.951c-.764-1.471-1.355-3.1-2.584-4.213-1.335-1.21-3.192-1.606-4.839-2.336-4.521-2.004-7.546-6.971-7.253-11.908 4.234-.266 7.137-4.345 8.843-8.228s3.082-8.266 6.563-10.691a9.44 9.44 0 0 1 8.06-1.252 9.44 9.44 0 0 1 5.943 5.587" class="B"/><path d="M152.111 170.662l-.181-3.559 21.26-4.731c6.573-.902 13.909 5.486 14.531 12.091.691 7.338 1.246 16.325.545 21.838-1.41 11.086-9.821 12.752-9.821 12.752l.293 13.483-24.36-.87-2.267-51.004z" class="H"/><path d="M184.791 182.651c.05.746-.542 1.404-1.32 1.469s-1.448-.484-1.498-1.23.541-1.404 1.318-1.471 1.451.485 1.5 1.232zm.743-3.43c-.17.19-1.266-.57-2.789-.519-1.521.03-2.614.847-2.785.666-.084-.08.085-.419.56-.788.468-.368 1.274-.736 2.223-.761s1.757.3 2.226.643c.48.345.649.673.565.759zm-14.923 4.083c.05.746-.542 1.404-1.32 1.47s-1.448-.484-1.498-1.23.541-1.404 1.318-1.47 1.451.484 1.5 1.23zm-.033-3.335c-.17.19-1.268-.57-2.789-.519-1.521.029-2.614.847-2.786.666-.083-.08.083-.418.561-.788.468-.368 1.274-.736 2.222-.761s1.757.3 2.227.643c.479.345.648.674.565.759zm5.875 11.119c-.01-.086.932-.279 2.459-.523.387-.052.753-.141.81-.408.083-.284-.093-.698-.295-1.144l-1.242-2.924-2.822-7.663c.168-.068 1.705 3.253 3.432 7.418l1.194 2.944c.161.437.43.93.249 1.52-.096.294-.375.513-.622.588-.247.083-.465.095-.657.112-1.54.129-2.497.166-2.506.08z" class="B"/><path d="M178.441 209.081s-7.784.698-15.273-3.493c0 0 3.966 7.609 15.352 6.244l-.079-2.751zm-2.518-14.304c-.57-.707-1.541-1.075-2.491-.943-.658.092-1.316.431-1.701.981s-.445 1.317-.064 1.818c.429.565 1.291.671 2.011.443s1.331-.727 1.91-1.222c.16-.137.324-.28.421-.464s.111-.421-.02-.567" class="K"/><g class="B"><path d="M172.006 192.28c.247-.022.302 1.63 1.752 2.759s3.204.893 3.224 1.123c.026.103-.382.333-1.125.376-.729.048-1.801-.153-2.689-.844s-1.286-1.641-1.363-2.317c-.084-.688.088-1.103.201-1.097zm-1.22-16.621c-.137.419-1.663.269-3.443.54-1.785.235-3.209.803-3.458.439-.111-.174.128-.571.698-.99.565-.418 1.474-.827 2.543-.98s2.056-.011 2.714.234c.665.243 1.005.558.946.757zm14.54-1.658c-.257.354-1.317.028-2.579.05-1.262-.022-2.322.304-2.579-.049-.113-.172.044-.524.501-.866.45-.341 1.21-.631 2.078-.632s1.628.291 2.077.631c.457.342.615.693.502.866zm-12.463-11.162c-.222 4.625-3.54 8.945-7.952 10.352-1.762.562-3.986.974-4.555 2.734-.59 1.823 1.108 3.493 1.909 5.234.984 2.138.512 4.86-1.133 6.543-.935.955-2.179 1.575-3.061 2.579-1.17 1.331-1.566 3.243-1.234 4.984s1.337 3.308 2.632 4.517c-4.172.239-8.748-1.884-10.107-5.835-.81-2.354-.391-4.928-.063-7.395a92.93 92.93 0 0 0 .69-16.978c-.049-.961-.092-2.002.452-2.795.536-.781 1.503-1.12 2.407-1.401a139.43 139.43 0 0 1 17.961-4.316"/><path d="M170.389 161.237c1.159 2.113 2.347 4.263 4.1 5.917s4.197 2.759 6.567 2.322l-1.279-2.151a34.78 34.78 0 0 0 11.894 7.992c-2.204-4.141-4.482-8.377-8.004-11.475s-8.612-4.86-13.002-3.207"/></g><path d="M180.103 218.184l-27.185-2.091 4.566 14.395 23.257 7.752 3.085-5.221z" class="H"/><path d="M128.499 241.56c-6.492-2.099-13.908-1.121-19.634 2.589s-9.65 10.078-10.388 16.861c-.718 6.599 1.421 13.32.291 19.862-.832 4.815-3.38 9.173-4.509 13.928-2.435 10.25 2.446 21.566 11.04 27.66s20.273 7.114 30.196 3.573l10.195-16.028-6.754-61.482-10.437-6.963" class="D"/><path d="M144.785 285.102s-2.324 12.488-.929 14.376 3.718 2.121 3.718 2.121l45.079-3.485 1.493-24.811s4.545-17.012 2.454-24.215-11.061-29.276-11.061-29.276l-6.904-2.066s.007 7.202-2.549 7.666-14.822.542-20.844-7.227l-2.323-2.091-12.856 9.366 5.885 50.814-1.163 8.828z" class="C"/><path d="M124.458 240.666s8.4-12.605 11.764-16.165c5.291-5.6 12.756-7.882 14.549-6.844 2.455 1.42 14.729 14.194 15.712 22.815s0 30.013 0 30.013l-10.369 3.123-.124-10.336-1.715-25.407s-4.255-11.952-14.213-12.406c0 0-10.407 8.749-10.785 17.172l-4.819-1.965zm24.172 47.599l-20.795 18.973 5.494 7.327s25.294-16.118 27.934-32.185l-12.633 5.885z" class="D"/><g class="B"><path d="M122.329 328.065s-1.173-.583-2.996-2.074c-1.808-1.484-4.24-3.988-6.185-7.747-.966-1.874-1.802-4.047-2.365-6.466-.541-2.425-.802-5.073-.838-7.854-.1-5.576.804-11.647 1.88-17.943s2.048-12.32 2.093-17.845c.038-2.759-.16-5.377-.55-7.797-.396-2.421-.905-4.667-1.161-6.759-.274-2.086-.29-4.021-.01-5.68s.78-3.039 1.369-4.066c.578-1.035 1.205-1.724 1.665-2.138s.745-.58.745-.58c.07.058-1.128.751-2.231 2.815-.55 1.02-1.014 2.383-1.259 4.013s-.206 3.525.087 5.588c.276 2.067.803 4.299 1.222 6.737a44.84 44.84 0 0 1 .604 7.872c-.019 5.574-.981 11.631-2.059 17.927s-1.986 12.327-1.914 17.85c.023 2.756.266 5.376.78 7.765.537 2.386 1.34 4.535 2.272 6.393 1.876 3.728 4.235 6.24 5.988 7.76.431.394.841.711 1.197.986.349.284.657.508.913.679l.57.409c.125.095.188.147.183.155z"/><path d="M112.661 280.203c0 .144-3.218.26-7.187.26s-7.188-.117-7.188-.26 3.217-.26 7.188-.26l7.187.26z"/></g><path d="M185.539 219.811s8.097 3.626 10.882 8.212 10.319 30.823 10.319 30.823l-10.6 2.099-10.601-41.134z" class="C"/><path d="M191.411 257.679s-2.444-23.978-3.465-25.537-2.665-13.244-7.843-13.958c0 0 5.456 1.255 8.603 3.277s6.578 12.918 6.578 12.918l1.986 19.008-5.859 4.292z" class="D"/><path d="M126.797 236.674c-.084.052-.37-.808-1.492-1.514a4.5 4.5 0 0 0-2.149-.664c-.849-.041-1.794.198-2.661.681-1.767.982-2.74 2.656-3.285 3.856l-.843 2.023c-.058-.013.03-.863.503-2.164.471-1.265 1.448-3.097 3.372-4.17.945-.526 1.993-.779 2.942-.705a4.62 4.62 0 0 1 2.327.837c1.171.863 1.336 1.831 1.286 1.82zm27.477 1.191c-.029.01-.255-.47-.645-1.358l-.326-.739-.463-.846-.534-.976-.699-1.039c-1.004-1.436-2.405-3.058-4.357-4.415-1.923-1.355-4.431-2.488-7.201-2.781l-.025-.003c-1.789-.224-3.738.609-5.42 1.656l.052-.046-.193.229c-4.679 5.495-8.314 10.949-10.719 15.018-1.208 2.033-2.132 3.711-2.759 4.876l-.728 1.34c-.17.305-.268.461-.284.453s.05-.18.19-.5.349-.791.641-1.386c.574-1.196 1.451-2.905 2.622-4.969 2.331-4.13 5.937-9.648 10.641-15.171l.194-.23.024-.028.028-.018c.897-.577 1.826-1.025 2.795-1.359.967-.321 1.988-.506 2.992-.365l-.025-.003c2.936.325 5.456 1.511 7.429 2.929 1.986 1.419 3.389 3.105 4.372 4.59l.681 1.074.509 1.006.434.873.292.761c.34.916.511 1.417.482 1.427zm-8.767 59.615c.037.05-.838.793-2.382 1.819s-3.773 2.304-6.379 3.414-5.077 1.827-6.886 2.225-2.952.515-2.962.453c-.015-.08 1.101-.323 2.873-.81a54.47 54.47 0 0 0 6.771-2.347c2.576-1.098 4.808-2.308 6.387-3.247l2.578-1.507z" class="B"/><path d="M265.317 402.328l-6.328 61.423-19.327-.264-1.389-64.903z" class="H"/><path d="M259.552 457.9l.001 1.286s21.77 8.81 21.991 12.945l-43.272-.336.7-14.395c6.411 3.03 13.142 3.418 20.58.5z" class="D"/><g class="F E"><path d="M243.319 462.038c-.839.223-1.425 1.159-1.237 2.007s1.136 1.452 1.979 1.244 1.581-1.311 1.299-2.132-1.433-1.47-2.202-1.066"/></g><g class="F E"><path d="M238.273 471.795l.169-3.462 41.412 1.59s1.92.853 1.692 2.208l-43.273-.336z"/></g><path d="M259.705 459.308c-.009.211-1.066.299-2.111.97-1.062.644-1.605 1.555-1.799 1.47-.194-.043.13-1.303 1.41-2.094 1.271-.802 2.547-.54 2.5-.346zm4.524 1.912c.047.205-.871.557-1.596 1.446-.75.867-.939 1.831-1.149 1.821-.199.032-.336-1.207.587-2.294.911-1.095 2.155-1.174 2.158-.973zm2.535 5.452c-.192.044-.478-1.014.073-2.167.543-1.157 1.543-1.606 1.631-1.429.118.175-.529.791-.967 1.744-.459.943-.527 1.833-.737 1.852z" class="B"/><path d="M271.034 417.771l29.394 33.483-13.805 13.529-34.884-30.471z" class="H"/><path d="M296.673 446.732l.913.905s21.59-9.241 24.681-6.484l-30.727 30.47-9.721-10.639c6.666-2.415 11.684-6.918 14.854-14.252z" class="D"/><g class="F E"><path d="M288.172 461.167c-.433.752-.181 1.828.552 2.292s1.83.217 2.277-.528.184-2.046-.598-2.424-2.053-.018-2.308.811"/></g><g class="F E"><path d="M291.54 471.623l-2.338-2.559 30.306-28.267s1.958-.761 2.759.356l-30.727 30.47z"/></g><path d="M297.78 447.616c.144.155-.539.967-.799 2.181-.292 1.208-.028 2.235-.225 2.312-.167.108-.833-1.011-.493-2.476.328-1.466 1.413-2.187 1.517-2.017zm4.544-1.863c.178.111-.218 1.011-.099 2.151.086 1.143.638 1.957.482 2.098-.118.163-1.093-.612-1.215-2.033-.133-1.418.687-2.356.832-2.216zm5.655 2.042c-.104.167-1.057-.375-1.486-1.579-.438-1.201-.052-2.227.135-2.165.207.039.189.932.556 1.915.346.991.93 1.667.795 1.829z" class="B"/><path d="M145.828 226.151c-2.19-1.749-5.341-1.587-7.324.394-3.681 3.677-9.022 9.853-9.184 14.867-.247 7.67-1.484 27.957-1.484 27.957l28.204-.99s0-26.967-2.474-33.152c-1.398-3.497-4.931-6.835-7.738-9.076z" class="C"/><g class="H"><path d="M131.091 269.368s-1.608 15.516.179 22.634c1.849 7.364 5.495 7.254 8.573 7.474s51.541-25.182 51.541-25.182l-5.379-9.549-36.49 10.991.339-7.124-18.763.756z"/><path d="M185.704 265.031l8.749-10.953 7.894-1.829 9.627 1.059s.385 1.444-1.155 2.214l3.369.193s.674 1.733-1.251 2.503l2.407.422s-1.059 2.466-3.755 1.984-7.124-.481-7.124-.481l-4.717 2.599 7.028-.289 5.102.963s.674 1.305-.481 1.615-5.584 0-5.584 0l-6.739 1.754s-1.444 4.332-2.31 5.295-5.68 2.214-5.68 2.214l-5.38-9.263z"/></g><g class="K"><path d="M214.188 255.714c-.008.072-1.008.029-2.618-.097l-6.28-.6-2.351-.263.097-.008-4.538 1.223-1.829.366c-.017-.057.633-.304 1.74-.671l4.486-1.4.046-.014.051.005 2.353.244 6.264.752 2.579.463zm.58 2.825c-.01.071-.916.004-2.373-.161l-5.674-.754-2.201-.333.129-.015-5.541 1.951c-.044-.11 2.214-1.123 5.354-2.415l.061-.025.069.01 2.204.313 5.652.905 2.32.524z"/><path d="M191.083 274.294c-.004-.016.261-.1.77-.261l2.223-.744 1.57-.645c.282-.129.563-.287.829-.474.253-.181.423-.487.598-.801.67-1.285 1.242-2.876 1.84-4.638l.029-.086.088-.023 6.73-1.788.031-.008.035.002 3.621.123c.621-.009 1.286-.008 1.871-.132.279-.071.467-.225.512-.47s-.035-.57-.158-.827l.162.12-5.104-.95.055.004-7.027.3-1.078.046.946-.522 4.715-2.603.059-.033h.066l5.567.266 1.569.212c.486.078.969.084 1.428-.037.916-.227 1.676-.964 2.078-1.787l.193.356-2.406-.424-.886-.156.835-.335c.452-.181.845-.47 1.043-.867.207-.386.201-.899.067-1.306l.221.161-3.369-.197-.92-.054.824-.416c.374-.189.692-.459.873-.805.188-.335.23-.772.158-1.124l.208.179-9.624-1.085.072-.004-7.902 1.794.101-.063-6.474 7.974-1.773 2.142-.47.548c-.108.121-.167.181-.174.176s.038-.076.133-.208l.43-.58 1.698-2.202 6.346-8.076.038-.049.063-.015 7.886-1.864.035-.008.037.004 9.63 1.033.175.019.034.16c.107.513.047 1.018-.193 1.478s-.647.799-1.086 1.02l-.097-.469 3.37.188.171.009.05.152c.187.563.191 1.169-.083 1.718s-.789.907-1.309 1.115l-.051-.491 2.407.421.338.059-.145.298c-.477.982-1.322 1.798-2.421 2.086-.54.144-1.111.135-1.65.047l-1.532-.207c-1.876-.188-3.751-.252-5.513-.267l.125-.032-4.719 2.595-.133-.476 7.028-.277.028-.001.027.005 5.1.975.117.022.045.098c.16.351.262.709.195 1.126-.065.436-.491.75-.846.816-.703.143-1.34.126-1.983.134l-3.65-.151.065-.006-6.747 1.72.117-.11c-.626 1.77-1.217 3.348-1.929 4.659-.186.319-.372.65-.684.87-.295.199-.59.355-.88.481a17.77 17.77 0 0 1-1.605.614 34.94 34.94 0 0 1-2.257.662l-.591.14c-.134.025-.204.035-.206.027z"/></g><g class="B"><path d="M127.349 269.368c-.001-.015.161-.036.472-.06l1.367-.088 5.105-.243 17.488-.67-.244.245a100.45 100.45 0 0 0-.115-7.753c-.221-4.438-.608-8.661-.857-12.513l-.344-5.459c-.152-1.7-.385-3.274-.726-4.68-.663-2.823-1.787-4.927-2.73-6.236-.95-1.315-1.655-1.895-1.616-1.934.01-.012.192.124.511.415s.763.75 1.268 1.398c1.007 1.29 2.205 3.41 2.925 6.268.369 1.423.627 3.015.799 4.728s.245 3.548.393 5.467l.898 12.52c.139 2.697.176 5.325.1 7.794l-.007.238-.237.007-17.494.488-5.11.094-1.37.003c-.312-.004-.475-.013-.476-.029zm20.225 32.231s-12.769 17.422-12.769 24.385.268 17.409 8.57 24.908 109.887 95.243 109.887 95.243L278.02 424.3l-92.06-92.959s4.285-7.767 2.41-10.981-4.821-4.285-4.821-4.285l-.268-17.236-35.707 2.76z"/><path d="M192.653 298.113l2.159 18.362s65.386 33.884 70.661 43.896c2.391 4.536 4.707 45.606 4.707 45.606l-32.241.736-4.169-32.549-17.301-9.351-30.931-31.433-10.533-33.903 17.648-1.364zm-29.491 2.796c.032-.006.15.378.293 1.09s.307 1.753.377 3.055c.061 1.3.022 2.869-.33 4.569a13.88 13.88 0 0 1-2.204 5.172c-1.161 1.645-2.678 2.931-4.282 3.65-1.602.727-3.212.918-4.524.822-1.319-.105-2.342-.473-2.988-.815-.323-.175-.565-.322-.716-.443-.155-.114-.23-.181-.22-.196.041-.117 1.376.976 3.945 1.087 1.261.045 2.793-.177 4.302-.89 1.509-.704 2.945-1.938 4.059-3.515 2.262-3.201 2.63-6.906 2.592-9.429-.058-2.567-.399-4.142-.304-4.157z"/></g><g class="D"><path d="M188.231 313.363c.037.049-.571.604-1.694 1.311s-2.778 1.531-4.729 2.099-3.794.756-5.119.756-2.137-.141-2.132-.202c-.002-.171 3.284.077 7.106-1.054 3.834-1.088 6.479-3.055 6.568-2.91zm-1.978-12.311c-.028-.05.617-.224 1.39.36.363.282.73.814.71 1.481-.01.638-.367 1.376-1.093 1.702-.742.309-1.538.037-1.978-.45a1.46 1.46 0 0 1-.227-1.639c.214-.437.557-.671.806-.747s.399-.04.4-.011c.032.073-.588.151-.867.901-.133.354-.11.832.238 1.166.325.335.933.513 1.422.301.495-.216.793-.761.821-1.244.04-.49-.199-.914-.475-1.186-.578-.555-1.162-.549-1.147-.634zm2.104 33.84c-.055.056-.847-.663-2.16-1.778s-3.164-2.608-5.342-4.066a46.63 46.63 0 0 0-5.831-3.312l-2.522-1.203c.019-.058 1.062.209 2.671.867s3.763 1.741 5.971 3.215a41.21 41.21 0 0 1 5.299 4.225c1.259 1.193 1.96 2.006 1.914 2.052zm4.134-12.32c-.132.01-.188-1.596.666-3.33.839-1.742 2.137-2.689 2.211-2.578.108.113-.96 1.172-1.743 2.806-.803 1.623-.978 3.117-1.134 3.102zM265.949 451c-.055.046-.702-.622-1.702-1.74l-3.826-4.438c-.367-.439-.713-.854-1.126-1.104-.406-.253-.886-.321-1.341-.273-.925.101-1.69.561-2.313.957-1.236.852-2.164 1.169-2.186 1.081-.012-.056.793-.455 1.98-1.385.604-.436 1.401-.982 2.465-1.129.524-.072 1.136-.004 1.657.312.519.309.898.774 1.263 1.207l3.71 4.536 1.419 1.976z"/><path d="M253.262 446.135l.419-.407 1.266-1.153 4.898-4.388 18.048-16.032-.009.282-46.714-46.567-33.554-33.561-3.661-3.668-1.775-1.78-1.776-1.693c-1.191-1.062-2.513-2.125-3.097-3.667-.31-.743-.36-1.599-.188-2.36.179-.78.509-1.431.717-2.133.459-1.383.811-2.759.992-4.114.166-1.345.182-2.71-.294-3.868-.552-1.101-1.412-2.068-2.251-2.884-.862-.809-1.807-1.496-2.784-1.933l-.091-.041-.001-.091-.13-12.238-.015-3.244.006-.834.015-.283s.015.095.024.282l.033.833.09 3.242.265 12.236-.092-.132c1.047.458 1.999 1.148 2.895 1.973.877.849 1.729 1.771 2.347 2.978.523 1.256.502 2.668.342 4.048-.178 1.388-.529 2.786-.987 4.189-.206.705-.543 1.401-.695 2.094-.151.71-.109 1.444.18 2.134.533 1.405 1.791 2.43 2.999 3.494.623.525 1.209 1.105 1.79 1.694l1.782 1.773 3.672 3.657 33.603 33.52 46.627 46.669.146.146-.155.136-18.162 15.903-4.966 4.311-1.302 1.112-.457.365z"/><path d="M267.762 447.351c-.112.078-1.58-1.883-2.961-4.561-1.389-2.674-2.144-5.005-2.015-5.051.141-.054 1.104 2.168 2.478 4.812l2.498 4.8zm6.365-4.52c-.082.103-2.138-1.517-4.117-4.045-1.992-2.519-3.082-4.899-2.963-4.954.137-.075 1.414 2.158 3.372 4.632l3.708 4.367zm4.025-4.442c-.121.083-1.556-1.8-3.344-4.101l-3.144-4.258c.105-.093 1.758 1.62 3.555 3.938s3.049 4.342 2.933 4.421zm4.194-7.364c-.082.118-1.587-.781-3.361-2.008s-3.147-2.318-3.065-2.437 1.587.781 3.362 2.009 3.145 2.318 3.064 2.436zm-58.884-58.379c.095.108-4.348 4.194-9.924 9.127s-10.175 8.845-10.27 8.737 4.347-4.193 9.925-9.127 10.173-8.845 10.269-8.737zm-.856 1.738c.056.037-.365.802-1.164 1.964s-1.989 2.708-3.446 4.293-2.903 2.899-3.995 3.789-1.819 1.374-1.861 1.321c-.1-.123 2.591-2.319 5.473-5.463l4.993-5.904zm-57.532-71.807c.035.009-.019.304-.146.834-.117.532-.369 1.283-.752 2.181-.375.902-.936 1.927-1.657 3.002-.742 1.059-1.655 2.158-2.745 3.182-1.103 1.011-2.267 1.84-3.379 2.501-1.125.639-2.189 1.123-3.117 1.429-.923.314-1.691.51-2.23.587-.538.088-.836.119-.842.084-.02-.095 1.163-.312 2.944-1.016.893-.344 1.916-.852 3-1.497a22.32 22.32 0 0 0 3.27-2.471c1.061-.998 1.961-2.058 2.706-3.076.724-1.033 1.306-2.015 1.715-2.88l1.233-2.86zm77.255 59.239c.111.129-2.726 2.22-5.167 5.731-2.476 3.487-3.481 6.865-3.641 6.804-.059-.017.113-.881.61-2.211s1.356-3.111 2.604-4.892 2.636-3.192 3.719-4.108 1.839-1.373 1.875-1.324z"/><path d="M248.912 365.462c.034.162-3.547.803-7.64 2.543-4.106 1.712-7.067 3.824-7.16 3.687-.038-.052.654-.647 1.88-1.463s3.002-1.828 5.077-2.703 4.042-1.436 5.481-1.741 2.351-.387 2.362-.323z"/></g><defs ><path id="B" d="M394.695 76.097c.001.092-3.531.196-7.888.232s-7.89-.009-7.891-.101 3.53-.196 7.888-.232l7.891.101z"/><path id="C" d="M239.692 233.439h164.457v40.945H239.692z"/><path id="D" d="M390.082 267.716h-23.879a7.42 7.42 0 0 1-7.416-7.416h0a7.42 7.42 0 0 1 7.416-7.416h23.879a7.42 7.42 0 0 1 7.416 7.416h0a7.42 7.42 0 0 1-7.416 7.416z"/><path id="E" d="M266.891 164.772v-2.119h.532v2.098c0 .825.378 1.198 1.049 1.198s1.055-.373 1.055-1.198v-2.098h.517v2.119c0 1.081-.591 1.651-1.576 1.651s-1.577-.57-1.577-1.651z"/><path id="F" d="M302.568 245.363c0-.31.229-.512.517-.512s.517.202.517.512c0 .303-.229.521-.517.521s-.517-.218-.517-.521zm0 1.911c0-.309.229-.511.517-.511s.517.202.517.511a.51.51 0 0 1-.517.523.51.51 0 0 1-.517-.523z"/><path id="G" d="M303.991 245.889c0-1.229.682-1.928 1.598-1.928s1.598.698 1.598 1.928-.677 1.928-1.598 1.928-1.598-.697-1.598-1.928zm2.327 0c0-.847-.299-1.198-.729-1.198s-.725.352-.725 1.198.298 1.198.725 1.198.729-.351.729-1.198z"/><path id="H" d="M312.798 245.922h1.507v.666h-1.507v-.666z"/><path id="I" d="M317.729 244.026v3.727h-.862v-3.035h-.746v-.692h1.608z"/><path id="J" d="M339.124 247.754l-.005-2.236-1.098 1.842h-.389l-1.092-1.794v2.188h-.809v-3.727h.713l1.395 2.316 1.374-2.316h.708l.011 3.727h-.808z"/><path id="K" d="M333.81 166.381l-.805-1.145-.234.011h-.921v1.134h-.532v-3.728h1.453c.97 0 1.556.49 1.556 1.299 0 .575-.299.99-.82 1.177l.884 1.251h-.581zm-.016-2.428c0-.533-.356-.836-1.038-.836h-.905v1.678h.905c.681-.001 1.038-.31 1.038-.842z"/><path id="L" d="M344.39 254.573c0 .144-10.585.26-23.64.26s-23.642-.117-23.642-.26 10.583-.26 23.642-.26l23.64.26z"/><path id="M" d="M392.69 246.669c0 .144-6.94.26-15.498.26s-15.5-.117-15.5-.26 6.938-.26 15.5-.26 15.498.116 15.498.26z"/><path id="N" d="M274.957 267.129c0 .144-5.726.26-12.789.26s-12.79-.117-12.79-.26 5.725-.26 12.79-.26 12.789.116 12.789.26z"/><path id="O" d="M302.568 292.042c0-.31.229-.512.517-.512s.517.202.517.512a.51.51 0 1 1-1.034 0zm0 1.911c0-.309.229-.511.517-.511s.517.202.517.511c0 .304-.229.522-.517.522s-.517-.218-.517-.522z"/><path id="P" d="M303.991 292.569c0-1.229.682-1.928 1.598-1.928s1.598.698 1.598 1.928-.677 1.928-1.598 1.928-1.598-.698-1.598-1.928zm2.327 0c0-.847-.299-1.198-.729-1.198s-.725.352-.725 1.198.298 1.198.725 1.198.729-.352.729-1.198z"/><path id="Q" d="M375.5 307.092c0-1.699.941-2.662 2.206-2.662 1.272 0 2.206.963 2.206 2.662s-.934 2.662-2.206 2.662c-1.265 0-2.206-.963-2.206-2.662zm3.214 0c0-1.169-.412-1.654-1.008-1.654-.588 0-1 .485-1 1.654s.412 1.655 1 1.655c.595 0 1.008-.485 1.008-1.655z"/><path id="R" d="M288.631 320.856c-.144 0-.26-8.939-.26-19.964l.26-19.966c.143 0 .26 8.937.26 19.966l-.26 19.964z"/><path id="S" d="M302.568 338.722c0-.31.229-.512.517-.512s.517.202.517.512a.51.51 0 1 1-1.034 0zm0 1.911c0-.309.229-.511.517-.511s.517.202.517.511a.51.51 0 0 1-.517.523.51.51 0 0 1-.517-.523z"/><path id="T" d="M303.991 339.248c0-1.23.682-1.928 1.598-1.928s1.598.698 1.598 1.928-.677 1.928-1.598 1.928-1.598-.697-1.598-1.928zm2.327 0c0-.847-.299-1.198-.729-1.198s-.725.352-.725 1.198.298 1.198.725 1.198.729-.351.729-1.198z"/><path id="U" d="M312.602 147.618h-64.664c-3.48 0-6.301-2.821-6.301-6.301h0c0-3.48 2.821-6.301 6.301-6.301h64.664c3.48 0 6.301 2.821 6.301 6.301h0c0 3.48-2.821 6.301-6.301 6.301z"/><path id="V" d="M394.302 147.618h-59.346c-3.48 0-6.301-2.821-6.301-6.301h0c0-3.48 2.821-6.301 6.301-6.301h59.346c3.48 0 6.301 2.821 6.301 6.301h0c0 3.48-2.821 6.301-6.301 6.301z"/><path id="W" d="M455.296 441.891c.708-2.455 2.226-4.828 4.572-5.839 2.441-1.052 5.268-.453 7.766.454s4.951 2.122 7.603 2.286 5.647-1.095 6.441-3.631c.747-2.384-.691-4.927-2.491-6.659-3.782-3.64-9.465-5.185-14.569-3.959s-9.467 5.181-11.184 10.142"/><path id="X" d="M392.894 416.245c-7.972 4.811-7.947 9.188-6.616 13.321s6.224 7.003 10.281 5.456c2.293-.875 3.954-2.868 5.373-4.87s2.752-4.146 4.74-5.585 4.871-1.989 6.868-.563"/><path id="Y" d="M137.738 459.67H83.81c-4.951 0-8.964-4.014-8.964-8.964v-96.572c0-4.951 4.013-8.964 8.964-8.964h53.928c4.951 0 8.964 4.014 8.964 8.964v96.572c0 4.951-4.014 8.964-8.964 8.964z"/><path id="Z" d="M163.155 440.531c0 .144-16.012.26-35.759.26-19.754 0-35.762-.117-35.762-.26s16.008-.26 35.762-.26l35.759.26z"/><path id="a" d="M151.852 465.867a6.2 6.2 0 0 1-6.197 6.197 6.2 6.2 0 0 1-6.197-6.197 6.2 6.2 0 0 1 6.197-6.197 6.2 6.2 0 0 1 6.197 6.197z"/></defs></svg>