<svg xmlns="http://www.w3.org/2000/svg" xml:space="preserve" viewBox="223.78 146.97 701.89 501.6"><style>.st0{fill:#f5f5f5}</style><g id="man_1_"><path class="st0" d="m541 628.49-42.82-21.77c-7.38-3.75-10.32-12.77-6.57-20.15l63.11-124.14c3.75-7.38 12.77-10.32 20.15-6.57l42.82 21.77c7.38 3.75 10.32 12.77 6.57 20.15l-63.11 124.14c-3.76 7.38-12.78 10.32-20.15 6.57z"/><path d="M547.77 631.12c-2.48 0-4.95-.59-7.23-1.74l-42.82-21.77a15.852 15.852 0 0 1-7.95-9.29 15.88 15.88 0 0 1 .95-12.2l63.11-124.14c3.99-7.86 13.64-11 21.49-7l42.82 21.77c7.86 3.99 11 13.63 7 21.49l-63.11 124.14a15.852 15.852 0 0 1-9.29 7.95c-1.63.53-3.3.79-4.97.79zm20.33-175.88c-5.1 0-10.02 2.8-12.49 7.64L492.5 587.03a13.892 13.892 0 0 0-.83 10.67c1.16 3.55 3.63 6.44 6.96 8.13l42.82 21.77c3.33 1.69 7.12 1.99 10.67.83 3.55-1.16 6.44-3.63 8.13-6.96l63.11-124.14c3.49-6.87.75-15.31-6.13-18.8l-42.82-21.77a13.86 13.86 0 0 0-6.31-1.52z"/><path class="st0" d="m516.19 615.88-31.34-15.93c-7.38-3.75-10.32-12.77-6.57-20.15l63.11-124.14c3.75-7.38 12.77-10.32 20.15-6.57l31.34 15.93c7.38 3.75 10.32 12.77 6.57 20.15l-63.11 124.14c-3.76 7.38-12.78 10.32-20.15 6.57z"/><path d="M522.95 618.5c-2.43 0-4.9-.56-7.22-1.73l-31.34-15.93a15.852 15.852 0 0 1-7.95-9.29 15.88 15.88 0 0 1 .95-12.2L540.5 455.2c3.99-7.86 13.63-11 21.49-7l31.34 15.93c3.81 1.93 6.63 5.24 7.95 9.29 1.32 4.06.99 8.39-.95 12.2l-63.11 124.14c-2.81 5.54-8.44 8.74-14.27 8.74zm31.82-170.04c-5.1 0-10.02 2.8-12.49 7.64l-63.11 124.14a13.892 13.892 0 0 0-.83 10.67c1.16 3.55 3.63 6.44 6.96 8.13l31.34 15.93c6.87 3.49 15.31.75 18.8-6.13l63.11-124.14c1.69-3.33 1.99-7.12.83-10.67a13.894 13.894 0 0 0-6.96-8.13l-31.34-15.93a13.977 13.977 0 0 0-6.31-1.51z"/><circle cx="546.99" cy="636.19" r="10.5"/><path d="M587.34 492.76c-.13 0-.25-.03-.37-.09l-44.62-22.69a.819.819 0 0 1-.36-1.11c.21-.41.7-.57 1.11-.36l44.62 22.69c.41.21.57.7.36 1.11-.15.29-.44.45-.74.45zM573.36 521.33c-.13 0-.27-.03-.39-.1l-45.9-24.65a.837.837 0 0 1-.34-1.12c.22-.4.72-.55 1.12-.34l45.9 24.65c.4.22.55.72.34 1.12-.15.28-.43.44-.73.44zM560.04 547.35c-.13 0-.27-.03-.39-.1l-45.9-24.65a.837.837 0 0 1-.34-1.12c.22-.4.72-.55 1.12-.34l45.9 24.65c.4.22.55.72.34 1.12-.15.29-.43.44-.73.44zM547.19 572.99c-.13 0-.27-.03-.39-.1l-45.9-24.65a.837.837 0 0 1-.34-1.12c.22-.4.72-.55 1.12-.34l45.9 24.65c.4.22.55.72.34 1.12-.15.29-.43.44-.73.44zM534.28 598.37c-.13 0-.27-.03-.39-.1l-45.9-24.65a.837.837 0 0 1-.34-1.12c.22-.4.72-.55 1.12-.34l45.9 24.65c.4.22.55.72.34 1.12-.15.28-.44.44-.73.44z"/><g id="Layer_16"><path class="st0" d="M546.89 641.53c-.95 0-1.89-.26-2.7-.76-.47-.29-.62-.9-.33-1.38.29-.47.9-.62 1.37-.33a3.182 3.182 0 0 0 4.83-2.72c0-1.76-1.42-3.18-3.18-3.18-.51 0-1 .12-1.45.35a1 1 0 0 1-1.35-.43c-.25-.49-.06-1.09.43-1.35a5.187 5.187 0 0 1 7.55 4.61c0 2.86-2.31 5.19-5.17 5.19z"/><g id="man"><path transform="rotate(46.227 881.308 316.818)" class="st0" d="M871.71 270.13h19.12v93.28h-19.12z"/><path d="M854.2 356.93h-.02a1.01 1.01 0 0 1-.7-.31l-13.22-13.81a.996.996 0 0 1 .03-1.41l67.36-64.53c.19-.18.45-.27.71-.28.27.01.52.12.7.31l13.22 13.81c.38.4.37 1.03-.03 1.41l-67.36 64.53c-.19.18-.43.28-.69.28zm-11.81-14.77 11.84 12.36 65.92-63.14-11.84-12.36-65.92 63.14z"/><path transform="rotate(46.227 884.422 328.796)" class="st0" d="M874.82 282.1h19.12v93.28h-19.12z"/><path d="M857.31 368.91a.97.97 0 0 1-.72-.31l-13.23-13.81c-.18-.19-.28-.45-.28-.71s.12-.52.31-.7l67.36-64.53a.996.996 0 0 1 1.41.03l13.23 13.81c.18.19.28.45.28.71s-.12.52-.31.7L858 368.63c-.19.19-.44.28-.69.28zm-11.81-14.78 11.84 12.36 65.92-63.14-11.84-12.36-65.92 63.14z"/><path d="M921.56 292.4c-.06 0-.12 0-.18-.02l-10.11-1.83c-.54-.1-.9-.62-.81-1.16.1-.54.62-.91 1.16-.81l10.11 1.83c.54.1.9.62.81 1.16-.08.5-.51.83-.98.83zM898.96 308.46c-.35 0-.69-.18-.87-.51-.71-1.26-1.24-2.08-1.24-2.09a1 1 0 0 1 .29-1.38 1 1 0 0 1 1.38.29c.02.04.57.88 1.31 2.21a.994.994 0 0 1-.87 1.48zM887.39 325.52c-.71 0-1.35-.01-1.98-.02-.55-.01-.99-.47-.98-1.02.01-.55.43-.99 1.02-.98.62.01 1.29.01 1.94.02 1.08 0 2.23-.02 3.43-.06h.03c.54 0 .98.43 1 .97.02.55-.42 1.01-.97 1.03-1.23.04-2.4.06-3.49.06zm8.87-.37c-.52 0-.95-.4-1-.92-.04-.55.36-1.03.92-1.08.46-.04.93-.08 1.41-.13 1.36-.13 2.39-.52 3.07-1.16a.996.996 0 1 1 1.36 1.46c-1.01.94-2.44 1.51-4.24 1.69-.48.05-.96.09-1.44.13-.02.01-.05.01-.08.01zm6.47-6.58c-.5 0-.94-.38-.99-.89-.15-1.41-.61-3.08-1.35-4.95-.21-.51.05-1.09.56-1.3.51-.21 1.09.05 1.3.56.81 2.04 1.31 3.89 1.48 5.48a1 1 0 0 1-.89 1.1c-.04-.01-.08 0-.11 0zM879.98 325.26h-.08c-1.6-.12-2.5-.24-2.54-.24a.995.995 0 0 1-.86-1.12c.07-.55.57-.94 1.12-.86.01 0 .89.11 2.43.23.55.04.96.52.92 1.07-.03.52-.47.92-.99.92zM865.31 331.95c-.35 0-.69-.18-.87-.51-.36-.63-.6-1.33-.73-2.08-.09-.54.28-1.06.82-1.15a.994.994 0 0 1 1.15.82c.09.52.25 1 .49 1.42a1 1 0 0 1-.38 1.36c-.15.1-.32.14-.48.14zm.12-6.64a1.008 1.008 0 0 1-.93-1.37c.57-1.47 1.42-3.01 2.5-4.59.31-.45.94-.57 1.39-.26.46.31.57.94.26 1.39-1 1.45-1.77 2.86-2.28 4.18-.17.41-.54.65-.94.65zm5.54-8.27a.996.996 0 0 1-.73-1.68c1.31-1.38 2.65-2.58 3.89-3.45a.994.994 0 0 1 1.39.24c.32.45.21 1.07-.24 1.39-1.13.8-2.37 1.9-3.59 3.19-.19.2-.45.31-.72.31zm13.41-4.7h-.05c-.01 0-2.17-.11-4.92-.02a1.01 1.01 0 0 1-1.03-.97c-.02-.55.42-1.01.97-1.03 2.84-.09 5.01.02 5.08.03.55.03.98.5.95 1.05-.03.53-.47.94-1 .94z"/><g id="Layer_12"><path class="st0" d="M653.95 390.7s-10.78 15.32-9.74 17.8c1.04 2.48 4.18-1.17 4.18-1.17s-2.59 4.27-1.06 6.05c.45.53 1.18.65 1.57.73 2.11.43 3.82-.88 4.18-1.17-1.54 3.01-2.04 5.73-1.18 6.91.39.54.91.78.91.78 1.03.48 2.17-.03 2.54-.19 1.77-.78 2.62-2.47 4.64-6.32-.08.15-1.89 3.59-.46 5.15.61.67 1.56.71 1.76.72 3.5.15 7.56-6.67 9.28-12.64 1.41-4.89 3.02-10.5-.24-14.48-3.2-3.88-9.9-4.84-16.38-2.17z"/><path d="M653.75 421.72c-.42 0-.87-.08-1.32-.28-.07-.04-.74-.36-1.25-1.07-.81-1.12-.76-3.1.1-5.52-.75.22-1.62.31-2.56.12-.54-.11-1.44-.29-2.07-1.02-.88-1.03-.79-2.53-.41-3.9-.41.15-.83.22-1.25.16-.5-.08-1.18-.38-1.6-1.38-1.11-2.64 6.51-13.92 9.83-18.64.1-.14.23-.24.38-.31 6.78-2.79 13.92-1.79 17.38 2.43 3.55 4.34 1.81 10.4.41 15.28-1.6 5.56-5.74 13.28-10.01 13.29h-.15c-.98-.04-1.82-.4-2.37-1-.26-.29-.45-.61-.57-.95-.78 1.14-1.54 1.85-2.6 2.33-.31.13-1.06.46-1.94.46zm-.68-9.66c.2 0 .39.07.55.2.32.26.42.71.23 1.08-1.52 2.98-1.78 5.27-1.25 6 .25.34.58.51.58.51.66.31 1.52-.08 1.81-.2 1.45-.64 2.23-2.13 4.1-5.71l.07-.12c.02-.04.04-.07.05-.1.23-.43.75-.59 1.19-.36.43.23.59.75.37 1.18l-.05.1c-.61 1.19-1.27 3.26-.54 4.05.24.26.64.41 1.15.44 2.6.12 6.53-5.5 8.4-12.01 1.36-4.72 2.89-10.06-.08-13.68-2.93-3.58-9.12-4.4-15.12-2.01-4.89 6.98-9.88 15.3-9.5 16.75.04.1.14.29.25.31.5.07 1.69-.84 2.45-1.72.3-.35.81-.41 1.18-.14.37.27.47.77.24 1.16-.73 1.22-1.98 4.05-1.15 5.03.23.27.71.37 1.02.43 1.7.34 3.12-.66 3.51-.98a.78.78 0 0 1 .54-.21z"/><path class="st0" d="M669.12 410.87c2.5-.79 3.77-3.26 6.21-8.15 1.8-3.6 2.92-6.71 3.6-8.8-5.5-5.19-10.99-10.39-16.49-15.58-.94 1.2-2.31 2.98-3.91 5.19-2.65 3.66-3.99 5.52-4.58 7.17l15.17 20.17z"/><path d="M669.12 411.75c-.37 0-.72-.24-.84-.61-.15-.46.11-.96.57-1.1 2.1-.67 3.26-2.85 5.69-7.7 1.32-2.64 2.46-5.38 3.38-8.15l-15.38-14.54a180.07 180.07 0 0 0-3.3 4.4c-2.71 3.73-3.93 5.45-4.46 6.95-.16.46-.67.7-1.12.54a.877.877 0 0 1-.54-1.12c.64-1.8 2.08-3.79 4.69-7.39 1.28-1.76 2.6-3.52 3.93-5.21.15-.19.38-.32.63-.33.25-.02.49.07.67.24l16.49 15.58c.25.23.34.59.23.91-.98 3.03-2.21 6.03-3.65 8.92-2.39 4.78-3.83 7.67-6.73 8.59-.08.01-.17.02-.26.02z"/><path class="st0" d="M676.38 393.42c13.49-18.32 26.98-36.65 40.47-54.97 19.33-13.3 35.14-26.04 54.47-39.34l-12.45-31.23c-.1.06-.7.39-1.72.97-9.55 5.38-26.02 14.67-41.78 26-11.54 8.3-17.31 12.45-22.31 18.08-3.87 4.36-7.33 13.94-16.53 33.9-4.89 10.62-14.76 33.61-14.76 33.61l14.61 12.98z"/><path d="M676.38 394.3c-.18 0-.36-.06-.52-.17a.89.89 0 0 1-.19-1.23l40.47-54.97c.06-.08.13-.15.21-.2 9.65-6.64 18.58-13.26 27.21-19.65 8.47-6.28 17.23-12.77 26.69-19.29l-11.82-29.65-.85.48c-9.04 5.09-25.86 14.56-41.69 25.95-11.47 8.25-17.23 12.39-22.17 17.95-2.65 2.98-5.14 8.57-9.65 18.72-1.9 4.28-4.06 9.13-6.74 14.96-4.83 10.49-14.65 33.36-14.75 33.59-.19.45-.71.65-1.15.46a.873.873 0 0 1-.46-1.15c.1-.23 9.92-23.13 14.77-33.63 2.68-5.82 4.83-10.66 6.74-14.94 4.58-10.31 7.1-15.98 9.94-19.17 5.07-5.7 10.88-9.88 22.45-18.21 15.92-11.45 32.79-20.95 41.86-26.06l1.23-.69c.27-.15.43-.24.47-.27.22-.13.49-.16.73-.08s.44.27.53.51l12.45 31.23c.15.38.02.82-.32 1.05-9.66 6.64-18.58 13.26-27.21 19.66-8.61 6.38-17.5 12.97-27.14 19.6l-40.38 54.85c-.18.23-.45.35-.71.35z"/><path d="m766.94 308.44-10.49-41.75-.65-3.14c-.64.09-1.3.2-1.98.32-7.61 1.31-18.03 4.07-29.1 10.22-7.73 4.29-32.24 30.74-32.24 30.74s18 31 28.32 37.86c0 0 6.13-3.2 17.29-12.24 11.16-9.03 28.85-22.01 28.85-22.01z"/><path class="st0" d="m696.18 570.96-39.41 30.97-21.23-27.01 35.74-28.1z"/><path d="M656.77 602.93c-.3 0-.59-.13-.79-.38l-21.23-27.01c-.16-.21-.24-.47-.21-.74.03-.26.17-.5.38-.67l35.75-28.09c.39-.31.95-.28 1.31.07l24.9 24.13c.21.2.32.48.3.77a.98.98 0 0 1-.38.73l-39.42 30.98c-.18.14-.4.21-.61.21zm-19.83-27.85 19.99 25.44 37.73-29.65-23.45-22.73-34.27 26.94z"/><path class="st0" d="M622.21 570.74a.18.18 0 0 0-.14.21l10.97 38.25 2.35 8.17c.01.04.04.08.08.1l32.6 18.69c.08.05.19.02.23-.06l2.03-3.55c.29-.5.53-1.03.74-1.55 1.4-3.69.72-7.9-1.87-10.98-2.54-3.01-5.09-6.01-7.63-9.02-2.06-2.44-1.97-6.2.7-8.57 4.02-3.57 4.83-9.61 1.46-13.81-.18-.22-.36-.44-.53-.67a13.887 13.887 0 0 0-12.53-5.09l-3.24.4a3.978 3.978 0 0 1-4.41-3.26c-.18-.98.08-1.99.58-2.86l3.74-6.52c.58-1.01.4-2.33-.5-3.07-.01 0-.02-.01-.02-.02-2.67-2.16-6.79-.76-13.07.79-1.64.4-3.74.9-6.24 1.41-1.62.34-3.39.68-5.3 1.01z"/><path d="M668.15 637.15c-.19 0-.38-.05-.56-.15l-32.6-18.69c-.25-.14-.45-.39-.53-.68l-13.32-46.41c-.09-.31-.04-.64.13-.91s.45-.46.76-.51c1.83-.32 3.6-.66 5.27-1 2.63-.54 4.8-1.06 6.21-1.4.69-.17 1.36-.34 2.01-.5 5.31-1.35 9.14-2.32 11.89-.1.03.02.05.05.08.07 1.21 1.04 1.49 2.81.67 4.24l-3.74 6.52c-.42.74-.59 1.52-.47 2.21.29 1.59 1.76 2.68 3.35 2.48l3.24-.4c5.14-.64 10.15 1.4 13.39 5.44l.54.67c3.6 4.49 2.91 11.13-1.58 15.12-2.15 1.91-2.41 5.09-.6 7.24l7.63 9.02c2.79 3.32 3.57 7.9 2.04 11.94-.25.62-.51 1.18-.8 1.68l-2.03 3.55c-.15.26-.39.45-.68.53-.1.02-.2.04-.3.04zm-.68-1.52zm-31.25-18.82 31.64 18.14 1.64-2.87c.24-.43.47-.91.68-1.43 1.29-3.38.63-7.23-1.71-10.01l-7.63-9.02c-2.49-2.95-2.14-7.29.79-9.9 3.72-3.31 4.32-8.8 1.35-12.49l-.54-.67c-2.82-3.52-7.18-5.29-11.66-4.74l-3.24.4c-2.59.33-5-1.45-5.47-4.04-.2-1.13.04-2.37.69-3.5l3.74-6.52c.36-.63.24-1.43-.28-1.86-.02-.02-.04-.03-.06-.05-2-1.58-5.26-.75-10.17.5-.65.16-1.32.33-2.02.51-1.42.35-3.62.87-6.28 1.42-1.42.29-2.92.58-4.46.86l12.99 45.27zm.08.29.01.02c0-.01-.01-.01-.01-.02zm-.37-.45.02.01s-.01-.01-.02-.01zm-13.55-44.97s0 .01 0 0c0 .01 0 0 0 0zm-.17-.94z"/><path d="m622.02 570.78 11.02 38.43 2.37 8.24 5.34 3.06-13.25-50.78c-1.66.35-3.49.7-5.48 1.05z"/><path d="m633.04 609.21 2.37 8.24 32.8 18.8 2.12-3.69c.29-.5.53-1.03.74-1.55l-38.03-21.8z"/><path class="st0" d="M658.89 606.87c.05-.02.1-.04.15-.07.22-.16.27-.47.11-.69-.06-.08-6.18-8.2-17.05-2.33a.495.495 0 0 0 .47.87c10.09-5.44 15.54 1.73 15.77 2.04.13.18.35.24.55.18z"/><path d="M658.74 607.85c-.45 0-.89-.21-1.17-.59-.21-.29-5.16-6.84-14.55-1.77-.33.18-.72.23-1.09.12-.38-.11-.69-.36-.87-.71-.18-.34-.23-.73-.11-1.11.11-.37.36-.68.7-.86 11.61-6.27 18.21 2.52 18.27 2.61.47.64.33 1.55-.31 2.03-.13.1-.28.17-.44.22-.15.04-.29.06-.43.06zm-16.19-3.24s0 .01 0 0c0 .01 0 0 0 0zm-.44-.8s-.01 0-.01.01l.01-.01z"/><path class="st0" d="m784.94 589.35 4.26 42.09-30.19 3.05-3.86-38.17z"/><path d="M759.01 635.44c-.22 0-.43-.08-.6-.21a.908.908 0 0 1-.34-.64l-3.86-38.17c-.05-.47.26-.91.73-1.02l29.79-6.97a.94.94 0 0 1 1.16.83l4.26 42.08c.05.52-.33.99-.85 1.04l-30.19 3.06h-.1zm-2.83-38.38 3.68 36.39 28.3-2.87-4.06-40.06-27.92 6.54z"/><path class="st0" d="m749.62 647.62 79.99-.52-.04-5.52a63.95 63.95 0 0 0-5.54-3.64c-8.26-4.84-13.42-5.34-19.36-8.15-3.74-1.77-8.76-4.92-13.86-10.94-.03 0-4.5.16-4.53.16h-.05c-2.8.1-5.39 1.58-6.88 3.95l-1.98 3.14a3.67 3.67 0 0 1-4.13 1.57 3.641 3.641 0 0 1-2.42-2.23c-1.3-3.39-4.57-5.63-8.19-5.6h-.26c-.63.02-5.5 1.18-6.13 1.2l-4.44 21.05-2.18 5.53z"/><path d="M749.62 648.57c-.31 0-.61-.15-.78-.41a.924.924 0 0 1-.1-.88l2.14-5.46 4.42-20.97a.94.94 0 0 1 .9-.75c.28-.02 1.8-.34 2.9-.58 1.97-.42 2.87-.61 3.23-.62h.28c4.01-.01 7.65 2.47 9.09 6.21.31.82.96 1.42 1.79 1.65 1.16.34 2.42-.14 3.07-1.17l1.99-3.14a9.411 9.411 0 0 1 7.65-4.39c.12 0 1.24-.04 2.34-.08l2.27-.08c.28 0 .54.12.72.34 4.02 4.75 8.58 8.35 13.54 10.7 2.23 1.06 4.37 1.78 6.62 2.55 3.58 1.22 7.64 2.61 12.81 5.63a62.67 62.67 0 0 1 5.62 3.7c.24.18.38.46.39.76l.04 5.52c0 .52-.42.95-.94.96l-79.99.51zm7.4-26.69-4.3 20.4c-.01.05-.03.1-.05.15l-1.66 4.22 77.64-.5-.03-4.09a63.103 63.103 0 0 0-5.07-3.31c-5-2.93-8.8-4.22-12.47-5.47-2.31-.79-4.49-1.53-6.82-2.64-5.09-2.41-9.76-6.05-13.88-10.84-.42.01-1.1.04-1.78.06l-2.33.08c-2.51.09-4.8 1.4-6.12 3.51l-1.99 3.14a4.652 4.652 0 0 1-5.2 1.98 4.621 4.621 0 0 1-3.05-2.81 7.792 7.792 0 0 0-7.25-4.99h-.31c-.25.02-1.77.34-2.87.58-1.14.27-1.93.43-2.46.53z"/><path d="m749.62 647.62 79.99-.52-.04-5.52-77.78.51z"/><path class="st0" d="M787.48 637.48c.15 0 .28-.09.34-.24.14-.36 3.6-8.66 13.39-7.88.22.02.39-.14.41-.35a.38.38 0 0 0-.35-.41c-10.38-.85-14.12 8.27-14.16 8.36-.08.19.02.42.21.49.05.02.11.03.16.03z"/><path d="M787.47 638.43c-.17 0-.33-.03-.49-.09a1.335 1.335 0 0 1-.75-1.73c.04-.1 4.07-9.84 15.12-8.96a1.335 1.335 0 0 1 .75 2.35c-.27.23-.62.34-.98.3-9.11-.75-12.28 6.96-12.42 7.29-.2.49-.67.82-1.19.83-.01.01-.03.01-.04.01zm.01-.95zm13.72-7.94zm.07-1.13h.02-.02z"/><path class="st0" d="m785.55 413.59-2.15 89.9-87.26 89.1-46.65-38.02 68.37-71.68-5.01-108.47c0-.01 50.09-7.05 72.7 39.17z"/><path d="M696.14 593.58c-.22 0-.45-.07-.63-.22l-46.65-38.02a.998.998 0 0 1-.1-1.46l68.08-71.37-4.99-108.04c-.02-.52.35-.96.86-1.04.52-.07 12.9-1.74 28.26 2.28 14.21 3.72 33.63 13.23 45.47 37.45.07.14.11.3.1.46l-2.15 89.9c-.01.25-.11.49-.29.68l-87.26 89.1a1 1 0 0 1-.7.28zm-45.18-39.11 45.11 36.76 86.35-88.16 2.14-89.26c-20.43-41.43-63.84-39.14-70.65-38.51l4.96 107.53c.01.27-.09.54-.28.74l-67.63 70.9z"/><path class="st0" d="M737.1 606.49s62-3.19 60.94-4.57c2.11-8.87.42-101.31.3-103.33-.57-9.17-5.47-87.62-5.55-88.88-.83-13.19-1.64-26.37-2.47-39.56-.51-4.23-2.43-15.22-11.39-23.2-13.79-12.28-36.39-10.4-49.98.37-6.94 5.49-11.68 13.43-13.78 22.36a45.88 45.88 0 0 0-.61 3.1c-1.76 10.81.25 22.77 6.74 33.51 1.58 8.81 3.1 17.28 4.6 25.61.19 1.05 9.98 55.62 10.19 56.78-1.95 8 3.24 108.67 1.01 117.81z"/><path d="M737.1 607.5c-.3 0-.58-.13-.77-.36-.2-.24-.28-.57-.2-.88 1.12-4.59.26-34.99-.5-61.8-.75-26.3-1.46-51.16-.55-55.79-.23-1.26-1.43-7.98-2.94-16.38-2.96-16.52-7.09-39.52-7.21-40.2-1.4-7.76-2.81-15.64-4.28-23.81l-.29-1.61c-6.25-10.41-8.66-22.49-6.78-34.03.16-1.02.37-2.09.62-3.17 2.19-9.3 7.21-17.44 14.13-22.92 13.14-10.42 36.47-13.51 51.27-.33 8.63 7.68 11.04 18.22 11.71 23.82l2.48 39.61c.09 1.42 5.02 80.33 5.55 88.88.05.81 1.81 93.64-.29 103.48-.01.14-.04.27-.09.39-.37.79-.66 1.42-31.56 3.36-14.99.94-30.09 1.72-30.24 1.73-.03.01-.04.01-.06.01zm18.23-268.03c-9.54 0-19.04 3.32-25.76 8.65-6.57 5.2-11.34 12.94-13.42 21.8-.24 1.03-.44 2.05-.6 3.03-1.81 11.13.54 22.79 6.61 32.83a1 1 0 0 1 .13.34l.32 1.79c1.47 8.17 2.88 16.05 4.28 23.81.12.68 4.25 23.68 7.21 40.2 1.63 9.06 2.9 16.17 2.97 16.58.02.14.02.28-.01.41-.91 3.73-.17 30.04.56 55.47.78 27.55 1.53 53.68.66 61.03 22.22-1.15 54.59-3.12 58.87-4.16 1.99-11.07.24-101.82.19-102.62-.53-8.55-5.46-87.45-5.55-88.87l-2.47-39.56c-.63-5.26-2.92-15.27-11.05-22.51-6.5-5.75-14.73-8.22-22.94-8.22z"/><path d="M699.64 381.05c7.13 3 17.59 2.88 28.33 7.5 17.29 7.43 32.15 7.43 44.6 7.43 12.46 0 25.72-7.15 31.47-9.93.69-40.95.37-99.27-6.54-120.2-1.77-5.35-15.88-25.8-37.18-19.95-20.36 5.6-33.16 18.54-38.26 24.33l-4.95 24.49c-5.83 28.78-11.66 57.55-17.47 86.33zM789.34 206.06c1.58-8.9-4.11-14.62-4.88-16.09-3.54-6.74-19.18-7.93-28.28-2.27-5.43 3.37-11.62 11.65-11.28 17.11.8 12.81 11.78 13.6 16.29 25.46 5.77-10.11 22.38-14.09 28.15-24.21z"/><path class="st0" d="M781.15 251.43s-.28 9.47-5.27 10.46-13.55-5.01-21.33-10.75c3.06-10.41 6.12-20.83 9.19-31.24 1.59.62 3.26 1.23 5 1.82 2.04.69 4.02 1.29 5.91 1.82l.9 2.79c.49 1.49.97 2.99 1.45 4.47 1.05 3.28 4.15 20.63 4.15 20.63z"/><path d="M774.75 262.99c-5.34 0-13.17-5.43-20.79-11.05-.34-.25-.48-.68-.37-1.09l9.19-31.24a1.012 1.012 0 0 1 1.32-.65c1.78.69 3.41 1.28 4.96 1.81 1.9.64 3.87 1.25 5.86 1.8.32.09.58.33.68.65.3.93.6 1.86.9 2.8.39 1.19.78 2.4 1.17 3.6l.28.87c1.06 3.31 4.05 20.05 4.18 20.76.01.07.02.14.02.21-.01.42-.37 10.27-6.07 11.41-.43.08-.87.12-1.33.12zm-19.04-12.24c5.9 4.35 15.23 11.1 19.97 10.16 3.4-.68 4.37-6.92 4.46-9.41-.26-1.45-3.12-17.34-4.1-20.39l-.28-.86-1.17-3.6c-.24-.77-.49-1.53-.73-2.29-1.85-.52-3.68-1.09-5.45-1.69-1.29-.44-2.61-.91-4.03-1.45l-8.67 29.53z"/><path class="st0" d="M775.54 233.53c3.08.18 6.31.38 8.94-1.92 2.71-2.36 4.32-5.83 5.08-11.72.78-6.01.23-8.53-1.37-14.12s-7.04-12.32-7.32-12.49c-.97-.6-2.12 1.13-4.45 2.44-4.56 2.57-8.83 4.63-9.48 10.48-1.29 11.74-11.14 1.05-6.2 13.83.75 1.93 1.17 3.57 1.71 4.9l13.09 8.6z"/><path d="M778.08 234.63c-.88 0-1.76-.05-2.6-.1-.55-.03-.97-.51-.94-1.06.03-.55.51-.97 1.06-.94 3.04.18 5.9.35 8.22-1.68 2.58-2.26 4.05-5.68 4.75-11.09.75-5.73.29-8.04-1.34-13.72-1.36-4.74-5.82-10.67-6.87-11.86-.26.12-.75.5-1.13.79-.61.48-1.38 1.07-2.33 1.61l-.76.43c-4.28 2.39-7.66 4.28-8.21 9.29-.7 6.35-3.88 6.95-5.98 7.35-.82.16-1.33.27-1.48.54-.2.37-.32 1.56 1.19 5.47.39 1.02.7 1.96.97 2.79.26.79.48 1.48.73 2.1a.998.998 0 1 1-1.85.75c-.28-.68-.52-1.43-.78-2.23-.28-.85-.56-1.72-.93-2.69-1.47-3.81-1.79-5.89-1.08-7.17.62-1.11 1.81-1.34 2.85-1.53 1.88-.36 3.82-.73 4.36-5.6.67-6.04 4.82-8.36 9.22-10.82l.76-.42c.82-.46 1.49-.98 2.08-1.44 1.08-.84 2.2-1.72 3.39-.98.57.35 6.12 7.37 7.76 13.07 1.68 5.86 2.2 8.45 1.4 14.53-.77 5.93-2.44 9.74-5.42 12.34-2.13 1.88-4.62 2.27-7.04 2.27z"/><path class="st0" d="M762.44 221.14c-7.38 1.48-9.95-4.37-7-8 3.43-4.22 8.42-.45 8.42-.45l-1.42 8.45z"/><path d="M760.23 222.37c-2.76 0-4.98-1.07-6.17-3.04-1.28-2.12-1.04-4.79.61-6.82 3.2-3.94 7.81-2.12 9.8-.62.44.33.53.96.2 1.4-.33.44-.96.53-1.4.2-.19-.14-4.28-3.13-7.05.28-1.11 1.36-1.28 3.14-.45 4.53 1.07 1.76 3.48 2.46 6.47 1.86a.997.997 0 0 1 1.18.78c.11.54-.24 1.07-.78 1.18-.84.16-1.64.25-2.41.25z"/><path class="st0" d="m805.34 581.05-77.84 6.2 5.99 20.87 68.89-3.62z"/><path d="M733.49 609.12c-.44 0-.84-.29-.96-.72l-5.99-20.88a1.003 1.003 0 0 1 .88-1.27l77.84-6.19a1.005 1.005 0 0 1 1.07 1.13l-2.96 23.44c-.06.48-.46.85-.94.87l-68.89 3.63c-.02-.01-.04-.01-.05-.01zm-4.7-20.97 5.43 18.94 67.26-3.54 2.7-21.39-75.39 5.99z"/><path class="st0" d="M657.27 537.49c18.59 15.93 37.18 31.86 55.77 47.8l-17.19 7.44c-15.4-12.58-30.8-25.17-46.2-37.75 2.54-5.84 5.08-11.66 7.62-17.49z"/><path d="M695.85 593.72c-.23 0-.45-.08-.63-.23l-46.2-37.75a.986.986 0 0 1-.28-1.17l7.62-17.48c.13-.29.38-.5.69-.58.31-.07.63.01.87.21l55.77 47.8c.26.22.39.57.34.91-.05.34-.27.63-.59.77l-17.19 7.44c-.13.06-.27.08-.4.08zm-44.98-39.04 45.14 36.89 15.16-6.56-53.53-45.88-6.77 15.55z"/><path class="st0" d="M762.24 309.99c1.58 13.69 7.7 28.66 9.28 42.35 23.15-3.18 47.33-7.91 70.47-11.09 1.11 10.11.07 14.16 1.18 24.27-26.96 9.15-48.19 15.95-64.95 19.49-24.34 5.14-25.99 4.3-33.53-6.56-7.54-10.86-24.13-47.85-25.39-60.06-1.39-13.37 6.48-25.98 19.09-30.63.22-.08.45-.17.67-.25 12.8-4.73 21.62 8.92 23.18 22.48z"/><path d="M758.8 389.04c-7.12 0-9.99-2.92-14.93-10.02-7.49-10.79-24.27-47.98-25.57-60.53a30.398 30.398 0 0 1 19.74-31.67l.67-.25c4.47-1.65 8.88-1.27 12.74 1.1 6.03 3.71 10.65 12.42 11.78 22.2.78 6.77 2.73 14.02 4.61 21.03 1.81 6.73 3.68 13.69 4.54 20.3 11.25-1.57 22.91-3.52 34.2-5.4 11.64-1.95 23.68-3.96 35.26-5.55a.999.999 0 0 1 1.13.88c.56 5.11.58 8.74.6 12.24.02 3.45.03 7.02.58 12.03.05.47-.23.91-.67 1.06-27.85 9.45-48.45 16.02-65.06 19.52-9.16 1.94-15.2 3.06-19.62 3.06zm-14.66-101.49c-1.53 0-3.11.3-4.73.9l-.67.25c-12.2 4.5-19.78 16.67-18.44 29.59 1.28 12.32 17.82 48.95 25.22 59.59 7.22 10.39 8.57 11.21 32.5 6.15 16.36-3.46 36.67-9.91 64.08-19.2-.48-4.69-.5-8.12-.51-11.44-.02-3.21-.03-6.53-.48-11.01-11.24 1.57-22.9 3.52-34.18 5.4-11.64 1.95-23.68 3.96-35.26 5.55a1.001 1.001 0 0 1-1.13-.88c-.78-6.77-2.73-14.02-4.61-21.03-1.9-7.08-3.87-14.4-4.67-21.32-1.06-9.2-5.32-17.33-10.84-20.73-2-1.21-4.09-1.82-6.28-1.82z"/><path d="M729.43 263.08c-1.54.56-6.15 3.12-11.11 10.34-6.56 9.55-5.6 19.19-4.6 36.87.49 8.56.31 20.81-2.94 35.89 6.63 1.27 16.48 2.27 27.99.14 21.55-3.98 35.43-16.4 40.93-21.95l-9.33-21.91s-13.63-49.33-40.94-39.38zM668.5 422.23l-30.81-21.81a5.498 5.498 0 0 1-1.31-7.67 5.498 5.498 0 0 1 7.67-1.31l30.81 21.81a5.498 5.498 0 0 1 1.31 7.67c-1.75 2.48-5.19 3.06-7.67 1.31z"/><path class="st0" d="M668.18 399.88c-.89 5.79-2.65 6.59-2.04 9.76.56 2.95 2.92 5.51 4.06 5.19.97-.27.38-2.43 1.34-5.34 1.83-5.53 6.48-5.26 7.95-10.2.81-2.7.42-6.13-1.52-8.61-1.24-1.58-2.79-2.37-3.75-2.75l-6.04 11.95z"/><path d="M670 415.73c-.34 0-.78-.1-1.3-.42-1.34-.83-2.94-2.99-3.42-5.51-.38-1.97.07-3.19.63-4.74.45-1.24 1.01-2.78 1.4-5.32.07-.48.53-.81 1-.73.48.07.81.52.73 1-.42 2.71-1.01 4.34-1.49 5.65-.54 1.49-.84 2.32-.56 3.81.47 2.46 2.21 4.25 2.87 4.48.07-.25.11-.72.15-1.12.09-.92.21-2.18.69-3.61 1.02-3.07 2.87-4.52 4.5-5.81 1.51-1.19 2.81-2.21 3.45-4.37.8-2.67.26-5.74-1.37-7.82-.85-1.08-1.99-1.92-3.38-2.47a.877.877 0 1 1 .65-1.63c1.66.66 3.08 1.71 4.11 3.02 1.97 2.51 2.63 6.21 1.67 9.4-.8 2.69-2.45 3.99-4.05 5.24-1.58 1.24-3.06 2.41-3.92 4.98-.41 1.24-.52 2.34-.6 3.23-.12 1.22-.23 2.37-1.33 2.68-.11.04-.26.06-.43.06z"/><path class="st0" d="M648.89 407.35s6.45-7.36 6.3-10.57-4.11-1.86-4.11-1.86-7.11 10.8-7.1 12.59c.01 1.79 2.79 2.45 4.91-.16z"/><path d="M645.81 409.96c-.39 0-.74-.06-1.04-.17-1.02-.36-1.66-1.23-1.66-2.28-.01-1.91 5.54-10.49 7.25-13.08.11-.16.27-.29.45-.35.25-.09 2.52-.82 4.04.22.52.36 1.16 1.07 1.22 2.44.16 3.45-5.77 10.34-6.51 11.18-1.23 1.51-2.63 2.04-3.75 2.04zm5.83-14.29c-3.32 5.06-6.72 10.8-6.78 11.84 0 .38.27.55.49.63.69.24 1.83-.08 2.85-1.33.01-.01.01-.02.02-.03 2.4-2.74 6.18-7.87 6.09-9.95-.04-.78-.35-.99-.46-1.06-.53-.39-1.58-.26-2.21-.1z"/><path class="st0" d="M651.95 413.65s6.42-8.77 6.27-11.98c-.15-3.21-3.23-3.09-4.11-1.86-.87 1.23-7.29 10.1-7.28 11.9s3.01 4.55 5.12 1.94z"/><path d="M649.96 415.59c-.37 0-.74-.07-1.12-.2-1.56-.55-2.88-2.24-2.88-3.7 0-.54-.01-1.98 7.25-12.14l.19-.27c.68-.96 2.14-1.41 3.4-1.04.66.19 2.19.91 2.3 3.37.16 3.42-5.76 11.62-6.44 12.54-.01.01-.02.02-.03.04-.74.92-1.67 1.4-2.67 1.4zm5.92-15.71c-.45 0-.88.19-1.05.43l-.2.27c-6.53 9.14-6.91 10.86-6.92 11.11 0 .65.77 1.71 1.71 2.05.69.24 1.28.03 1.83-.63 2.41-3.3 6.18-9.29 6.09-11.4-.03-.67-.24-1.53-1.04-1.77-.14-.04-.28-.06-.42-.06zm-3.93 13.77z"/><path class="st0" d="M656.6 419.88s4.33-6.24 6.3-10.57c1.33-2.93.3-7.48-4.11-1.86-7.38 9.42-8.15 11.17-7.1 12.59s2.79 2.45 4.91-.16z"/><path d="M654.01 422.37h-.07c-1.08-.02-2.1-.65-2.96-1.81-1.48-2-.41-4.04 7.12-13.65 2.05-2.61 3.75-3.53 5.07-2.74 1.47.89 1.42 3.55.53 5.5-1.98 4.36-6.2 10.45-6.38 10.71-.01.02-.03.04-.04.05-1.04 1.29-2.14 1.94-3.27 1.94zm8.17-16.71c-.27 0-1.15.35-2.7 2.33-6.92 8.83-7.75 10.63-7.09 11.53.36.49.93 1.08 1.59 1.1.72 0 1.43-.67 1.91-1.26.31-.45 4.36-6.34 6.21-10.41.68-1.5.51-3.07.16-3.28-.02-.01-.04-.01-.08-.01zm-5.58 14.22zM784.89 217.43a1.002 1.002 0 0 1-.45-1.9c1.65-.82 1.72-1.66 1.74-1.93.16-1.94-2.85-4.6-3.92-5.37a.995.995 0 0 1-.22-1.4c.32-.45.95-.55 1.4-.22.52.37 5.03 3.74 4.74 7.16-.12 1.49-1.08 2.69-2.85 3.56-.14.07-.29.1-.44.1zM759.05 582.72c-.22 0-.45-.08-.64-.23-13.52-11.22-15.86-48.25-15.95-49.82-.03-.55.39-1.02.94-1.06.55-.03 1.02.39 1.06.94.02.38 2.38 37.73 15.23 48.39.42.35.48.98.13 1.41a.97.97 0 0 1-.77.37zM785.02 583.67c-.12 0-.24-.02-.36-.07-.52-.2-.77-.78-.58-1.29 6.67-17.37-4.46-83.52-4.57-84.19a.997.997 0 0 1 .82-1.15c.55-.08 1.06.27 1.15.82.47 2.74 11.34 67.37 4.47 85.24a.99.99 0 0 1-.93.64zM772.12 583.67c-.55 0-1-.45-1-1v-6.54c0-.55.45-1 1-1s1 .45 1 1v6.54c0 .55-.44 1-1 1zM720.49 499.84c-.47 0-.89-.33-.98-.82l-3-16a1.003 1.003 0 0 1 1.97-.37l3 16a1 1 0 0 1-.8 1.17c-.07.02-.13.02-.19.02z"/><path d="M734.46 493.75a.96.96 0 0 1-.51-.14l-16.61-9.87c-.47-.28-.63-.9-.35-1.37.28-.47.9-.63 1.37-.35l16.61 9.87c.47.28.63.9.35 1.37a.98.98 0 0 1-.86.49z"/><path d="M717.86 483.88c-.45 0-.86-.31-.97-.77-.13-.54.2-1.08.74-1.2l9.64-2.29a.998.998 0 0 1 1.2.74c.13.54-.2 1.08-.74 1.2l-9.64 2.29a.97.97 0 0 1-.23.03zM671.28 547.82c-.18 0-.37-.05-.53-.15-.47-.29-.61-.91-.32-1.38.49-.79 12.22-19.36 22.71-25.15.48-.27 1.09-.09 1.36.39s.09 1.09-.39 1.36c-10.03 5.54-21.86 24.27-21.98 24.46-.19.31-.51.47-.85.47zM682.93 558.87c-.19 0-.38-.05-.54-.16a.99.99 0 0 1-.29-1.38c.24-.37 5.95-9.05 19.53-18.73a.994.994 0 0 1 1.39.23c.32.45.22 1.07-.23 1.39-13.24 9.43-18.96 18.1-19.01 18.19-.2.3-.52.46-.85.46zM695.05 568.28c-.43 0-.82-.27-.95-.7a.992.992 0 0 1 .65-1.25c11.25-3.54 38.49-37.06 38.76-37.39a1.002 1.002 0 1 1 1.56 1.26c-1.13 1.4-27.9 34.32-39.72 38.04-.1.03-.2.04-.3.04zM819.54 353.9c-.42 0-.81-.27-.95-.69-.17-.53.12-1.09.64-1.26 2.76-.9 6.91-2.78 7.49-4.15.22-.51.8-.75 1.31-.53s.75.8.53 1.31c-1.14 2.69-7.46 4.87-8.71 5.27-.11.04-.21.05-.31.05zM751.85 363.51a1.002 1.002 0 0 1-.84-1.54l3.69-5.76c.3-.47.92-.6 1.38-.3.46.3.6.92.3 1.38l-3.69 5.76c-.18.3-.51.46-.84.46z"/><path class="st0" d="M754.24 201.53a.75.75 0 0 1-.74-.63c-.01-.05-.83-5.48 5.4-8.43 1.19-.56 2.87-.55 4.63-.55 2.19.01 4.45.02 5.54-1.06.5-.49.74-1.21.74-2.2 0-.41.34-.75.75-.75s.75.34.75.75c0 1.39-.4 2.49-1.18 3.26-1.53 1.52-4.1 1.51-6.6 1.5-1.6-.01-3.1-.02-3.98.4-5.17 2.44-4.58 6.65-4.56 6.83.06.41-.21.79-.62.86-.05.01-.09.02-.13.02z"/><path d="m625.08 486.16 40.78-69.2-4.37-3.12-40 67zM605.03 471.93l40.03-66.32-4.37-3.12-40 67z"/><path class="st0" d="M767.85 335.24c-.33 0-.65-.16-.84-.46-.3-.46-.16-1.08.3-1.38 5.37-3.45 6.21-5.03 6.33-5.39l-13.27-27.38c-.24-.5-.03-1.1.46-1.34.5-.24 1.1-.03 1.34.46l13.36 27.57c.6 1.01-.11 3.25-7.14 7.76-.17.11-.35.16-.54.16zm5.86-7.11c.02.04.04.09.07.14l-.07-.14zm-.04-.21zM742.01 278.6c-.38 0-.74-.22-.91-.58-.05-.1-4.81-10.21-12.66-11.47-.54-.09-.92-.6-.83-1.15s.6-.92 1.15-.83c8.91 1.44 13.95 12.15 14.16 12.61.23.5.01 1.09-.49 1.33-.14.06-.28.09-.42.09zM723.68 349.21c-5.75 0-12.8-1.97-13.16-2.07a.997.997 0 1 1 .54-1.92c.1.03 10.39 2.91 15.74 1.71a.996.996 0 0 1 1.19.76.996.996 0 0 1-.76 1.19c-1.05.23-2.27.33-3.55.33zM712.63 336.8a1 1 0 0 1-.87-1.49c5.75-10.15.38-43.97.32-44.31a1.004 1.004 0 0 1 1.98-.32c.23 1.42 5.53 34.85-.56 45.61-.18.33-.52.51-.87.51zM785.02 331.95a.996.996 0 0 1-.73-1.68c9.36-9.85 9.08-41.04 9.08-41.35a.997.997 0 0 1 .99-1.01h.01a1 1 0 0 1 1 .99c.02 1.31.29 32.32-9.63 42.75-.19.19-.45.3-.72.3z"/><g id="Layer_11"><path class="st0" d="M831.5 343.08c4.58-2.03 10.02-5.33 16.25-7.05 6.4-1.76 12.27-2.8 17.34-3.4 1.26 1.47 3.3 4.26 4.27 8.29 1.61 6.71-.87 12.18-1.7 13.83-8.86 3.65-17.71 7.3-26.57 10.96l-9.59-22.63z"/><path d="M841.1 366.7c-.39 0-.77-.23-.92-.62-.21-.51.03-1.1.54-1.31l26.22-10.81c1.2-2.5 2.8-7.23 1.46-12.81-.65-2.69-1.93-5.27-3.72-7.46-5.61.69-11.21 1.8-16.66 3.3-4.26 1.18-8.22 3.15-11.71 4.89-1.55.77-3.01 1.5-4.41 2.12a1 1 0 1 1-.81-1.83c1.36-.6 2.8-1.32 4.32-2.08 3.57-1.78 7.62-3.8 12.07-5.02 5.72-1.58 11.6-2.73 17.49-3.43.34-.04.66.09.88.34 2.17 2.53 3.72 5.54 4.49 8.71 1.55 6.46-.45 11.86-1.78 14.51-.11.21-.29.38-.51.48l-26.57 10.96c-.12.04-.25.06-.38.06z"/><path class="st0" d="m861 338.49-7.28-3.94c1.34-.21 8.68-1.81 10.05-2.01 7.69-1.14 15.16-1.99 22.4-2.61.45.36.95.9.93 1.52-.02.81-.91 1.76-4.01 2.87-5.66 2.03-17.01 3.69-21.57 4.3l-.52-.13z"/><path d="M863.01 339.41a1 1 0 0 1-.13-1.99c6.29-.85 14.84-2.23 19.88-4.04 3.28-1.18 3.34-1.94 3.34-1.95 0-.02 0-.18-.28-.46-7.3.63-14.67 1.49-21.91 2.57-.69.1-3.17.62-5.36 1.07-2.07.43-4.02.83-4.68.94a.998.998 0 0 1-1.15-.83.998.998 0 0 1 .83-1.15c.61-.1 2.63-.52 4.59-.92 2.32-.48 4.72-.98 5.47-1.09 7.43-1.1 14.99-1.98 22.46-2.62.25-.02.51.06.71.22.89.72 1.33 1.5 1.3 2.33-.04 1.47-1.48 2.64-4.67 3.78-5.21 1.87-13.91 3.28-20.29 4.14h-.11z"/><path class="st0" d="M863.01 338.41s12.16.13 16.27 3.57c1.49 1.25 5.68 3.19 4.34 5.36-1.35 2.18-3.59 1.82-3.59 1.82s2.41 4.14-.98 4.79c0 0-6.12-3.11-11.97-3.44 0 0 10.72 3.11 12.26 5.71 1.53 2.6-15.09 0-15.09 0l-1.24-17.81z"/><path d="M875.61 358.39c-2.7 0-6.55-.39-11.54-1.17a.994.994 0 0 1-.83-1.14c.08-.54.6-.92 1.14-.83 5.37.84 11.64 1.41 13.68 1.05-1.7-1.55-7.38-3.68-11.28-4.81-.49-.14-.79-.63-.71-1.13.08-.5.53-.86 1.04-.83 5.27.29 10.63 2.71 12.03 3.38.46-.15.56-.38.6-.46.33-.73-.27-2.21-.6-2.77-.19-.33-.18-.75.04-1.07.22-.32.6-.48.98-.42.06.01 1.62.2 2.58-1.36.5-.81-1.01-1.92-2.75-3.08-.52-.35-1.01-.68-1.38-.99-3.14-2.63-12.35-3.3-15.64-3.33-.55-.01-1-.46-.99-1.01a1 1 0 0 1 1-.99h.01c.51.01 12.56.17 16.9 3.8.29.24.74.54 1.21.86 1.83 1.23 4.89 3.28 3.33 5.8-.86 1.39-2.02 1.96-2.96 2.18.32.93.54 2.17.07 3.21-.26.58-.84 1.31-2.1 1.62.3.28.54.56.71.84.32.54.32 1.13-.01 1.61-.44.69-1.97 1.04-4.53 1.04z"/><path d="M867.92 343.77c-.23.77.39 1.25.39 1.25.42.11 4.2 1.1 6.52 2.02 2.45.97 4.32 1.98 5.27 2.85a.996.996 0 0 0 1.41-.07c.37-.41.34-1.04-.06-1.41-1.44-1.32-3.99-2.48-5.88-3.23-2.43-.96-6.32-1.98-6.76-2.1-.01.01-.66-.08-.89.69z"/></g></g></g></g></g><g id="elements"><circle cx="866.93" cy="300.19" r="1.62"/><circle cx="846.44" cy="446.73" r="1.62"/><circle cx="702.2" cy="615.52" r="1.62"/><circle cx="686.59" cy="428.49" r="1.62"/><g id="Layer_13"><circle cx="590.81" cy="425.43" r="1.44"/><circle cx="568.27" cy="284.48" r="1.44"/><circle cx="318.27" cy="202.99" r="1.44"/><circle cx="225.22" cy="411.75" r="1.44"/><circle cx="887.74" cy="572.89" r="1.44"/><circle cx="666.43" cy="220.74" r="1.44"/><circle cx="362" cy="624.05" r="1.44"/><circle cx="333.97" cy="476.83" r="1.44"/><path d="M853.72 488a.73.73 0 0 1-.65-1.06l4.57-9a.73.73 0 0 1 1.3.66l-4.57 9c-.12.26-.38.4-.65.4zM633.04 300.92c-.24 0-.48-.12-.62-.33l-5.5-8.52a.73.73 0 0 1 .22-1.01.73.73 0 0 1 1.01.22l5.5 8.52c.22.34.12.79-.22 1.01-.11.07-.25.11-.39.11zM600.69 626.42c-.13 0-.26-.04-.38-.11l-8.45-5.18a.73.73 0 0 1-.24-1 .73.73 0 0 1 1-.24l8.45 5.18c.34.21.45.66.24 1a.7.7 0 0 1-.62.35zM322.4 463.03c-.03 0-.06 0-.09-.01a.732.732 0 0 1-.63-.82l1.44-11.13a.732.732 0 0 1 1.45.19l-1.44 11.13c-.05.37-.37.64-.73.64z"/></g></g><g id="woman"><path class="st0" d="m445.68 333.25 1.57 23.39s39.82-4.74 47.74-6.27c5.2-1 2.71 21.81 2.71 21.81s-51.13 13.23-54.8 13.5c-3.68.27-22.27 2.02-21.99-15.83s12.13-39.43 24.77-36.6z"/><path d="M439.02 386.85c-4.23 0-10.39-.7-14.62-4.69-3.07-2.89-4.58-7.04-4.5-12.33.21-13.18 6.52-27.97 14.68-34.41 3.67-2.9 7.58-3.99 11.31-3.15.43.1.75.47.78.91l1.5 22.33c6.34-.76 39.55-4.77 46.62-6.13.83-.16 1.61.06 2.24.65 3.52 3.25 1.99 19.1 1.65 22.25-.04.41-.34.76-.74.86-2.09.54-51.26 13.26-54.98 13.53l-.24.02c-.83.06-2.13.16-3.7.16zm4.38-52.86c-2.5 0-5.04 1-7.57 3-7.74 6.1-13.72 20.23-13.92 32.87-.07 4.71 1.23 8.35 3.87 10.84 5.15 4.86 13.92 4.21 16.8 3.99l.25-.02c2.8-.2 36.12-8.68 53.95-13.3.7-6.96 1-17.95-1.09-19.88-.17-.15-.3-.2-.51-.16-7.86 1.51-46.18 6.08-47.81 6.28-.27.03-.55-.05-.76-.22-.21-.17-.34-.43-.36-.7l-1.52-22.61c-.44-.06-.88-.09-1.33-.09z"/><path class="st0" d="M496.32 372.18s21.56-1.28 26.39-2.01c1.73-.26 6.12.46 7.23-1.62.02-.04.41-.8.21-1.48-.79-2.62-9.83-2.16-14.12-1.82 5.53-.51 11.05-1.01 16.58-1.52.39-.16 1.78-.79 2.61-2.37.7-1.34.59-2.59.53-3.05 8.94-6.3-2.14-7.59-2.14-7.59 1.93-.29 4.01.38 3.28-4.45-.57-3.75-18.63-4.86-26.67-5.17-2.45-.09-4.89.44-7.08 1.54l-11.96 6-4.11 3.26 9.25 20.28z"/><path d="M496.32 373.05a.88.88 0 0 1-.06-1.76c.22-.01 21.58-1.29 26.31-2 .51-.08 1.16-.08 1.92-.08 1.63 0 4.1-.01 4.67-1.09.08-.15.22-.56.14-.81-.25-.82-3.31-1.99-13.21-1.2-.49.04-.9-.32-.94-.8-.04-.48.31-.91.79-.95l16.44-1.51c.49-.22 1.46-.78 2.05-1.92.54-1.03.5-2.02.44-2.52-.04-.32.1-.65.36-.83 2.18-1.54 3.31-2.92 3.08-3.79-.33-1.28-3.39-2.04-4.82-2.21-.44-.05-.77-.42-.78-.86s.31-.82.75-.88c.3-.05.61-.07.91-.09.77-.06 1.25-.11 1.48-.4.19-.24.46-.93.15-2.96-.19-1.28-5.85-3.66-25.83-4.42-2.29-.08-4.6.41-6.66 1.44l-11.88 5.96-4.04 3.2a.874.874 0 1 1-1.09-1.37l4.11-3.26c.05-.04.1-.07.15-.1l11.96-6c2.32-1.17 4.92-1.73 7.51-1.63 26.76 1.03 27.32 4.71 27.5 5.92.32 2.13.16 3.46-.51 4.31-.06.08-.13.16-.2.22 1.34.53 2.65 1.38 2.98 2.7.41 1.63-.69 3.38-3.36 5.36.03.77-.07 1.88-.67 3.03-.88 1.68-2.29 2.46-3.05 2.78a.76.76 0 0 1-.25.06l-3.74.34c1.38.53 1.85 1.23 2.04 1.87.31 1.02-.22 2.04-.28 2.15-1.06 2-4.04 2-6.22 2.01-.65 0-1.27 0-1.66.06-4.82.73-25.59 1.97-26.47 2.02.01.01 0 .01-.02.01z"/><path class="st0" d="M535.14 350.98c-3.31-.68-6.65-1.08-9.99-1.42-3.35-.31-6.7-.54-10.08-.49 3.31.68 6.65 1.08 9.99 1.42 3.35.3 6.7.53 10.08.49z"/><path d="M534.33 351.86c-3.32 0-6.57-.25-9.34-.5-3.01-.3-6.55-.7-10.09-1.43a.882.882 0 0 1-.7-.94.86.86 0 0 1 .86-.79c3.61-.05 7.17.22 10.17.5 3.01.3 6.56.7 10.09 1.43.44.09.74.5.7.94a.86.86 0 0 1-.86.79h-.83z"/><path class="st0" d="M536.16 357.75c-2.47-.48-4.96-.68-7.45-.82-2.49-.1-4.98-.14-7.49.11 2.47.48 4.96.68 7.45.82 2.49.1 4.99.13 7.49-.11z"/><path d="M531.99 358.81c-1.18 0-2.31-.04-3.36-.08-2.26-.12-4.93-.31-7.58-.83a.875.875 0 0 1 .08-1.73c2.69-.27 5.36-.21 7.62-.11 2.27.12 4.93.31 7.58.83a.875.875 0 0 1-.08 1.73c-1.44.14-2.88.19-4.26.19z"/><path class="st0" d="M516.36 366.05c.06.03.12.05.19.06.25.02.48-.16.5-.42 1.16-12.21-6.52-16.27-6.6-16.31a.46.46 0 0 0-.62.2c-.12.23-.03.49.2.62.3.15 7.2 3.84 6.1 15.39-.02.2.08.37.23.46z"/><path d="M516.59 366.99c-.04 0-.08 0-.13-.01-.19-.02-.38-.08-.54-.17-.45-.26-.71-.77-.67-1.29 1.05-11.04-5.55-14.49-5.62-14.53-.67-.38-.92-1.17-.59-1.81a1.34 1.34 0 0 1 1.8-.59c.07.03 8.3 4.38 7.08 17.17a1.33 1.33 0 0 1-1.33 1.23z"/><path class="st0" d="M497.4 364.52c3.68-6.77 7.48-14.79 10.89-24.01a183.44 183.44 0 0 0 7.91-28.16c6.55 3.61 13.1 7.22 19.65 10.82-2.21 8.24-4.96 17.1-8.38 26.43-3.25 8.87-6.7 17.02-10.16 24.43-6.63-3.17-13.27-6.34-19.91-9.51z"/><path d="M517.31 374.91c-.13 0-.26-.03-.38-.09l-19.92-9.51a.877.877 0 0 1-.46-.52.917.917 0 0 1 .06-.69c4.17-7.67 7.81-15.71 10.84-23.89 3.36-9.09 6-18.52 7.87-28.03a.877.877 0 0 1 1.29-.6l19.65 10.82c.35.19.53.61.42 1-2.39 8.91-5.22 17.83-8.4 26.5-3.03 8.27-6.46 16.51-10.18 24.5-.1.21-.28.38-.5.46a.88.88 0 0 1-.29.05zm-18.7-10.79 18.28 8.73a309.71 309.71 0 0 0 9.75-23.56c3.08-8.41 5.83-17.05 8.17-25.69l-18-9.91c-1.87 9.2-4.46 18.32-7.71 27.12-2.93 7.98-6.47 15.82-10.49 23.31z"/><path class="st0" d="M518.71 340.08c-1.95 4.78-3.03 8.83-2.42 9.05.62.22 2.7-3.48 4.65-8.25 1.95-4.78 3.03-8.83 2.42-9.05-.62-.22-2.7 3.47-4.65 8.25z"/><path d="M516.34 350.02c-.14 0-.25-.04-.34-.07-.27-.1-.5-.31-.62-.59-.68-1.53 1.76-7.75 2.52-9.62 3.85-9.43 5.23-8.93 5.75-8.75.27.1.5.31.62.59.68 1.53-1.75 7.75-2.52 9.62-3.2 7.85-4.7 8.82-5.41 8.82zm.66-1.31h.01-.01zm5.17-13.96c-.72 1.3-1.63 3.19-2.64 5.66-.99 2.42-1.64 4.38-2.04 5.79.72-1.3 1.63-3.18 2.64-5.66.99-2.43 1.64-4.38 2.04-5.79zm-3.46 5.33z"/><path class="st0" d="m520.43 337.78 6.22 7.81-.74 2.02-7.48-4.34z"/><path d="M525.91 348.49c-.15 0-.31-.04-.44-.12l-7.48-4.34a.867.867 0 0 1-.38-1.06l2-5.48c.11-.3.37-.51.68-.57.31-.05.63.07.83.32l6.22 7.81c.19.24.24.56.14.85l-.74 2.02c-.09.24-.28.44-.53.52-.1.03-.2.05-.3.05zm-6.4-5.61 5.94 3.45.21-.57-4.94-6.2-1.21 3.32z"/><path d="m520.7 337.89-9.59 1.43-.73 2.03 8.32 2.03z"/><path class="st0" d="m517.05 347.17 1.61 2.47-.29.73-2.12-1.24z"/><path d="M518.37 351.24c-.15 0-.31-.04-.44-.12l-2.12-1.23a.872.872 0 0 1-.37-1.09l.8-1.96c.12-.3.4-.51.73-.54.32-.04.64.12.82.39l1.62 2.47c.16.24.19.55.08.81l-.29.72c-.1.24-.29.42-.53.5-.11.04-.21.05-.3.05z"/><path class="st0" d="m517.13 347.2-2.97.83-.29.72 2.46.41z"/><path d="M516.33 350.04c-.05 0-.1 0-.14-.01l-2.46-.41a.88.88 0 0 1-.62-.44.881.881 0 0 1-.05-.76l.29-.72c.1-.25.31-.44.58-.51l2.96-.83c.32-.09.67.01.89.26.22.25.28.61.16.92l-.8 1.96c-.14.33-.46.54-.81.54z"/><path class="st0" d="M500.02 362.13c3.73-6.86 6.99-14.05 9.69-21.37 3-8.12 5.37-16.56 7.04-25.06l.11-.57 18.33 10.1-.09.32c-2.13 7.95-4.65 15.89-7.49 23.62a278.87 278.87 0 0 1-9.08 21.83l-.18.39-18.56-8.86.23-.4zm26.81-13.25c2.79-7.6 5.27-15.41 7.38-23.23l-16.74-9.22c-1.67 8.36-4.01 16.64-6.96 24.63a164.25 164.25 0 0 1-9.53 21.08l16.98 8.11c3.24-6.97 6.22-14.16 8.87-21.37z"/><path d="M518.37 372.27c-.13 0-.26-.03-.38-.09l-18.56-8.86a.877.877 0 0 1-.4-1.21l.21-.39a161.842 161.842 0 0 0 16.64-46.18l.11-.57a.877.877 0 0 1 1.29-.6l18.33 10.1c.35.19.53.61.42 1l-.09.32a280.71 280.71 0 0 1-7.51 23.69c-2.71 7.39-5.77 14.76-9.1 21.9l-.18.39c-.1.21-.28.38-.5.46-.08.02-.18.04-.28.04zm-16.18-10.52 15.35 7.33c3.08-6.7 5.93-13.59 8.47-20.5l.79.29-.79-.29c2.7-7.36 5.11-14.92 7.17-22.49l-15.09-8.31c-1.66 8-3.94 15.93-6.76 23.59-2.57 6.96-5.65 13.82-9.14 20.38z"/><path class="st0" d="M496.64 357.05c6.22-4.55 13.08-10.18 20.09-17.06 7.87-7.73 14.18-15.32 19.18-22.09 4.38 6.06 8.77 12.12 13.15 18.18-5.52 6.5-11.78 13.35-18.86 20.32a313.745 313.745 0 0 1-19.61 17.76c-4.65-5.71-9.3-11.41-13.95-17.11z"/><path d="M510.59 375.03h-.08a.895.895 0 0 1-.6-.32l-13.95-17.1a.888.888 0 0 1 .16-1.27c7.04-5.16 13.77-10.87 20-16.98 6.91-6.79 13.33-14.18 19.08-21.99.17-.22.43-.36.71-.36.28 0 .54.14.71.36l13.15 18.18c.24.33.22.77-.04 1.08-5.97 7.04-12.34 13.9-18.91 20.38a310.01 310.01 0 0 1-19.67 17.81.83.83 0 0 1-.56.21zm-12.69-17.82 12.81 15.7c6.5-5.43 12.85-11.2 18.88-17.14 6.37-6.28 12.55-12.92 18.36-19.74l-12.04-16.65a185.433 185.433 0 0 1-18.55 21.23 184.346 184.346 0 0 1-19.46 16.6z"/><path d="M526.35 344.04c-3.8 3.49-6.51 6.69-6.05 7.15.46.46 3.92-1.99 7.73-5.48 3.8-3.49 6.51-6.69 6.05-7.15-.47-.46-3.93 2-7.73 5.48z"/><path d="m528.88 342.7 2.29 9.72-1.53 1.51-4.91-7.12z"/><path d="m529.08 342.92-9.28-2.8-1.53 1.51 6.66 5.39zM521.81 349.75l.41 2.92-.58.53-1.39-2.02z"/><path d="m521.87 349.81-3.03-.52-.58.53 2.05 1.42z"/><path class="st0" d="m499.67 356.27.36-.26c6.3-4.61 12.32-9.72 17.88-15.18 6.18-6.07 11.93-12.68 17.07-19.66l.34-.47 12.27 16.96-.21.25a275.566 275.566 0 0 1-16.85 18.16A280.293 280.293 0 0 1 513 371.94l-.33.27-13-15.94zm35.65-34.14a164.985 164.985 0 0 1-16.81 19.3 164.765 164.765 0 0 1-17.62 15l11.9 14.59c5.9-4.92 11.67-10.15 17.14-15.55 5.76-5.68 11.34-11.69 16.59-17.85l-11.2-15.49z"/><path d="M512.67 373.09h-.08a.895.895 0 0 1-.6-.32l-13-15.94a.9.9 0 0 1-.19-.67.91.91 0 0 1 .35-.6l.36-.26c6.27-4.59 12.25-9.67 17.79-15.1a162.78 162.78 0 0 0 16.97-19.56l.34-.47c.17-.23.43-.36.71-.36.28 0 .54.14.71.36l12.27 16.96c.24.33.22.78-.04 1.08l-.22.25a285.337 285.337 0 0 1-16.9 18.22 278.864 278.864 0 0 1-17.58 15.92l-.33.27c-.16.15-.35.22-.56.22zm-10.52-16.5 10.75 13.18a279.49 279.49 0 0 0 16.41-14.93c5.58-5.5 10.99-11.31 16.09-17.27l-10.1-13.95a165.023 165.023 0 0 1-16.18 18.44c-5.3 5.2-11 10.08-16.97 14.53z"/><path class="st0" d="M498.72 347.53c1.35-.34 2.72-.54 4.07-.62 1.5-.08 2.59.02 3.54.11 1.41.13 2.53.24 4.19-.29 1.43-.46 2.86-1.27 3.26-1.51.72-.43 1.34-.86 1.84-1.21.54-.38 1.36-.95 1.51-.84 0 0 .2.17.15 1.03-.05.87-.46 3.98-3.83 7.23-5.06 4.89-16.84 7.79-20.58 8.75l5.85-12.65z"/><path d="M492.88 361.06a.878.878 0 0 1-.22-1.73l.29-.07c3.74-.95 15.13-3.84 19.9-8.45 2.74-2.64 3.38-5.12 3.52-6.24-.1.07-.19.13-.24.17-.51.36-1.15.81-1.9 1.25-.42.25-1.92 1.1-3.44 1.59-1.83.58-3.08.46-4.53.33-.93-.09-1.98-.19-3.42-.11-1.29.07-2.61.27-3.91.59a.869.869 0 0 1-1.06-.64c-.12-.47.17-.95.64-1.06 1.41-.35 2.84-.57 4.24-.64 1.57-.08 2.69.02 3.67.11 1.37.13 2.35.22 3.84-.25 1.35-.43 2.7-1.2 3.08-1.43.69-.41 1.3-.83 1.78-1.18 1.12-.79 1.86-1.31 2.53-.83.59.35.54 1.44.52 1.79-.05.96-.49 4.34-4.1 7.82-5.11 4.93-16.43 7.81-20.69 8.89l-.28.07c-.08.01-.15.02-.22.02zM401.77 322.71s7.46 17.33 16.09 29.63c4.6-.35 9.66-1.24 14.97-3.01 1.39-.45 2.72-.95 4-1.47 2.48-1.02 4.77-2.13 6.83-3.28 1.93-8.51 3.01-18.3 3.59-26.91-3.23-10.25-6.46-20.49-9.7-30.75a25.49 25.49 0 0 0-1.29-3.35l-11.83-11.58-22.66 50.72z"/><path class="st0" d="m314.29 557-40.47-3.34 2.4-29.03 36.71 3.03z"/><path d="M314.29 557.89h-.07l-40.47-3.35a.883.883 0 0 1-.6-.31.897.897 0 0 1-.21-.65l2.4-29.03a.89.89 0 0 1 .95-.81l36.71 3.04c.44.04.79.4.81.84l1.36 29.34c.01.25-.09.5-.27.68-.16.16-.38.25-.61.25zm-39.52-5.04 38.59 3.19-1.28-27.56-35.05-2.9-2.26 27.27z"/><path d="m256.61 517.64 12.34 75.8 5.23-.85c.68-1.31 1.65-3.3 2.63-5.79 3.37-8.55 3.08-13.52 4.86-19.57 1.12-3.81 3.37-9.04 8.33-14.77 0-.03-.82-4.25-.82-4.28l-.01-.04a8.156 8.156 0 0 0-4.77-5.94l-3.27-1.42a3.52 3.52 0 0 1-2.1-3.68c.13-1.1.78-2.08 1.75-2.63a8.37 8.37 0 0 0 4.1-8.6l-.04-.24c-.12-.6-.23-1.19-.34-1.79l-22.32-4.95-5.57-1.25z"/><path class="st0" d="m256.61 517.64 12.34 75.8 5.23-.85-12-73.71z"/><path d="M268.95 594.33a.88.88 0 0 1-.87-.74l-12.34-75.8c-.05-.29.05-.58.27-.79.21-.2.51-.28.8-.22l5.57 1.24a.9.9 0 0 1 .68.72l12 73.71c.04.23-.02.47-.16.66-.14.19-.34.32-.58.36l-5.23.85c-.04 0-.09.01-.14.01zm-11.25-75.54 11.99 73.64 3.48-.57-11.76-72.25-3.71-.82z"/><path class="st0" d="M285.88 556.4c.09-.13.24-.21.4-.2.53.04 13.01 1.08 16.09 6.45.93 1.63.92 3.47-.06 5.49-.89 1.84-2.08 2.79-3.53 2.81-5.45.09-12.63-13.53-12.94-14.11a.326.326 0 0 1-.04-.13c-.01-.1.01-.22.08-.31zm15.73 6.69c-2.42-4.22-11.75-5.6-14.58-5.93 2.31 4.21 7.92 12.97 11.75 12.91 1.11-.02 2.01-.77 2.75-2.31.56-1.17.77-2.24.61-3.23-.09-.49-.27-.97-.53-1.44z"/><path d="M298.74 571.84c-5.88 0-12.89-13.09-13.67-14.58a1.352 1.352 0 0 1 .07-1.34c.27-.4.73-.63 1.21-.59 1.38.11 13.54 1.23 16.79 6.89 1.09 1.9 1.08 4.02-.03 6.31-1.3 2.7-3.06 3.29-4.31 3.31h-.06zm-10.06-13.56c3.31 5.65 7.59 10.91 10.06 10.91h.03c.27 0 1.1-.02 1.97-1.81.49-1.01.66-1.89.53-2.7-.06-.39-.2-.77-.41-1.14-1.6-2.75-7.05-4.47-12.18-5.26zm-2.8-1.88z"/><path class="st0" d="M285.24 556.66c.38-.37 9.48-8.98 15.53-7.71 1.84.39 3.2 1.63 4.06 3.7.78 1.89.7 3.4-.26 4.5-3.56 4.12-18.5.41-19.14.25a.434.434 0 0 1-.32-.32c0-.01-.01-.03-.01-.04-.01-.13.04-.28.14-.38zm18.78-3.67c-.75-1.81-1.87-2.84-3.42-3.17-4.76-1-12.01 5.03-14.14 6.93 4.68 1.08 14.94 2.73 17.45-.17.49-.57.67-1.3.52-2.21-.07-.42-.2-.88-.41-1.38z"/><path d="M297.53 559.99c-5.03 0-10.67-1.32-12.31-1.73-.47-.12-.84-.48-.96-.95-.01-.03-.02-.11-.03-.14-.07-.42.08-.85.4-1.15 1-.95 9.93-9.28 16.33-7.93 2.14.45 3.72 1.87 4.69 4.23 1.14 2.77.41 4.48-.4 5.42-1.48 1.7-4.47 2.25-7.72 2.25zm-9.14-3.73c6.45 1.3 13.24 1.61 14.85-.26.2-.23.45-.64.32-1.48-.06-.35-.18-.75-.36-1.19-.64-1.54-1.52-2.38-2.79-2.65-3.1-.66-8.01 2.28-12.02 5.58zm-3.15.4zM411.52 423.39l4.11 94.7c.31 7.07-3.89 13.55-10.47 16.16l-95.59 37.93-10.61-61.26 61.22-14.26s-22.02-56.67-10.95-94.29c20.77 7 62.29 21.02 62.29 21.02z"/><path class="st0" d="M310.91 539.65c-.42 0-.8-.26-.95-.67-.18-.52.1-1.09.62-1.27l8.37-2.87c.52-.18 1.09.1 1.27.62.18.52-.1 1.09-.62 1.27l-8.37 2.87a.86.86 0 0 1-.32.05zm16.74-5.74c-.42 0-.8-.26-.95-.67-.18-.52.1-1.09.62-1.27l8.37-2.88c.52-.18 1.09.1 1.27.62.18.52-.1 1.09-.62 1.27l-8.37 2.88c-.1.03-.21.05-.32.05zm16.74-5.75c-.42 0-.8-.26-.95-.67-.18-.52.1-1.09.62-1.27l8.37-2.87c.52-.18 1.09.1 1.27.62.18.52-.1 1.09-.62 1.27l-8.37 2.87c-.1.03-.21.05-.32.05zm16.74-5.75c-.42 0-.8-.26-.95-.67-.18-.52.1-1.09.62-1.27l8.37-2.87c.52-.18 1.09.1 1.27.62.18.52-.1 1.09-.62 1.27l-8.37 2.88c-.1.02-.21.04-.32.04zm16.74-5.75c-.42 0-.8-.26-.95-.67-.18-.52.1-1.09.62-1.27l8.37-2.88c.52-.18 1.09.1 1.27.62.18.52-.1 1.09-.62 1.27l-8.37 2.87c-.1.04-.21.06-.32.06zm11.43-9.14a.99.99 0 0 1-.99-.9l-.9-8.8a1 1 0 1 1 1.99-.21l.9 8.8a1 1 0 0 1-.89 1.1c-.04 0-.08.01-.11.01zM437.32 595.24l-9.79 39.41-28.27-7.01 8.87-35.75z"/><path d="M427.53 635.54c-.07 0-.14-.01-.21-.03l-28.27-7.02a.898.898 0 0 1-.65-1.07l8.87-35.75c.11-.43.51-.72.96-.67l29.18 3.35c.25.03.48.17.63.37.15.21.19.47.13.72l-9.78 39.42a.88.88 0 0 1-.4.54c-.14.1-.3.14-.46.14zm-27.2-8.55 26.55 6.59 9.33-37.58-27.41-3.15-8.47 34.14z"/><path d="m389.23 645.87 76.8-.05v-5.3c-1.18-.88-2.99-2.16-5.3-3.53-7.9-4.69-12.86-5.2-18.54-7.93-3.58-1.72-8.38-4.77-13.25-10.58l-4.35.13h-.04a8.166 8.166 0 0 0-6.63 3.76l-1.92 3a3.541 3.541 0 0 1-3.97 1.49 3.47 3.47 0 0 1-2.31-2.15 8.355 8.355 0 0 0-7.83-5.42h-.25c-.61.02-1.21.04-1.82.05l-8.46 21.24-2.13 5.29z"/><path class="st0" d="m389.23 645.87 76.8-.04-.01-5.3-74.68.05z"/><path d="M389.23 646.76c-.29 0-.57-.15-.73-.39a.875.875 0 0 1-.09-.83l2.12-5.3c.13-.34.46-.56.82-.56l74.68-.05c.49 0 .88.4.88.88v5.3c0 .24-.09.46-.26.63-.17.17-.39.26-.63.26l-76.79.06zm2.71-5.3-1.41 3.53 74.61-.05v-3.53l-73.2.05z"/><path class="st0" d="M432.17 623.19a.433.433 0 0 1-.13-.43c.13-.52 3.15-12.67 8.95-14.85 1.76-.66 3.58-.35 5.41.93 1.67 1.17 2.42 2.49 2.21 3.93-.78 5.39-15.37 10.3-16 10.51-.05.01-.09.02-.14.02a.377.377 0 0 1-.3-.11zm9.13-14.46c-4.55 1.72-7.41 10.71-8.19 13.45 4.52-1.61 14.07-5.74 14.62-9.53.16-1.1-.44-2.1-1.84-3.08-1.07-.74-2.09-1.11-3.09-1.11-.5-.01-1 .09-1.5.27z"/><path d="M432.47 624.19c-.33 0-.65-.12-.9-.35-.35-.33-.5-.82-.39-1.29.33-1.34 3.37-13.16 9.49-15.47 2.05-.77 4.14-.42 6.23 1.04 2.46 1.72 2.76 3.55 2.58 4.79-.85 5.84-14.98 10.69-16.59 11.22-.15.04-.28.06-.42.06zm9.14-14.63c-2.97 1.12-5.54 6.23-7.13 11.17 6.13-2.38 12.02-5.77 12.38-8.21.04-.27.16-1.09-1.47-2.23-1.38-.96-2.55-1.19-3.78-.73z"/><path class="st0" d="M432.32 623.86c-.3-.44-7.35-10.79-5.12-16.57.68-1.75 2.12-2.9 4.3-3.41 1.99-.47 3.47-.14 4.41.97 3.5 4.17-2.56 18.33-2.82 18.93-.06.15-.2.25-.36.26h-.04a.421.421 0 0 1-.37-.18zm-.61-19.12c-1.9.45-3.11 1.39-3.68 2.87-1.75 4.54 3.05 12.66 4.58 15.06 1.82-4.44 5.09-14.31 2.63-17.25-.49-.58-1.18-.87-2.09-.87-.44 0-.92.06-1.44.19z"/><path d="M432.69 624.94a1.3 1.3 0 0 1-1.09-.58c-.78-1.14-7.58-11.27-5.22-17.39.79-2.04 2.44-3.37 4.92-3.96 2.92-.69 4.48.31 5.29 1.27 3.78 4.51-2.01 18.29-2.68 19.85-.19.44-.61.75-1.09.79-.03.01-.1.02-.13.02zm-.78-19.34c-1.62.38-2.59 1.12-3.06 2.33-1.14 2.96.96 8.28 3.58 12.76 2.31-6.16 3.71-12.81 2.12-14.7-.2-.24-.56-.55-1.42-.55-.35 0-.76.05-1.22.16z"/><path d="M389.79 612.2c10.05-.8 20.1-1.58 30.14-2.38 0 0 .01 0 .02-.01 11.2-.88 22.42-1.77 33.62-2.65 1.8-23.99 2.31-86.1 2.19-105.14-.02-3.16-.46-6.31-1.36-9.35-10.69-36.18-24.88-68.27-41.85-96.75-8.18-13.74-17-26.63-26.39-38.75-.14-.19-.28-.36-.42-.55 0 0-42.72 37.98-38.46 62.53 4.27 24.55 42.59 75.65 49.26 94.86-.01.01-4.43 66.08-6.75 98.19z"/><path class="st0" d="M424.51 610.46h-.02c-.55-.01-.99-.47-.98-1.02l.11-5.55c.01-.55.48-.95 1.02-.98.55.01.99.47.98 1.02l-.11 5.55c-.01.55-.45.98-1 .98zm.29-14.4h-.02c-.55-.01-.99-.47-.98-1.02l.17-8.85c.01-.55.46-.98 1-.98h.02c.55.01.99.47.98 1.02l-.17 8.85c-.01.55-.46.98-1 .98zm.35-17.69h-.02c-.55-.01-.99-.47-.98-1.02l.17-8.85c.01-.55.46-.98 1-.98h.02c.55.01.99.47.98 1.02l-.17 8.85c-.02.54-.46.98-1 .98zm.34-17.7h-.02c-.55-.01-.99-.47-.98-1.02l.17-8.85c.01-.55.46-.98 1-.98h.02c.55.01.99.47.98 1.02l-.17 8.85c-.01.55-.45.98-1 .98zm.35-17.69h-.02c-.55-.01-.99-.47-.98-1.02l.17-8.85c.01-.55.5-1.01 1.02-.98.55.01.99.47.98 1.02l-.17 8.85c-.01.54-.46.98-1 .98zm.35-17.7h-.02c-.55-.01-.99-.47-.98-1.02l.17-8.85c.01-.55.5-.99 1.02-.98.55.01.99.47.98 1.02l-.17 8.85c-.01.55-.46.98-1 .98zm.35-17.7h-.02c-.55-.01-.99-.47-.98-1.02l.17-8.85c.01-.55.51-.96 1.02-.98.55.01.99.47.98 1.02l-.17 8.85c-.01.55-.46.98-1 .98zm-2.77-16.86c-.34 0-.67-.17-.86-.49l-4.55-7.59c-.28-.47-.13-1.09.34-1.37.47-.28 1.09-.13 1.37.34l4.55 7.59c.28.47.13 1.09-.34 1.37-.16.1-.34.15-.51.15zm-9.11-15.18c-.34 0-.67-.17-.86-.49l-4.55-7.59c-.28-.47-.13-1.09.34-1.37.47-.28 1.09-.13 1.37.34l4.55 7.59c.28.47.13 1.09-.34 1.37-.16.11-.34.15-.51.15zm-9.11-15.17c-.34 0-.67-.17-.86-.49l-4.55-7.59c-.28-.47-.13-1.09.34-1.37.47-.28 1.09-.13 1.37.34l4.55 7.59c.28.47.13 1.09-.34 1.37-.15.1-.33.15-.51.15zm-9.1-15.18c-.34 0-.67-.17-.86-.49l-4.55-7.59c-.28-.47-.13-1.09.34-1.37a.993.993 0 0 1 1.37.34l4.55 7.59c.28.47.13 1.09-.34 1.37-.16.1-.34.15-.51.15zm-9.11-15.18c-.34 0-.67-.17-.86-.49l-4.55-7.59c-.28-.47-.13-1.09.34-1.37a.995.995 0 0 1 1.37.34l4.55 7.59c.28.47.13 1.09-.34 1.37-.16.11-.33.15-.51.15zm-9.11-15.17c-.34 0-.67-.17-.86-.49l-4.55-7.59c-.28-.47-.13-1.09.34-1.37s1.09-.13 1.37.34l4.55 7.59c.28.47.13 1.09-.34 1.37-.15.1-.33.15-.51.15zM388.9 327.99c.43 9.47 1.23 17.15 1.81 22.01 3.48.71 8.42 1.58 14.41 2.09 3.6.31 6.05.51 9.53.42 1.04-.03 2.12-.08 3.21-.17 4.6-.35 9.66-1.24 14.97-3.01 1.39-.45 2.72-.95 4-1.47 2.48-1.02 4.77-2.13 6.83-3.28a63.53 63.53 0 0 0 9.93-6.79c-2.12-6.71-4.23-13.41-6.34-20.12-3.23-10.25-6.46-20.49-9.7-30.75a25.49 25.49 0 0 0-1.29-3.35c-2.5-5.33-6.74-9.44-11.83-11.58-2.35-.98-4.89-1.55-7.51-1.63-7.55-.21-15.53 2.09-20.77 7.29-8.94 8.87-8.49 22.82-7.25 50.34z"/><path d="M412.97 353.42c-2.59 0-4.74-.17-7.92-.45-4.89-.42-9.64-1.11-14.51-2.1a.882.882 0 0 1-.7-.76c-.87-7.19-1.48-14.62-1.82-22.08-1.21-26.88-1.88-41.68 7.52-51.01 5-4.96 13.01-7.77 21.41-7.54 2.69.08 5.32.65 7.83 1.7 5.34 2.25 9.7 6.52 12.29 12.02.54 1.14.99 2.31 1.34 3.47l9.69 30.74c1.9 6.05 3.81 12.09 5.71 18.14l.62 1.98c.11.34 0 .72-.28.95-3.09 2.58-6.48 4.9-10.07 6.89a64.95 64.95 0 0 1-6.93 3.33c-1.4.57-2.72 1.06-4.06 1.49a63.919 63.919 0 0 1-15.17 3.05 52.4 52.4 0 0 1-3.26.17c-.58 0-1.15.01-1.69.01zm-21.46-4.16c4.59.92 9.07 1.56 13.68 1.95 3.78.33 6.08.51 9.43.42 1.14-.03 2.17-.08 3.16-.17 5.04-.39 10.01-1.38 14.76-2.96 1.3-.42 2.59-.9 3.94-1.45 2.31-.94 4.58-2.03 6.74-3.24 3.32-1.83 6.45-3.96 9.34-6.32l-.45-1.41c-1.91-6.05-3.81-12.09-5.71-18.14l-9.69-30.75c-.33-1.09-.75-2.17-1.25-3.24-2.4-5.11-6.44-9.07-11.37-11.14-2.31-.96-4.73-1.49-7.19-1.56-7.94-.23-15.46 2.41-20.12 7.03-8.49 8.42-8.28 21.31-7 49.67.33 7.2.91 14.36 1.73 21.31z"/><path class="st0" d="M396.53 515.02c-.25 0-.51-.1-.7-.29a1 1 0 0 1-.17-1.22l11.23-19.29c.28-.48.89-.64 1.37-.36.48.28.64.89.36 1.37l-9.23 15.87 6.69-4.1c.47-.29 1.09-.14 1.38.33s.14 1.09-.33 1.38l-10.07 6.17c-.17.09-.35.14-.53.14zM366.29 509.5a.97.97 0 0 1-.81-.42c-4.78-6.63-6.2-11.95-6.26-12.17-.14-.53.18-1.08.71-1.22.53-.14 1.08.18 1.22.71.01.05 1.4 5.21 5.95 11.51a1.007 1.007 0 0 1-.81 1.59zM413.07 592.89c-.29 0-.58-.12-.77-.37-8.1-9.9-8.86-27.79-8.89-28.55-.02-.55.41-1.02.96-1.04.55-.04 1.02.41 1.04.96.01.18.76 17.98 8.44 27.35a1 1 0 0 1-.14 1.41c-.19.17-.42.24-.64.24z"/><path d="M347.34 410.01c23.58 5.78 56.59 3.68 74.27 4.73 5.74-14.92 3.14-25.28 6.86-40.15.06-.23.11-.44.17-.67l-75.55-1.68-5.75 37.77z"/><path class="st0" d="M333.78 394.06c10.68 4.19 23.23 8.34 37.47 11.63.8.18 1.61.37 2.43.55 4.4.97 8.96 1.86 13.67 2.65.86.15 1.73.29 2.6.43 1.42.22 2.85.44 4.29.64 12.42 1.74 23.97 2.46 34.39 2.56a812.45 812.45 0 0 0 3.79-19.15c.16-.87.32-1.75.48-2.64.17-.91.33-1.82.5-2.74.68-3.83 1.33-7.7 1.97-11.63.15-.94.3-1.89.46-2.84.78-4.98 1.54-10.03 2.25-15.17.13-.88.24-1.77.36-2.66.15-1.09.3-2.18.44-3.28.54-3.98 1.03-8.02 1.51-12.09.11-.94.26-2.22.43-3.7.09-.8.19-1.66.29-2.57.52-4.58 1.11-10.21 1.4-14.18.35-4.83.64-11.02.09-18.52-.44-5.96-3.91-20.45-6.72-23.52-2.81-3.07-8.68-6.09-12.75-7.5-2.25-.78-8.96-4.07-19.67-3.04-2.21.22-4.84.47-7.71.92-2.8.44-5.8 1.07-8.81 2.05-.87.28-1.75.59-2.61.93-4.62 1.81-9.12 4.53-12.78 8.69-4.31 4.9-5.79 9.96-7.55 16.79-1.28 4.94-2.35 9.49-3.28 13.72-.18.85-.37 1.68-.54 2.5-.11.5-.22 1.01-.32 1.5-.18.84-.35 1.67-.51 2.48-2.99 14.77-4.26 25.37-6.45 35-.2.91-.42 1.8-.65 2.7-.08.3-.15.6-.24.91-1.17 4.46-2.84 9.68-5.3 15.47-.35.82-.71 1.65-1.1 2.49-2.86 6.36-6.68 13.29-11.83 20.62z"/><path d="M428.63 413.53a269.43 269.43 0 0 1-34.53-2.57c-1.45-.2-2.88-.42-4.3-.64-.88-.13-1.75-.28-2.62-.43-4.63-.78-9.25-1.67-13.72-2.66-.82-.19-1.64-.37-2.44-.56a269.298 269.298 0 0 1-37.61-11.68c-.29-.11-.5-.35-.59-.64s-.04-.61.14-.86c4.64-6.61 8.59-13.48 11.73-20.41a111.058 111.058 0 0 0 6.35-17.8c.08-.31.16-.6.23-.89.23-.91.44-1.8.64-2.69 1.14-4.98 2.02-10.17 3.03-16.18.93-5.48 1.98-11.68 3.42-18.8.14-.72.3-1.45.45-2.2l.06-.3c.09-.45.19-.92.29-1.39l.03-.12c.13-.65.28-1.31.42-1.98l.11-.52c1.03-4.69 2.11-9.19 3.29-13.76 1.85-7.15 3.38-12.2 7.77-17.2 3.38-3.85 7.81-6.86 13.16-8.96.87-.35 1.77-.67 2.67-.95 2.74-.89 5.67-1.57 8.95-2.08 2.76-.44 5.25-.68 7.46-.9l.31-.03c9.7-.94 16.33 1.64 19.17 2.74.37.14.68.27.94.35 4.4 1.53 10.32 4.69 13.15 7.77 3.04 3.32 6.55 18.21 6.98 24.12.56 7.69.25 14.01-.09 18.66-.34 4.58-1.03 10.87-1.41 14.22-.09.86-.18 1.7-.27 2.47l-.01.1c-.12 1.08-.23 2.05-.33 2.86l-.1.85c-.55 4.72-1.04 8.56-1.51 12.11-.13 1.09-.29 2.19-.44 3.29l-.01.1c-.11.86-.23 1.71-.35 2.56-.67 4.85-1.41 9.82-2.25 15.18-.13.79-.26 1.57-.38 2.34l-.08.5c-.65 4.03-1.32 7.95-1.98 11.64l-.97 5.38c-1.17 6.31-2.44 12.76-3.79 19.18-.08.44-.49.78-.97.78zm-93.3-19.94a269.15 269.15 0 0 0 36.15 11.13c.8.18 1.61.37 2.42.55 4.43.98 9.02 1.87 13.62 2.64.87.15 1.72.29 2.59.43 1.42.22 2.84.44 4.28.64 11.04 1.54 22.29 2.4 33.44 2.54 1.28-6.14 2.5-12.3 3.61-18.33l.97-5.37c.65-3.68 1.32-7.59 1.97-11.61l.08-.5c.12-.78.25-1.56.38-2.35.84-5.34 1.57-10.29 2.25-15.14.12-.85.23-1.69.35-2.54l.01-.11c.15-1.09.3-2.18.44-3.27.48-3.54.96-7.38 1.51-12.08l.1-.85c.09-.81.21-1.77.33-2.85l.01-.1c.09-.77.18-1.59.27-2.45.38-3.34 1.06-9.6 1.4-14.15.33-4.58.65-10.81.09-18.37-.44-6.03-3.94-20.16-6.46-22.91-2.61-2.84-8.18-5.79-12.34-7.24-.27-.09-.61-.22-1-.38-2.93-1.14-9.02-3.5-18.25-2.61l-.3.03c-2.17.21-4.64.46-7.34.89-3.18.5-6.01 1.15-8.65 2.01-.86.27-1.72.58-2.55.91-5.06 1.98-9.23 4.81-12.39 8.42-4.09 4.66-5.56 9.51-7.34 16.38-1.17 4.54-2.25 9.02-3.27 13.69l-.11.52c-.15.66-.29 1.32-.42 1.97l-.03.13c-.1.46-.2.92-.29 1.37l-.06.3c-.15.73-.31 1.46-.45 2.18-1.44 7.09-2.48 13.28-3.41 18.75-1.02 6.04-1.91 11.26-3.05 16.29-.2.91-.42 1.82-.65 2.73-.08.32-.16.62-.24.93a112.75 112.75 0 0 1-5.35 15.6c-.36.83-.72 1.66-1.11 2.52-3.05 6.65-6.81 13.27-11.21 19.66zM412.37 252.22c9.75 1.57 20.85-6.92 21.56-19.64-.04-1.02 10.37-16.23 3.61-19.62-5.31-2.65-10.62.88-13.27 1.77-4.13 1.38-6.7-.72-11.12.19-6.02 1.23-11.69 5.17-14.2 11.12-4.57 10.74 2.65 24.44 13.42 26.18z"/><path class="st0" d="M420.57 281.07c-.61 4.24-16.54.89-18.13-13.04 3.25-8.3 6.51-16.61 9.76-24.91l.15.09c1.25.78 2.55 1.56 3.91 2.34.48.28.96.54 1.44.8 1.16.64 2.31 1.23 3.42 1.78v.12c.02.96.03 1.93.04 2.9.06 3.1.11 6.19.15 9.28.02.98.12 7.46.16 9.72-.07 3.28-.33 6.95-.9 10.92z"/><path d="M417.39 283.79h-.13c-5.67-.08-14.62-5.11-15.82-15.64-.02-.16 0-.33.06-.48l9.76-24.91c.11-.27.32-.48.59-.58.27-.1.57-.07.82.07.01.01.1.06.12.07 1.22.76 2.49 1.52 3.96 2.37.48.28.95.54 1.42.79 1.06.59 2.17 1.16 3.39 1.77.34.17.55.51.56.88l-1 .13 1-.02c.02.97.03 1.94.04 2.9.06 3.09.11 6.18.15 9.28.02.98.12 7.46.16 9.71-.09 3.74-.4 7.45-.93 11.08-.22 1.63-1.77 2.58-4.15 2.58zm-13.93-15.62c1.22 9.5 9.58 13.56 13.83 13.63 1.08.02 2.2-.24 2.28-.86.51-3.56.82-7.19.91-10.81-.04-2.21-.14-8.69-.16-9.67-.04-3.1-.09-6.19-.15-9.28l-.03-2.41c-1.04-.52-2-1.02-2.92-1.53-.47-.26-.96-.52-1.45-.81-1.13-.65-2.14-1.25-3.07-1.82l-9.24 23.56zm17.11 12.9z"/><path class="st0" d="M411.99 248.87c-.76-1.29-3.01-3.76-3.16-5.47-.18-2.03.41-2.55 4.23-11.51 3.31-.3 5.1-.64 7.86-3.75 2.7-3.04 2.52-8.39 6.27-7.25 5.69 1.73 7.24 9.94 8.15 14.72.79 4.17.5 7.24.37 8.28-.38 3.17-1.21 9.99-5.95 12.26-1.65.79-3.15.73-4.94.66-1.42-.06-2.74-.31-3.92-.67l-7.89-6.92-1.02-.35z"/><path d="M426.26 257.85c-.49 0-.97-.02-1.47-.04-1.4-.06-2.8-.3-4.17-.71a1.003 1.003 0 0 1 .58-1.92c1.2.36 2.44.58 3.67.63 1.7.07 3.04.12 4.46-.56 4.25-2.03 5.02-8.41 5.39-11.48.17-1.38.34-4.25-.36-7.98-.88-4.64-2.34-12.39-7.45-13.95-1.34-.41-1.8.2-2.92 2.84-.57 1.35-1.22 2.87-2.32 4.11-2.86 3.22-4.95 3.73-7.93 4.03-.86 2.01-1.55 3.58-2.1 4.82-1.75 3.97-1.93 4.44-1.83 5.66.12 1.38.58 2.76 1.36 4.08.28.48.12 1.09-.35 1.37-.48.28-1.09.12-1.37-.35-.94-1.59-1.49-3.24-1.63-4.93-.16-1.77.21-2.61 1.99-6.64.59-1.35 1.35-3.07 2.32-5.34.14-.34.46-.57.83-.6 3.06-.27 4.64-.53 7.21-3.42.88-.99 1.43-2.3 1.97-3.56.94-2.21 2.1-4.96 5.34-3.98 6.27 1.91 7.88 10.41 8.84 15.49.75 3.99.56 7.1.38 8.59-.41 3.42-1.27 10.53-6.51 13.04-1.36.66-2.64.8-3.93.8zM404.41 320.71l-40.96 54.67-1.05-11.96 35.15-41.49z"/><path d="M431.08 244.82c-.38 0-.73-.25-.85-.63-.14-.47.13-.96.6-1.1 1.1-.33 1.41-.91 1.54-1.32.79-2.42-2.26-7.17-3.5-8.8a.88.88 0 0 1 .17-1.24.88.88 0 0 1 1.24.17c.51.67 4.99 6.68 3.78 10.42-.27.84-.97 1.95-2.72 2.47-.09.02-.18.03-.26.03z"/><path class="st0" d="M410.7 247.31c-2.54 2.88-7.86-4.25-5.84-7.75 1.83-3.18 6.25.53 6.25.53l-.41 7.22z"/><path d="M409.3 248.87c-.72 0-1.5-.28-2.27-.83-2.59-1.86-4.48-6.25-2.94-8.91.53-.93 1.33-1.51 2.29-1.68 2.36-.42 5 1.73 5.29 1.97.37.31.42.87.11 1.25-.31.37-.87.43-1.25.11-.62-.52-2.53-1.82-3.85-1.58-.45.08-.79.34-1.07.82-1.02 1.76.51 5.21 2.44 6.59 1.27.92 1.8.32 1.97.13a.886.886 0 1 1 1.33 1.17c-.56.63-1.27.96-2.05.96zM351.83 383.54c-.2 0-.32 0-.36-.01a.884.884 0 0 1-.85-.92c.02-.49.45-.86.92-.85.1 0 9.39.26 18.97-6.05a.887.887 0 1 1 .98 1.48c-9.12 6.01-17.79 6.35-19.66 6.35zM417.95 289.78c-1.31 0-2.77-.31-4.37-.94a.881.881 0 0 1-.5-1.15c.18-.46.69-.68 1.15-.5 2.75 1.08 4.91 1.09 6.43.04 2.02-1.4 3.05-4.73 2.98-9.64-.01-.49.38-.89.87-.9.51.02.89.38.9.87.08 5.61-1.18 9.35-3.74 11.12-1.07.74-2.31 1.1-3.72 1.1zM370.63 246.07s10.37-36.28 22.16-28.37c11.79 7.91 9.52 8.7 9.52 8.7s-13.27-2.08-9.52 14.22c3.01 13.1-22.16 5.45-22.16 5.45z"/><path class="st0" d="M394.95 538.49h-.1a1 1 0 0 1-.89-1.1c.02-.15 1.57-15.51 1.57-23.37-.39-6.25-7.25-15.03-15.19-25.21-13.14-16.83-31.13-39.88-32.48-67.93-.03-.55.4-1.02.95-1.05.54-.04 1.02.4 1.05.95 1.32 27.41 18.36 49.25 32.06 66.79 8.48 10.86 15.18 19.45 15.61 26.37 0 8.02-1.57 23.48-1.58 23.63-.06.54-.49.92-1 .92zM415.76 373.14c9.6 18.9 20.83 38.22 30.43 57.12-8.34 3.96-12.11 4.26-20.45 8.22-15.84-20.39-27.98-36.57-35.99-49.89-11.63-19.34-16.62-39.41-9.56-49.09 5.61-7.69 11.71-34.82 21.57-13.66 2.57 5.48 12.1 38.57 14 47.3z"/><path d="M425.74 439.48a1 1 0 0 1-.79-.39c-16.37-21.07-28.12-36.79-36.06-49.98-12.66-21.05-16.4-40.75-9.51-50.2 1.32-1.81 2.7-4.82 4.17-8.01 3.16-6.87 6.42-13.96 10.96-13.98h.01c2.82 0 5.48 2.78 8.15 8.49 2.63 5.65 12.06 38.43 14.04 47.39 4.78 9.4 10.05 19.07 15.15 28.42 5.12 9.4 10.42 19.12 15.23 28.58a1.005 1.005 0 0 1-.47 1.36c-4.22 2-7.32 3.09-10.32 4.15-2.95 1.04-6.01 2.11-10.13 4.07-.14.06-.29.1-.43.1zm-31.21-120.56s-.01 0 0 0c-3.27.01-6.53 7.11-9.16 12.81-1.51 3.28-2.93 6.38-4.37 8.35-6.41 8.79-2.64 27.63 9.6 47.99 7.81 12.98 19.36 28.46 35.43 49.16 3.85-1.79 6.77-2.81 9.6-3.81 2.73-.96 5.54-1.95 9.2-3.63-4.67-9.14-9.78-18.53-14.73-27.61-5.12-9.4-10.42-19.13-15.23-28.59-.04-.08-.07-.16-.09-.24-1.85-8.49-11.39-41.67-13.92-47.1-2.23-4.79-4.42-7.33-6.33-7.33z"/><path class="st0" d="M419.94 429.92c.6 1.42 1.55 3.56 2.86 6.09 3.18 6.1 6.09 9.81 8.7 13.53 1.28 1.82 2.8 4.11 4.47 6.86 0 .01.01.03.02.03.73 1.13 1.51 1.67 2.24 1.88 1.58.44 2.91-1.28 2.21-2.77-1.19-2.55-2.47-5.01-3.17-6.35.25-.09.5-.17.76-.26 2.2 3.29 4.41 6.56 6.61 9.85.01 0 .01 0 .01.01 1.02.89 2.46 1.06 3.59.45 1.46-.79 1.61-2.46 1.62-2.58 5.16 1.21 4.05-3.45 3.96-3.78 0-.01-.01-.02-.01-.02-.27-.62-.54-1.25-.81-1.87-1.37-3.22-2.71-6.41-4.01-9.58l.64-.41c1.77 1.84 3.15 3.34 4.02 4.31 4.31 4.8 4.68 7.72 7.2 5.96 2.53-1.76-5.38-12.3-10.89-19.59 0 0-3.92-7.66-11.24-14.04l-18.78 12.28z"/><path d="M446.8 460.42c-.92 0-1.85-.32-2.59-.93a.665.665 0 0 1-.25-.25c-.97-1.46-1.95-2.91-2.92-4.36.05.11.1.21.15.32.47 1 .3 2.19-.42 3.04-.69.82-1.75 1.14-2.76.86-1.03-.29-1.94-1.03-2.69-2.21a.161.161 0 0 1-.04-.07c-1.46-2.4-2.95-4.69-4.44-6.81-.46-.66-.94-1.33-1.42-2-2.2-3.07-4.69-6.56-7.33-11.62a82.194 82.194 0 0 1-2.89-6.15c-.18-.42.02-.9.44-1.07.42-.18.9.02 1.07.44.86 2.04 1.81 4.07 2.83 6.03 2.58 4.96 4.94 8.25 7.21 11.42.49.68.96 1.35 1.43 2.01 1.5 2.14 3.01 4.45 4.48 6.88.01.01.02.03.03.04.54.84 1.13 1.35 1.77 1.53.56.16.94-.19 1.07-.34.25-.29.42-.78.18-1.29-.87-1.86-1.93-3.99-3.16-6.32a.849.849 0 0 1-.04-.68.84.84 0 0 1 .49-.47l.76-.26c.35-.12.74.01.94.32l1.37 2.04c1.72 2.57 3.44 5.13 5.16 7.7.75.62 1.79.74 2.61.3 1-.54 1.17-1.71 1.2-1.93a.8.8 0 0 1 .34-.58c.19-.14.43-.19.66-.13.9.21 2.1.34 2.68-.25.61-.63.45-1.96.32-2.48-.24-.55-.49-1.12-.73-1.68l-.06-.15c-1.37-3.22-2.71-6.42-4.02-9.59a.817.817 0 0 1 .31-1l.64-.41c.33-.21.76-.16 1.03.12 1.78 1.85 3.18 3.37 4.04 4.32 1.39 1.55 2.37 2.89 3.15 3.97 1.85 2.54 2.01 2.55 2.98 1.87.03-.02.09-.06.12-.25.44-2.77-7.13-12.79-11.19-18.17-.03-.04-.05-.08-.08-.12-.04-.08-3.94-7.6-11.05-13.79-.34-.3-.38-.81-.08-1.15s.81-.38 1.15-.08c7.08 6.17 10.97 13.4 11.4 14.22 6.57 8.71 11.97 16.17 11.46 19.36-.09.57-.37 1.03-.8 1.33-2.39 1.66-3.58.02-5.24-2.25-.76-1.05-1.71-2.35-3.04-3.83-.57-.63-1.39-1.53-2.41-2.61 1.02 2.46 2.07 4.94 3.12 7.43l.06.14c.25.57.5 1.16.75 1.72.01.03.03.08.04.1.08.31.67 2.71-.71 4.12-.76.78-1.9 1.06-3.4.85-.23.75-.74 1.74-1.87 2.35-.55.3-1.18.45-1.81.45z"/><path class="st0" d="M450.32 433.83c1.36-.46 3.37-2.09 6.12-2.93 2.61-.8 3.29-.51 4.55-1.51 1.47-1.16 2.6-3.19 2.03-4.04-.61-.89-2.49.45-5.81.24-3.23-.2-4.09-1.64-8.58-3.04-1.46-.46-5.15-.6-7.89-.85l9.58 12.13z"/><path d="M450.32 434.64c-.34 0-.66-.21-.77-.55-.15-.43.08-.89.51-1.04.46-.16 1.07-.51 1.78-.91 1.16-.67 2.61-1.49 4.36-2.03 1-.31 1.72-.46 2.3-.58.92-.19 1.34-.28 1.98-.79 1.36-1.08 2-2.62 1.86-2.94-.08.01-.67.13-1.14.23-.98.2-2.33.48-4.04.37-2.01-.12-3.17-.69-4.64-1.4-1.06-.51-2.27-1.1-4.14-1.68-.96-.3-3.25-.47-5.27-.62-.85-.06-1.69-.12-2.45-.2a.819.819 0 0 1-.74-.89c.04-.45.44-.79.89-.74.76.07 1.59.13 2.42.19 2.31.17 4.49.33 5.63.69 1.98.62 3.3 1.26 4.36 1.77 1.41.68 2.34 1.13 4.03 1.24 1.49.09 2.66-.15 3.61-.34 1.14-.23 2.21-.46 2.83.46.98 1.44-.65 3.91-2.19 5.14-.94.75-1.66.9-2.66 1.11-.55.11-1.23.26-2.16.54-1.57.48-2.93 1.26-4.03 1.88-.78.45-1.45.83-2.06 1.04-.09.04-.18.05-.27.05z"/><path class="st0" d="M449.69 457.03c.11.05.24.05.36-.01.19-.11.27-.35.16-.54l-3.25-5.96a.408.408 0 0 0-.54-.16c-.19.11-.27.35-.16.54l3.25 5.96c.04.08.11.13.18.17z"/><path d="M449.86 457.88c-.18 0-.35-.04-.52-.11a1.29 1.29 0 0 1-.55-.51l-3.25-5.96c-.16-.28-.19-.61-.1-.92.09-.31.3-.57.58-.73.59-.32 1.33-.1 1.65.48l3.25 5.96c.16.28.19.61.1.92s-.3.57-.59.73c-.17.09-.37.14-.57.14zm-.37-1.01z"/><path class="st0" d="M394.39 283.23c7.65.76 27.47 55.14 29.05 59.47-4.16 3.84-7.09 5.8-16.01 9.43a63.229 63.229 0 0 1-15.26 4.09c-2.38.34-4.65.52-6.81.6-7.12.25-12.89-.67-16.33-1.38-2.75-6.15-1.06-42.04-1.19-42.88l26.55-29.33z"/><path d="M382.96 357.87c-4.72 0-9.46-.48-14.12-1.44a.982.982 0 0 1-.71-.57c-2.06-4.61-1.8-23.55-1.35-39.53.05-1.83.1-3.42.08-3.66-.03-.53.36-1.02.89-1.07.55-.06 1.01.29 1.09.82.04.23.03.63-.06 3.97-.23 8.14-.91 32.42 1 38.19a68.423 68.423 0 0 0 15.56 1.25 64.38 64.38 0 0 0 9.73-1.09c4.09-.77 8.13-1.96 11.99-3.54 8.37-3.4 11.33-5.26 15.22-8.79-12.38-33.89-23.86-57.78-27.98-58.19a1 1 0 1 1 .19-1.99c7.47.74 23.39 42.29 29.89 60.12.14.38.04.8-.26 1.08-4.27 3.94-7.38 5.99-16.31 9.62a64.432 64.432 0 0 1-15.5 4.16 68.477 68.477 0 0 1-9.35.66z"/><path d="M360.19 300.19s10.18-28.07 32.63-16.57c4.24 2.17 6.6 6.24 7.84 6.24 2.65 0-3.86-11.65-10.64-14.13-19.66-7.18-28.77 7.06-28.77 7.06l-1.06 17.4z"/><path class="st0" d="M350.25 416.22h-22.76c-7.29 0-13.2-5.91-13.2-13.2V282.38c0-7.29 5.91-13.2 13.2-13.2h22.76c7.29 0 13.2 5.91 13.2 13.2v120.64c0 7.29-5.91 13.2-13.2 13.2z"/><path d="M350.25 417.22h-22.76c-7.83 0-14.2-6.37-14.2-14.2V282.38c0-7.83 6.37-14.2 14.2-14.2h22.76c7.83 0 14.2 6.37 14.2 14.2v120.64c0 7.83-6.37 14.2-14.2 14.2zm-22.76-147.04c-6.73 0-12.2 5.47-12.2 12.2v120.64c0 6.73 5.47 12.2 12.2 12.2h22.76c6.73 0 12.2-5.47 12.2-12.2V282.38c0-6.73-5.47-12.2-12.2-12.2h-22.76z"/><path d="M322.25 400h-.01a1.003 1.003 0 0 1-.94-1.31c.49-4.32-.06-103.67-.15-115.44-.02-1.92.74-3.56 2.24-4.86 6.98-6.07 28.85-2.89 29.78-2.75.55.08.92.59.84 1.14a.99.99 0 0 1-1.14.84c-.22-.03-21.88-3.19-28.17 2.28-1.06.92-1.56 2.01-1.55 3.34.02 2.57.2 31.14.3 59.86.19 55.94-.03 56.17-.48 56.62-.2.17-.46.28-.72.28z"/><path d="M318 331.95c-.06 0-.12 0-.19-.01-2.88-.2-4.24-5.29-4.49-6.31-.13-.54.2-1.08.74-1.21.54-.13 1.08.2 1.21.74.54 2.21 1.77 4.72 2.69 4.78.23.02 1.47-.14 3.37-4.92.2-.51.79-.76 1.3-.56.51.2.77.78.56 1.3-1.68 4.21-3.33 6.19-5.19 6.19zM340.13 356.3c-8.72 0-15.13-7.3-15.4-7.61-.36-.42-.31-1.05.1-1.41a.998.998 0 0 1 1.41.1c.06.07 6.09 6.91 13.88 6.91h.01c4.55 0 8.86-2.33 12.82-6.91.36-.42.99-.46 1.41-.1.42.36.46.99.1 1.41-4.34 5.05-9.17 7.61-14.33 7.61zM355.1 333.55c-.55 0-1-.45-1-1v-29.43c0-.55.45-1 1-1s1 .45 1 1v29.43c0 .56-.44 1-1 1zM355.16 394.26c-.55 0-1-.45-1-1V354.8c0-.55.45-1 1-1s1 .45 1 1v38.46c0 .55-.44 1-1 1z"/></g><path d="M533.82 192.48s-60.1-24.6-61.91-35.08c-1.3-7.53 27.63-10.43 27.63-10.43s45.88 18.25 47.45 19.29c1.56 1.04 53.7-4.69 53.7-4.69l11.47 7.82-37.39 13.32 39.11 22.26 14.44 6.65 17.1-4.05c.89-.21 1.55.82.98 1.54-3.57 4.48-11.49 14.37-12.44 14.95-6.04 3.71-11.63 3.66-24.72-.88l-49.28-19.38 5.27 19.29 3.37 11.47-14.84-4.17-19.94-37.91z" id="plane"/></svg>