<svg xmlns="http://www.w3.org/2000/svg" version="1.1" viewBox="94 102.18 833 157.89"><path d="M 628.250 106.027 C 623.712 108.158, 620 110.242, 620 110.658 C 620 111.075, 621.688 113.143, 623.750 115.253 C 627.500 119.090, 627.500 119.090, 627.823 132.924 C 628.147 146.757, 628.147 146.757, 619.323 146.258 C 604.718 145.431, 591.903 150.462, 583.429 160.348 C 570.532 175.395, 569.590 197.490, 581.198 212.700 C 585.684 218.579, 589.407 221.080, 597.437 223.612 C 602.757 225.289, 603.249 225.287, 608.701 223.568 C 615.144 221.537, 620.360 218.471, 623.924 214.620 C 625.258 213.179, 626.720 212, 627.174 212 C 627.628 212, 628 215.180, 628 219.067 C 628 226.965, 627.069 226.392, 636 223.988 C 648.774 220.548, 651.486 220.148, 652.300 221.587 C 652.967 222.766, 659.471 223, 691.619 223 C 730.139 223, 730.139 223, 729.820 220.750 C 729.555 218.885, 728.714 218.410, 724.914 217.972 C 722.391 217.682, 719.129 216.659, 717.664 215.699 C 714.688 213.749, 714.905 215.856, 714.933 189.201 C 714.950 172.689, 715.875 167.693, 719.668 163.602 C 722.671 160.364, 728.035 160.096, 731.727 163 C 733.126 164.100, 734.997 164.985, 735.885 164.967 C 739.999 164.882, 745.499 156.835, 744.409 152.493 C 743.505 148.892, 739.374 146, 735.136 146 C 730.416 146, 723.549 150.698, 718.710 157.239 C 715 162.253, 715 162.253, 715 154.595 C 715 149.230, 714.610 146.788, 713.699 146.438 C 711.995 145.784, 693.752 153.146, 693.257 154.687 C 693.047 155.340, 694.216 157.068, 695.854 158.527 C 700.858 162.986, 701.133 164.718, 700.803 189.733 C 700.527 210.739, 700.331 212.981, 698.600 214.892 C 694.631 219.273, 684.983 219.567, 680.532 215.442 C 678 213.095, 678 213.095, 678 180.016 C 678 152.073, 677.775 146.851, 676.553 146.382 C 674.493 145.591, 656.748 152.434, 655.522 154.491 C 654.730 155.820, 654.942 156.465, 656.461 157.353 C 657.540 157.984, 659.677 159.703, 661.211 161.173 C 664 163.846, 664 163.846, 664 188.471 C 664 213.095, 664 213.095, 661.354 215.548 C 658.304 218.374, 655.490 218.719, 654.590 216.375 C 654.096 215.087, 653.132 214.883, 649.950 215.392 C 647.712 215.750, 645.062 215.568, 643.966 214.982 C 642.048 213.955, 642 212.596, 642 159.547 C 642 129.636, 641.727 104.452, 641.393 103.582 C 640.472 101.183, 637.312 101.771, 628.250 106.027 M 665.077 108.589 C 662.515 110.744, 662 111.901, 662 115.500 C 662 119.099, 662.515 120.256, 665.077 122.411 C 669.109 125.804, 672.452 125.702, 676.077 122.077 C 680.205 117.949, 680.134 112.862, 675.894 108.901 C 672.057 105.317, 669.068 105.231, 665.077 108.589 M 887.127 143.679 C 881.007 150.148, 876 156.017, 876 156.720 C 876 157.605, 877.699 158, 881.500 158 C 887 158, 887 158, 887 186.032 C 887 218.503, 887.264 219.856, 894.212 223.010 C 899.472 225.397, 902.082 225.449, 912.334 223.372 C 923.062 221.198, 927 219.482, 927 216.980 C 927 215.126, 926.526 215.028, 920.250 215.583 C 911.534 216.353, 906.371 214.685, 903.287 210.102 C 901.060 206.794, 901 206.064, 901 182.352 C 901 158, 901 158, 913.057 158 C 925.115 158, 925.115 158, 924.807 153.750 C 924.500 149.500, 924.500 149.500, 912.790 149.219 C 901.080 148.937, 901.080 148.937, 900.790 140.799 C 900.616 135.907, 900.052 132.513, 899.377 132.289 C 898.759 132.085, 893.246 137.210, 887.127 143.679 M 770.624 147.998 C 760.269 152.042, 752.300 160.460, 748.651 171.206 C 745.055 181.799, 745.657 195.776, 750.107 204.985 C 752.937 210.842, 760.522 218.732, 765.504 221.002 C 773.461 224.627, 778.619 225.411, 784.779 223.933 C 792.006 222.199, 800.948 216.201, 805.452 210.065 C 809.441 204.631, 809.726 203.493, 807.328 202.572 C 806.214 202.145, 804.460 203.075, 802.078 205.355 C 797.194 210.029, 792.923 212, 787.675 212 C 771.689 212, 760.459 198.363, 761.204 179.854 C 761.500 172.500, 761.500 172.500, 784 172 C 806.500 171.500, 806.500 171.500, 806.144 167.508 C 805.725 162.810, 802.171 155.406, 798.849 152.312 C 792.228 146.145, 780.111 144.293, 770.624 147.998 M 843.446 147.479 C 832.192 151.034, 822.397 159.379, 817.368 169.692 C 814.764 175.034, 814.536 176.423, 814.524 187 C 814.513 197.313, 814.780 199.073, 817.114 204.054 C 821.973 214.424, 828.948 220.473, 839.631 223.584 C 844.681 225.054, 846.329 225.121, 851.437 224.068 C 858.502 222.612, 865.109 219.365, 870.256 214.818 C 876.955 208.901, 874.276 204.858, 866.843 209.668 C 863.096 212.092, 861.539 212.469, 855.500 212.412 C 842.555 212.292, 833.513 204.587, 829.490 190.251 C 824.578 172.745, 832.686 153, 844.786 153 C 847.480 153, 849.916 154.255, 855.457 158.500 C 859.407 161.525, 863.429 164, 864.396 164 C 865.363 164, 867.469 162.685, 869.077 161.077 C 872.258 157.896, 872.876 153.738, 870.613 150.757 C 867.328 146.430, 852.448 144.634, 843.446 147.479 M 770.238 153.546 C 767.583 155.406, 763 162.961, 763 165.479 C 763 167.162, 763.882 167.234, 776.246 166.562 C 783.531 166.166, 789.632 165.701, 789.804 165.529 C 790.542 164.791, 786.674 157.270, 784.260 154.750 C 782.135 152.532, 780.738 152, 777.035 152 C 774.511 152, 771.452 152.696, 770.238 153.546 M 599.535 155.278 C 590.806 160.222, 586.522 173.652, 588.764 189.039 C 590.731 202.530, 596.647 210.593, 606.729 213.524 C 612.159 215.102, 612.297 215.089, 617.515 212.537 C 620.422 211.114, 623.970 208.417, 625.400 206.542 C 627.950 203.199, 628 202.826, 628 187.104 C 628 164.977, 625.616 158.712, 615.628 154.596 C 610.196 152.357, 604.248 152.609, 599.535 155.278" stroke="none" fill="#d8d8d8" fill-rule="evenodd"/><path d="M 423.494 108.252 C 421.732 109.767, 420.692 111.876, 420.313 114.703 C 419.814 118.427, 420.096 119.250, 422.798 121.952 C 426.620 125.774, 430.013 125.854, 434.084 122.216 C 436.572 119.994, 437.200 118.639, 437.200 115.500 C 437.200 112.361, 436.572 111.006, 434.084 108.784 C 430.312 105.413, 426.988 105.246, 423.494 108.252 M 159 135.889 C 154.487 136.844, 151.746 138.343, 145 143.543 C 136.970 149.734, 133.913 151, 127 151 C 119.914 151, 116.182 149.402, 110.500 143.933 C 106.664 140.240, 99.828 137, 95.874 137 C 94.209 137, 94 137.834, 94 144.500 C 94 152, 94 152, 97.980 152 C 101.441 152, 102.821 152.780, 108.563 157.984 C 116.256 164.956, 120.545 166.500, 129.834 165.644 C 136.451 165.033, 139.441 163.616, 148.486 156.801 C 154.895 151.971, 162.150 150.312, 170.274 151.817 C 174.909 152.677, 177.623 154.074, 184.026 158.899 C 191.543 164.563, 197.495 167.048, 199.935 165.540 C 200.521 165.178, 201 161.992, 201 158.460 C 201 152.264, 200.903 152.017, 198.250 151.450 C 193.603 150.456, 191.703 149.429, 186 144.829 C 182.975 142.389, 178.925 139.445, 177 138.287 C 173.085 135.931, 164.317 134.763, 159 135.889 M 239.426 147.872 C 227.444 151.961, 219.446 159.094, 213.954 170.589 C 210.994 176.783, 210.646 178.434, 210.602 186.500 C 210.537 198.283, 213.282 205.959, 220.309 213.647 C 230.639 224.950, 243.156 227.476, 257.409 221.132 C 263.399 218.466, 271.327 210.950, 270.469 208.750 C 269.555 206.408, 268.699 206.528, 263.730 209.701 C 258.152 213.262, 247.691 213.531, 241.500 210.274 C 228.890 203.639, 221.903 186.853, 225.427 171.659 C 227.433 163.008, 229.087 159.898, 233.707 156.090 C 236.370 153.895, 238.505 153, 241.080 153 C 244.657 153, 245.764 153.614, 255.064 160.750 C 260.322 164.784, 262.035 164.812, 265.923 160.923 C 270.889 155.958, 269.676 151.118, 262.669 147.937 C 257.341 145.518, 246.413 145.487, 239.426 147.872 M 291 147.232 C 283.684 150.514, 280.021 152, 279.246 152 C 278.771 152, 277.509 152.645, 276.441 153.433 C 274.570 154.815, 274.645 155.016, 278.500 158.979 C 282.500 163.092, 282.500 163.092, 282.817 184.296 C 282.991 195.958, 282.847 207.445, 282.495 209.821 C 281.793 214.570, 279.435 217.227, 275.232 218.006 C 273.351 218.355, 272.400 219.218, 272.178 220.778 C 271.855 223.043, 271.855 223.043, 291.678 222.771 C 310.697 222.511, 311.500 222.420, 311.500 220.514 C 311.500 219.421, 310.825 218.439, 310 218.330 C 296.695 216.582, 297 217.149, 297 194.159 C 297 173.815, 298.007 167.750, 302.112 163.380 C 304.975 160.333, 310.118 160.236, 314.213 163.152 C 318.050 165.884, 321.490 164.881, 324.719 160.089 C 327.776 155.553, 327.597 152.443, 324.077 148.923 C 320.701 145.547, 316.655 145.118, 311.700 147.610 C 307.604 149.671, 301.314 155.639, 299.168 159.500 C 297.500 162.500, 297.500 162.500, 297 154.510 C 296.460 145.878, 295.801 145.079, 291 147.232 M 423.080 149.857 C 417.899 151.871, 413.497 154.010, 413.296 154.611 C 413.096 155.212, 414.972 157.375, 417.466 159.419 C 422 163.134, 422 163.134, 422 188.115 C 422 213.095, 422 213.095, 419.354 215.548 C 416.304 218.374, 412.302 218.798, 411.823 216.345 C 411.572 215.059, 410.274 214.668, 406.018 214.595 C 401.183 214.511, 400.402 214.205, 399.404 212 C 398.579 210.178, 398.509 201.499, 399.146 180 C 399.626 163.775, 399.785 149.888, 399.499 149.140 C 399.079 148.044, 396.607 147.912, 386.739 148.462 C 372.293 149.266, 371 149.554, 371 151.974 C 371 153.418, 372.056 153.958, 375.920 154.489 C 384.484 155.667, 384.453 155.567, 384.813 183.490 C 385.127 207.773, 385.127 207.773, 382.098 209.930 C 371.974 217.139, 359.298 215.345, 355.169 206.119 C 353.836 203.142, 353.485 197.650, 353.190 175.160 C 352.831 147.819, 352.831 147.819, 342.166 148.487 C 336.300 148.854, 330.687 149.383, 329.693 149.663 C 326.514 150.557, 328.274 153.348, 332.715 154.453 C 335.028 155.029, 337.354 155.950, 337.884 156.500 C 338.428 157.065, 339.031 168.821, 339.270 183.500 C 339.738 212.254, 340.267 215.272, 345.673 220.018 C 350.411 224.178, 356.134 225.501, 362.995 224.023 C 369.007 222.727, 376.618 219.194, 381.828 215.280 C 385.155 212.780, 385.155 212.780, 384.887 218.576 C 384.701 222.580, 385.012 224.504, 385.892 224.797 C 387.017 225.172, 389.762 224.513, 401.500 221.049 C 403.150 220.563, 405.962 219.866, 407.750 219.503 C 410.587 218.925, 411 219.105, 411 220.921 C 411 222.951, 411.432 223, 429.393 223 C 444.097 223, 447.892 222.724, 448.315 221.622 C 448.977 219.897, 447.161 218, 444.847 218 C 442.202 218, 438.208 215.934, 437.336 214.115 C 436.910 213.227, 436.438 198.100, 436.287 180.500 C 436.135 162.900, 435.798 147.938, 435.537 147.250 C 434.868 145.487, 433.693 145.733, 423.080 149.857 M 465.696 147.937 C 458.059 151.501, 452 160.155, 452 167.500 C 452 175.728, 458.345 183.721, 469.481 189.521 C 481.911 195.996, 486.235 202.145, 483.883 209.997 C 482.270 215.379, 478.565 218, 472.569 218 C 468.463 218, 467.475 217.526, 463.713 213.750 C 460.907 210.935, 458.821 207.559, 457.532 203.750 C 455.920 198.988, 455.192 198, 453.293 198 C 451.128 198, 451.001 198.376, 451.011 204.750 C 451.030 216.576, 451.667 218.485, 456.361 220.784 C 458.637 221.899, 463.063 223.370, 466.196 224.053 C 471.132 225.128, 472.733 225.058, 478.196 223.527 C 490.878 219.972, 498 211.607, 498 200.265 C 498 190.883, 495.423 187.943, 476.691 175.960 C 467.831 170.291, 465.431 166.551, 466.612 160.254 C 467.590 155.044, 470.997 152, 475.851 152 C 479.081 152, 480.331 152.613, 482.774 155.395 C 484.413 157.262, 486.546 160.862, 487.513 163.395 C 488.918 167.074, 489.747 168, 491.636 168 C 493.898 168, 494 167.696, 494 160.934 C 494 157.048, 493.552 153.031, 493.004 152.008 C 492.456 150.984, 489.514 149.214, 486.467 148.073 C 479.669 145.530, 470.977 145.473, 465.696 147.937 M 528 147.717 C 518.134 151.135, 509.963 159.744, 505.429 171.500 C 503.947 175.341, 503.512 178.934, 503.550 187 C 503.594 196.169, 503.935 198.227, 506.239 203.237 C 509.861 211.111, 513.287 215.334, 519.052 219.034 C 533.296 228.173, 547.610 225.866, 559.867 212.455 C 564.858 206.994, 566.139 203.822, 563.910 202.444 C 563.310 202.074, 561.173 203.347, 559.160 205.275 C 551.415 212.691, 543.151 214.022, 533.423 209.420 C 523.142 204.556, 517.640 193.861, 518.204 179.837 C 518.500 172.500, 518.500 172.500, 540.888 172.231 C 563.276 171.961, 563.276 171.961, 562.708 166.460 C 561.945 159.070, 556.936 152.144, 549.773 148.574 C 543.699 145.547, 535.225 145.214, 528 147.717 M 526.510 154.171 C 524.991 155.365, 522.686 158.628, 521.387 161.421 C 519.025 166.500, 519.025 166.500, 521.262 166.853 C 522.493 167.048, 528.563 166.891, 534.750 166.505 C 547.190 165.728, 547.756 165.296, 544.520 159.039 C 540.908 152.054, 532.194 149.699, 526.510 154.171 M 154.981 157.281 C 152.496 158.502, 147.771 161.612, 144.481 164.194 C 133.183 173.060, 121.258 173.322, 112 164.908 C 106.495 159.906, 103.437 158.253, 98.105 157.401 C 94 156.744, 94 156.744, 94 163.872 C 94 170.838, 94.058 171, 96.540 171 C 100.182 171, 105.949 174.250, 109.970 178.568 C 114.595 183.534, 120.206 185.961, 127 185.934 C 134.092 185.906, 138.303 184.346, 145.060 179.244 C 152.865 173.352, 158.488 171.048, 165.128 171.022 C 172.300 170.994, 176.745 172.869, 185.681 179.690 C 190.757 183.565, 194.055 185.332, 196.931 185.718 C 201 186.263, 201 186.263, 201 179.170 C 201 172.077, 201 172.077, 197.250 171.063 C 193.369 170.014, 190.281 168.051, 182.847 161.908 C 174.239 154.794, 163.633 153.033, 154.981 157.281 M 155.149 176.473 C 153.306 177.306, 149.020 180.199, 145.625 182.901 C 133.092 192.874, 122.136 193.222, 111.578 183.983 C 106.734 179.744, 98.873 176, 94.818 176 C 94.368 176, 94 179.316, 94 183.370 C 94 190.740, 94 190.740, 98.490 191.246 C 102.269 191.672, 103.983 192.690, 109.315 197.678 C 120.685 208.314, 130.499 208.374, 146.300 197.903 C 156.089 191.416, 159.112 190.525, 168.936 191.228 C 176.053 191.737, 175.012 191.183, 189.391 202.102 C 192.267 204.286, 197.736 206.039, 199.528 205.351 C 200.627 204.929, 201 203.039, 201 197.893 C 201 191.611, 200.818 191, 198.950 191 C 196.020 191, 191.265 188.379, 185.500 183.586 C 176.778 176.334, 175.210 175.649, 166.500 175.288 C 160.885 175.056, 157.501 175.409, 155.149 176.473 M 155.201 196.995 C 152.837 198.068, 149.012 200.487, 146.701 202.372 C 139.343 208.371, 134.750 210.211, 127.123 210.211 C 119.389 210.211, 117.317 209.374, 111.190 203.782 C 106.298 199.317, 101.461 197, 97.032 197 C 94 197, 94 197, 94 204 C 94 211, 94 211, 97.050 211 C 101.142 211, 104.696 212.998, 109.500 218 C 115.430 224.175, 118.333 225.402, 127 225.398 C 135.215 225.395, 139.145 223.900, 146.500 217.979 C 152.611 213.060, 158.256 211, 165.623 211 C 173.049 211, 177.747 212.974, 185.300 219.269 C 189.898 223.102, 195.623 225.863, 199.165 225.956 C 200.519 225.992, 200.892 224.783, 201.165 219.479 C 201.567 211.650, 201.393 211, 198.885 211 C 195.504 211, 190.685 208.386, 185.002 203.472 C 181.979 200.856, 177.554 197.880, 175.169 196.858 C 169.452 194.408, 160.771 194.467, 155.201 196.995 M 826 234.026 C 822.975 235.671, 819.038 238.581, 817.250 240.494 C 814.556 243.376, 814 244.759, 814 248.581 C 814 260.317, 823.290 263.631, 834.441 255.872 C 837.582 253.687, 839.436 252.922, 839.710 253.700 C 839.943 254.360, 841.036 256.047, 842.139 257.450 C 844.712 260.721, 850.099 260.869, 855 257.803 C 856.925 256.599, 860.609 254.880, 863.186 253.982 C 867.836 252.363, 867.876 252.368, 868.437 254.606 C 869.042 257.014, 871.576 260, 873.016 260 C 873.820 260, 876.471 257.317, 884.872 248 C 888.028 244.500, 888.028 244.500, 885.362 249.769 C 883.121 254.200, 882.876 255.433, 883.827 257.519 C 885.594 261.398, 888.559 260.563, 895.074 254.348 C 898.333 251.239, 901 248.922, 901 249.199 C 901 249.475, 900.517 251.087, 899.927 252.780 C 898.379 257.219, 900.094 260, 904.378 260 C 909.203 260, 922 250.903, 922 247.474 C 922 246.113, 921.768 245, 921.485 245 C 921.202 245, 918.578 246.350, 915.654 248 C 912.730 249.650, 910.037 251, 909.669 251 C 908.011 251, 909.344 248.285, 913.453 243.294 C 917.383 238.519, 917.778 237.606, 916.817 235.498 C 915.014 231.542, 913.091 231.687, 907.152 236.230 C 897.565 243.564, 898.068 243.370, 900.293 238.874 C 902.287 234.842, 902.287 234.842, 900.140 232.696 C 898 230.555, 897.982 230.555, 894.431 232.467 C 892.471 233.523, 887.864 237.112, 884.193 240.443 C 878.163 245.915, 877.883 246.069, 881.291 242.033 C 885.867 236.614, 885.768 234.608, 880.904 234.199 C 877.752 233.935, 876.893 234.412, 873.710 238.199 C 868.948 243.866, 864.784 248.117, 864.385 247.719 C 864.209 247.542, 864.587 245.699, 865.224 243.621 C 866.120 240.702, 866.105 239.398, 865.158 237.881 C 864.484 236.802, 864.211 235.467, 864.552 234.916 C 865.632 233.168, 862.875 231, 859.574 231 C 852.905 231, 844.873 236.550, 838.699 245.423 C 836.328 248.831, 829.972 252, 825.508 252 C 821.191 252, 819.957 249.810, 822.618 246.870 C 825.566 243.613, 827.910 242.681, 829.610 244.091 C 832.628 246.596, 840.738 238.077, 839.611 233.587 C 839.057 231.378, 838.417 231.003, 835.231 231.018 C 833.010 231.029, 829.274 232.246, 826 234.026 M 849.533 245.267 C 845.819 248.981, 845.039 251.694, 847.422 252.608 C 849.822 253.529, 853.175 251.128, 852.493 248.977 C 852.161 247.931, 852.401 246.120, 853.026 244.952 C 854.933 241.388, 853.261 241.539, 849.533 245.267 M 804.035 251.934 C 801.679 256.336, 803.480 260, 808 260 C 809.430 260, 811.140 259.460, 811.800 258.800 C 812.460 258.140, 813 256.430, 813 255 C 813 253.570, 812.460 251.860, 811.800 251.200 C 809.899 249.299, 805.208 249.742, 804.035 251.934" stroke="none" fill="#d8d8d8" fill-rule="evenodd"/></svg>