<svg xmlns="http://www.w3.org/2000/svg" width="1000" height="201.197" viewBox="0 0 264.583 53.233" xmlns:v="https://vecta.io/nano"><g transform="matrix(.378588 0 0 .378588 103.68131 -117.61136)"><path d="M-99.912 321.355c-4.06 0-7.33 3.267-7.33 7.328v89.46c0 4.06 3.269 7.328 7.33 7.328h56.25c1.062 0 1.918-.855 1.918-1.917v-10.262c0-1.062-.855-1.918-1.918-1.918h-47.831v-32.716h43.009c1.062 0 1.917-.855 1.917-1.918v-9.697c0-1.062-.855-1.917-1.917-1.917h-43.009v-30.005h47.831c1.062 0 1.918-.855 1.918-1.917v-9.932c0-1.062-.855-1.917-1.918-1.917zM89.98 347.419c-13.384 0-21.695 4.609-27.259 12.273v-8.007c0-1.062-.855-1.918-1.918-1.918H49.221c-1.062 0-1.918.855-1.918 1.918v97.664c0 1.062.855 1.918 1.918 1.918h11.782c1.062 0 1.918-.855 1.918-1.918v-33.411c5.162 7.433 13.528 11.833 27.059 11.833 22.756 0 36.925-18.011 36.925-40.2s-13.877-40.153-36.925-40.153zm-3.305 12.92c16.372 0 24.426 12.192 24.426 27.233s-8.055 27.233-24.426 27.233-24.426-12.192-24.426-27.233 8.055-27.233 24.426-27.233zm231.852-10.571h11.649c1.062 0 1.918.855 1.918 1.918v71.868c0 1.062-.855 1.918-1.918 1.918h-11.649c-1.062 0-1.918-.855-1.918-1.918v-71.868c0-1.062.855-1.918 1.918-1.918zm-.167-28.45h11.983c1.062 0 1.918.855 1.918 1.918v11.984c0 1.062-.855 1.918-1.918 1.918H318.36c-1.062 0-1.918-.855-1.918-1.918v-11.984c0-1.062.855-1.918 1.918-1.918zm-61.114 106.454c13.384 0 21.695-4.609 27.259-12.273v8.054c0 1.062.855 1.918 1.918 1.918h11.582c1.062 0 1.918-.855 1.918-1.918v-100.28c0-1.062-.855-1.918-1.918-1.918h-11.782c-1.062 0-1.918.855-1.918 1.918v36.405c-5.54-7.244-13.528-12.258-27.059-12.258-22.756 0-36.925 18.011-36.925 40.2s13.877 40.153 36.925 40.153zm3.305-12.92c-16.372 0-24.426-12.192-24.426-27.233s8.055-27.233 24.426-27.233 24.426 12.192 24.426 27.233-8.055 27.233-24.426 27.233zm121.777-67.385c-23.049 0-36.925 17.964-36.925 40.153s13.877 40.153 36.925 40.153c13.384 0 21.695-4.609 27.259-12.273v8.054c0 1.062.855 1.918 1.918 1.918h11.582c1.062 0 1.918-.855 1.918-1.918V387.62v-35.934c0-1.062-.855-1.918-1.918-1.918h-11.582c-1.062 0-1.918.855-1.918 1.918v8.054c-5.564-7.664-13.875-12.273-27.259-12.273zm3.305 12.92c16.372 0 24.426 12.192 24.426 27.232s-8.055 27.232-24.426 27.232-24.426-12.192-24.426-27.232 8.054-27.232 24.426-27.232zM-29.34 349.768c-1.655 0-1.952 1.307-1.2 2.342l24.653 33.76-27.059 37.257c-.752 1.035-.455 2.343 1.2 2.343h13.349c1.158 0 1.759-.395 2.144-.963l18.438-27.21 19.204 27.21c.396.56.986.963 2.144.963h13.86c1.655 0 1.955-1.31 1.2-2.343L11.379 385.87l24.499-33.76c.751-1.035.455-2.342-1.2-2.342H21.59c-1.158 0-1.758.396-2.144.963L3.267 374.509l-16.714-23.778c-.394-.562-.986-.963-2.144-.963zm202.988-2.349c-23.178 0-37.128 16.666-37.128 40.176 0 25.931 16.489 40.176 37.128 40.176 24.941 0 34.773-14.668 35.322-15.218.632-.632.46-1.809-.071-2.33l-7.209-7.068c-.531-.521-1.541-.601-2.241.104-.527.531-9.303 11.624-23.68 11.624-15.282 0-22.805-9.362-23.818-23.155H208.9c1.766 0 1.862-1.57 1.867-2.601.118-28.002-16.155-41.71-37.118-41.71zm.05 12.185c14.018 0 19.89 8.429 21.129 20.436h-42.322c1.664-11.771 7.846-20.436 21.193-20.436z" fill="#191e3b"/><path d="M-247.804 310.658h73.57c14.437 0 26.059 11.622 26.059 26.059v73.57c0 14.437-11.622 26.059-26.059 26.059h-73.57c-14.437 0-26.059-11.622-26.059-26.059v-73.57c0-14.437 11.622-26.059 26.059-26.059z" fill="#fddb32"/><path d="M-238.716 333.16c-1.171 0-1.907.269-2.528.889l-12.559 12.559c-.233.233-.364.55-.364.88 0 .687.557 1.243 1.243 1.243h54.446l-33.472 33.471c-.66.66-1.043 1.043-1.043 2.338v8.807c0 .533.243.995.591 1.344s.81.59 1.343.59h8.807c1.295 0 1.678-.383 2.337-1.043l33.472-33.472v54.446c0 .687.557 1.243 1.243 1.243.33 0 .646-.131.88-.364l12.559-12.559c.62-.62.889-1.356.889-2.528v-59.452a8.393 8.393 0 0 0-8.393-8.393zm-10.667 64.569h12.081a1.82 1.82 0 0 1 1.824 1.824v12.157a1.82 1.82 0 0 1-1.824 1.824h-12.081a1.82 1.82 0 0 1-1.824-1.824v-12.157a1.82 1.82 0 0 1 1.824-1.824z" fill="#191e3b"/></g></svg>