<svg version="1.0" xmlns="http://www.w3.org/2000/svg"
 width="1551.000000pt" height="218.000000pt" viewBox="0 0 1551.000000 218.000000"
 preserveAspectRatio="xMidYMid meet">
<g transform="translate(0.000000,218.000000) scale(0.100000,-0.100000)"
fill="#d8d8d8" stroke="none">
<path d="M8345 2156 c-16 -7 -39 -23 -50 -36 -20 -22 -20 -38 -23 -962 -2
-889 -1 -941 15 -954 42 -31 176 -95 259 -123 184 -61 391 -86 589 -70 387 31
627 213 731 554 26 84 28 102 28 285 1 224 -8 271 -76 410 -76 157 -229 280
-405 325 -197 50 -462 33 -622 -40 -29 -14 -55 -25 -56 -25 -2 0 -5 126 -7
279 -3 264 -4 281 -24 308 -38 52 -76 63 -209 63 -77 -1 -131 -6 -150 -14z
m835 -907 c184 -30 260 -147 260 -401 -1 -349 -154 -503 -483 -485 -56 3 -129
14 -162 24 l-60 19 -3 328 c-2 319 -2 331 19 373 27 57 107 111 197 134 78 21
142 23 232 8z"/>
<path d="M14085 2156 c-16 -7 -39 -23 -50 -36 -20 -22 -20 -38 -22 -999 -2
-762 0 -981 10 -1000 28 -56 58 -66 201 -69 149 -4 191 6 223 54 16 25 19 59
23 316 l5 289 284 -321 c156 -177 295 -326 308 -331 13 -5 105 -9 204 -9 178
0 180 0 204 25 37 36 34 84 -7 132 -18 20 -156 170 -306 331 -150 162 -271
298 -270 302 2 5 135 143 296 308 273 282 292 303 292 337 0 25 -8 43 -25 60
-24 25 -26 25 -202 25 -151 0 -183 -3 -209 -17 -17 -10 -152 -145 -300 -301
l-269 -282 -5 558 c-6 622 -3 597 -75 628 -45 19 -267 19 -310 0z"/>
<path d="M750 1610 c-121 -12 -247 -66 -321 -136 -14 -13 -28 -24 -31 -24 -3
0 -8 18 -12 39 -4 26 -15 47 -33 61 -26 20 -37 21 -161 18 -132 -3 -134 -3
-158 -31 l-24 -28 0 -682 c0 -666 1 -683 20 -715 30 -49 71 -62 201 -62 127 0
169 14 197 64 15 28 18 83 22 501 5 434 6 473 24 505 50 94 118 134 228 135
89 0 120 -16 153 -81 19 -37 20 -64 25 -539 6 -558 3 -541 75 -571 50 -21 236
-19 281 2 69 33 68 25 74 554 5 467 5 476 27 517 46 84 142 133 240 119 70 -9
111 -34 136 -80 22 -40 22 -50 27 -541 5 -463 6 -503 23 -529 29 -44 73 -56
197 -56 125 0 165 12 195 56 19 28 20 50 20 559 0 484 -2 536 -18 595 -51 180
-173 301 -343 341 -70 16 -228 14 -308 -5 -86 -20 -185 -72 -254 -132 -28 -25
-52 -41 -52 -36 0 5 -18 30 -40 55 -86 97 -240 145 -410 127z"/>
<path d="M3180 1609 c-205 -17 -370 -84 -495 -201 -161 -151 -235 -338 -235
-598 0 -260 74 -447 235 -598 128 -120 289 -184 508 -201 213 -18 411 15 567
91 68 34 103 60 176 133 76 75 98 104 132 175 153 318 106 728 -110 956 -39
41 -98 92 -132 114 -157 103 -394 150 -646 129z m288 -391 c154 -57 222 -185
222 -413 0 -152 -27 -247 -91 -319 -76 -87 -176 -121 -330 -114 -242 12 -359
154 -359 438 0 160 32 262 107 336 44 44 126 83 197 94 72 12 192 1 254 -22z"/>
<path d="M5355 1614 c-169 -15 -299 -54 -406 -122 l-64 -41 -11 36 c-5 20 -23
47 -38 60 -28 24 -33 24 -168 21 -139 -3 -140 -3 -164 -31 l-24 -28 0 -682 c0
-666 1 -683 20 -715 31 -50 71 -62 210 -62 135 0 177 12 207 56 17 26 18 64
23 489 5 455 5 460 28 503 27 50 95 103 172 134 43 16 77 21 155 22 88 1 106
-2 150 -24 93 -47 89 -22 95 -590 4 -442 7 -498 22 -526 28 -52 69 -64 213
-64 144 0 179 10 210 63 19 31 20 54 20 542 0 562 0 567 -64 694 -77 152 -254
251 -471 264 -41 2 -93 3 -115 1z"/>
<path d="M7010 1609 c-205 -17 -370 -84 -495 -201 -161 -151 -235 -338 -235
-598 0 -260 74 -447 235 -598 128 -120 289 -184 508 -201 213 -18 411 15 567
91 68 34 103 60 176 133 76 75 98 104 132 175 153 318 106 728 -110 956 -39
41 -98 92 -132 114 -157 103 -394 150 -646 129z m288 -391 c154 -57 222 -185
222 -413 0 -152 -27 -247 -91 -319 -76 -87 -176 -121 -330 -114 -242 12 -359
154 -359 438 0 160 32 262 107 336 44 44 126 83 197 94 72 12 192 1 254 -22z"/>
<path d="M10920 1609 c-410 -33 -696 -257 -802 -626 -20 -67 -23 -102 -23
-253 0 -202 10 -254 76 -389 76 -154 217 -265 396 -312 60 -16 109 -21 208
-20 205 0 337 33 462 117 36 24 67 44 68 44 1 0 7 -18 14 -39 6 -22 24 -49 39
-61 25 -20 36 -21 164 -18 135 3 138 3 165 31 l28 27 0 657 0 656 -82 47
c-189 109 -455 160 -713 139z m305 -371 l40 -15 3 -314 c3 -366 2 -369 -84
-448 -70 -64 -143 -92 -254 -99 -196 -10 -325 66 -365 218 -19 71 -19 247 0
328 40 170 163 296 330 339 65 16 275 11 330 -9z"/>
<path d="M12985 1614 c-169 -15 -299 -54 -406 -122 l-64 -41 -11 36 c-5 20
-23 47 -38 60 -28 24 -33 24 -168 21 -139 -3 -140 -3 -164 -31 l-24 -28 0
-682 c0 -666 1 -683 20 -715 31 -50 71 -62 210 -62 135 0 177 12 207 56 17 26
18 64 23 489 5 455 5 460 28 503 27 50 95 103 172 134 43 16 77 21 155 22 88
1 106 -2 150 -24 93 -47 89 -22 95 -590 4 -442 7 -498 22 -526 28 -52 69 -64
213 -64 144 0 179 10 210 63 19 31 20 54 20 542 0 562 0 567 -64 694 -77 152
-254 251 -471 264 -41 2 -93 3 -115 1z"/>
</g>
</svg>
