<svg version="1.0" xmlns="http://www.w3.org/2000/svg"
 width="1600.000000pt" height="250.000000pt" viewBox="0 0 1600.000000 250.000000"
 preserveAspectRatio="xMidYMid meet">
<g transform="translate(0.000000,250.000000) scale(0.100000,-0.100000)"
fill="#d8d8d8" stroke="none">
<path d="M2935 2470 c-41 -9 -65 -23 -97 -57 -60 -63 -58 -22 -58 -1112 0
-615 4 -1009 10 -1030 26 -91 93 -141 187 -141 51 0 66 5 102 31 25 17 50 48
62 72 18 40 19 81 19 1063 0 994 -1 1023 -20 1066 -21 48 -40 68 -85 90 -40
20 -84 27 -120 18z"/>
<path d="M220 2463 c-62 -11 -92 -27 -127 -70 -36 -43 -38 -50 -38 -114 0 -60
3 -71 31 -106 63 -77 64 -77 389 -83 l290 -5 5 -925 5 -925 23 -37 c44 -71
165 -101 242 -59 19 10 49 37 65 60 l30 43 3 924 2 924 283 0 c253 0 286 2
322 19 51 24 81 56 100 110 20 57 19 77 -6 131 -24 52 -46 75 -97 98 -34 15
-105 17 -767 18 -401 1 -741 0 -755 -3z"/>
<path d="M5131 2454 c-239 -40 -471 -160 -639 -332 -314 -320 -420 -772 -280
-1197 26 -82 99 -229 145 -295 53 -76 236 -258 306 -304 125 -82 264 -141 412
-177 128 -31 371 -30 500 1 212 52 412 156 537 280 47 48 57 64 63 104 18 117
-45 204 -161 223 -48 8 -109 -18 -169 -72 -69 -62 -249 -150 -350 -171 -394
-83 -784 131 -925 509 -140 375 29 808 385 985 139 69 210 86 365 87 222 0
335 -42 556 -206 69 -52 166 -50 227 4 59 52 83 134 58 200 -32 84 -210 214
-396 290 -193 79 -427 106 -634 71z"/>
<path d="M8385 2455 c-47 -12 -76 -40 -582 -546 -293 -294 -542 -551 -553
-571 -23 -43 -26 -130 -6 -167 15 -28 1034 -1061 1083 -1098 47 -36 128 -42
187 -13 80 38 121 127 97 213 -16 55 -13 52 -524 566 -220 221 -397 407 -395
415 2 8 203 216 447 462 452 455 480 489 481 561 0 46 -33 115 -70 146 -17 15
-35 27 -38 27 -4 0 -23 4 -42 9 -23 5 -54 3 -85 -4z"/>
<path d="M9594 2451 c-23 -10 -54 -36 -70 -57 l-29 -37 -3 -1044 c-2 -1013 -2
-1046 17 -1088 13 -29 34 -53 62 -72 l43 -28 568 -3 c384 -2 581 1 608 8 47
13 107 62 122 99 14 38 11 126 -6 158 -18 35 -51 66 -93 87 -28 14 -88 16
-493 16 l-460 0 2 308 3 307 476 5 476 5 36 28 c43 32 63 67 70 120 7 54 -11
111 -46 148 -59 60 -53 59 -557 59 l-460 0 0 315 0 315 454 0 c311 0 464 4
487 11 74 25 122 94 121 175 0 58 -11 85 -51 127 -53 58 -43 57 -665 57 -536
0 -574 -2 -612 -19z"/>
<path d="M11821 2459 c-56 -11 -85 -30 -115 -77 -50 -76 -46 -156 11 -222 20
-23 48 -47 62 -53 17 -8 127 -14 316 -17 l290 -5 5 -925 5 -925 23 -37 c33
-53 97 -82 172 -76 71 5 118 37 149 101 21 43 21 49 21 955 l0 912 283 0 c252
0 286 2 322 19 80 36 130 134 107 209 -20 65 -50 102 -100 125 -47 22 -49 22
-777 24 -401 0 -750 -3 -774 -8z"/>
<path d="M14930 2425 c-254 -51 -457 -207 -559 -429 -74 -161 -64 -358 26
-530 49 -91 173 -219 263 -269 117 -64 231 -88 480 -102 190 -11 276 -40 349
-120 57 -62 81 -117 81 -188 1 -250 -377 -380 -705 -243 -71 30 -179 104 -219
150 -97 112 -249 96 -316 -34 -23 -43 -16 -125 13 -169 74 -111 251 -239 417
-300 137 -50 218 -64 385 -64 137 0 172 3 240 22 105 30 246 99 316 154 292
232 319 638 61 918 -153 166 -311 223 -677 244 -157 10 -228 31 -294 91 -130
117 -134 271 -10 396 105 105 260 146 433 114 117 -23 202 -56 286 -112 38
-25 86 -50 107 -55 196 -44 306 204 146 328 -173 134 -422 214 -658 212 -55 0
-129 -7 -165 -14z"/>
</g>
</svg>
