<?xml version="1.0" standalone="no"?>
<!DOCTYPE svg PUBLIC "-//W3C//DTD SVG 20010904//EN"
 "http://www.w3.org/TR/2001/REC-SVG-20010904/DTD/svg10.dtd">
<svg version="1.0" xmlns="http://www.w3.org/2000/svg"
 width="460.000000pt" height="460.000000pt" viewBox="0 0 460.000000 460.000000"
 preserveAspectRatio="xMidYMid meet">
<metadata>
Created by potrace 1.11, written by Peter Selinger 2001-2013
</metadata>
<g transform="translate(0.000000,460.000000) scale(0.100000,-0.100000)"
fill="#000000" stroke="none">
<path d="M0 2300 l0 -2300 2300 0 2300 0 0 2300 0 2300 -2300 0 -2300 0 0
-2300z m3238 1415 c202 -60 220 -338 27 -426 -36 -17 -72 -19 -392 -19 l-353
0 -2 -1129 -3 -1129 -31 -44 c-102 -140 -313 -126 -389 25 l-25 51 0 1113 0
1113 -341 0 c-369 0 -394 3 -454 52 -143 118 -90 343 94 399 14 4 429 8 922 8
780 1 902 -1 947 -14z"/>
</g>
</svg>
